{
.appVersion = "3243";
.formatVersion = 3;
DisplayStrings = (
"ױיו"
);
axes = (
{
default = 100;
name = Weight;
tag = wght;
},
{
default = 100;
name = Width;
tag = wdth;
}
);
customParameters = (
{
name = glyphOrder;
value = (
.notdef,
CR,
NULL,
"alef-hb",
"alefdagesh-hb",
"aleflamed-hb",
"alefpatah-hb",
"alefqamats-hb",
"alternativeplus-hb",
"atnahhafukh-hb",
"ayin-hb",
"ayinaltone-hb",
"bet-hb",
"betdagesh-hb",
"betrafe-hb",
"dagesh-hb",
"dalet-hb",
"daletdagesh-hb",
"dargaleft-hb",
"dehi-hb",
"etnahtaleft-hb",
"finalkaf-hb",
"finalkafdagesh-hb",
"finalmem-hb",
"finalnun-hb",
"finalpe-hb",
"finalpedagesh-hb",
"finaltsadi-hb",
"finalwidemem-hb",
"geresh-hb",
"gereshaccent-hb",
"gereshmuqdam-hb",
"gershayim-hb",
"gershayimaccent-hb",
"gimel-hb",
"gimeldagesh-hb",
"hatafpatah-hb",
"hatafpatah_zerowidthjoiner_siluqleft-hb",
"hatafqamats-hb",
"hatafqamats_zerowidthjoiner_siluqleft-hb",
"hatafsegol-hb",
"hatafsegol_zerowidthjoiner_siluqleft-hb",
"he-hb",
"hedagesh-hb",
"het-hb",
"hiriq-hb",
"holam-hb",
"holamhaser-hb",
hyphen,
hyphentwo,
"iluy-hb",
"judeospanishvarika-hb",
"kaf-hb",
"kafdagesh-hb",
"kafrafe-hb",
"lamed-hb",
"lameddagesh-hb",
"lowerdot-hb",
"mahapakhleft-hb",
"maqaf-hb",
"masoracircle-hb",
"mem-hb",
"memdagesh-hb",
"merkhakefulaleft-hb",
"merkhaleft-hb",
"munahleft-hb",
nbspace,
"nun-hb",
"nundagesh-hb",
"nunhafukha-hb",
"ole-hb",
"paseq-hb",
"pashta-hb",
"patah-hb",
"pazer-hb",
"pe-hb",
"pedagesh-hb",
"perafe-hb",
"qadma-hb",
"qamats-hb",
"qamatsqatan-hb",
"qarneypara-hb",
"qof-hb",
"qofdagesh-hb",
"qubuts-hb",
"rafe-hb",
"resh-hb",
"reshdagesh-hb",
"reviamugrash-hb",
"samekh-hb",
"samekhdagesh-hb",
"segol-hb",
"segolta-hb",
"shalshelet-hb",
sheqel,
"sheva-hb",
"shin-hb",
"shindagesh-hb",
"shindageshshindot-hb",
"shindageshsindot-hb",
"shindot-hb",
"shinshindot-hb",
"shinsindot-hb",
"siluqleft-hb",
"sindot-hb",
"sofpasuq-hb",
space,
"tav-hb",
"tavdagesh-hb",
"telishagedola-hb",
"telishaqetana-hb",
"tet-hb",
"tetdagesh-hb",
"tevirleft-hb",

glyphs = (
{
glyphname = "alef-hb";
layers = (
{
anchors = (
{
name = bottom;
pos = (281,0);
},
{
name = bottomleft;
pos = (110,0);
},
{
name = center;
pos = (265,127);
},
{
name = top;
pos = (299,528);
},
{
name = topleft;
pos = (83,528);
}
);
layerId = master01;
shapes = (
{
closed = 1;
nodes = (
(543,0,l),
(456,148,o),
(340,307,o),
(260,405,cs),
(179,504,o),
(146,542,o),
(110,584,c),
(74,584,l),
(109,543,o),
(145,502,o),
(226,401,cs),
(305,304,o),
(421,149,o),
(508,0,c)
);
},
{
closed = 1;
nodes = (
(77,0,l),
(101,174,ls),
(116,283,o),
(149,356,o),
(233,404,c),
(217,426,l),
(125,373,o),
(86,294,o),
(69,171,cs),
(45,0,l)
);
},
{
closed = 1;
nodes = (
(464,301,o),
(517,377,o),
(527,501,cs),
(534,584,l),
(502,584,l),
(495,498,ls),
(486,388,o),
(440,318,o),
(356,270,c),
(372,248,l)
);
}
);
width = 588;
},
{
anchors = (
{
name = bottom;
pos = (351,0);
},
{
name = bottomleft;
pos = (205,0);
},
{
name = center;
pos = (311,91);
},
{
name = top;
pos = (355,553);
},
{
name = topleft;
pos = (34,553);
}
);
layerId = master02;
shapes = (
{
closed = 1;
nodes = (
(685,0,l),
(589,152,o),
(487,283,o),
(392,434,cs),
(370,469,o),
(307,561,o),
(268,609,c),
(32,609,l),
(66,570,o),
(164,438,o),
(210,381,cs),
(311,256,o),
(374,152,o),
(462,0,c)
);
},
{
closed = 1;
nodes = (
(211,0,l),
(234,145,ls),
(243,203,o),
(248,264,o),
(300,279,c),
(245,402,l),
(97,367,o),
(60,261,o),
(44,158,cs),
(20,0,l)
);
},
{
closed = 1;
nodes = (
(608,278,o),
(659,384,o),
(670,487,cs),
(683,609,l),
(492,609,l),
(478,500,ls),
(471,445,o),
(467,381,o),
(404,366,c),
(458,243,l)
);
}
);
width = 705;
},
{
anchors = (
{
name = bottom;
pos = (200,0);
},
{
name = bottomleft;
pos = (147,0);
},
{
name = center;
pos = (176,127);
},
{
name = top;
pos = (221,528);
},
{
name = topleft;
pos = (92,528);
}
);
layerId = master03;
shapes = (
{
closed = 1;
nodes = (
(377,0,l),
(313,148,o),
(240,316,o),
(185,415,cs),
(130,514,o),
(114,542,o),
(87,584,c),
(53,584,l),
(79,543,o),
(102,512,o),
(155,411,cs),
(207,312,o),
(281,149,o),
(345,0,c)
);
},
{
closed = 1;
nodes = (
(66,0,l),
(83,184,ls),
(94,304,o),
(111,350,o),
(170,393,c),
(151,416,l),
(86,368,o),
(63,311,o),
(51,181,cs),
(34,0,l)
);
},
{
closed = 1;
nodes = (
(313,275,o),
(348,375,o),
(356,450,cs),
(371,584,l),
(339,584,l),
(323,447,ls),
(316,385,o),
(289,293,o),
(242,274,c),
(260,251,l)
);
}
);
width = 411;
},
{
anchors = (
{
name = bottom;
pos = (259,0);
},
{
name = bottomleft;
pos = (118,0);
},
{
name = center;
pos = (248,81);
},
{
name = top;
pos = (254,536);
},
{
name = topleft;
pos = (16,536);
}
);
layerId = master04;
shapes = (
{
closed = 1;
nodes = (
(520,0,l),
(454,152,o),
(382,303,o),
(320,435,cs),
(304,470,o),
(260,561,o),
(240,609,c),
(31,609,l),
(58,570,o),
(130,440,o),
(159,381,cs),
(220,257,o),
(263,152,o),
(321,0,c)
);
},
{
closed = 1;
nodes = (
(204,0,l),
(219,226,ls),
(223,292,o),
(247,341,o),
(272,339,c),
(242,431,l),
(133,408,o),
(55,350,o),
(45,239,cs),
(23,0,l)
);
},
{
closed = 1;
nodes = (
(435,260,o),
(509,317,o),
(517,437,cs),
(529,609,l),
(348,609,l),
(342,450,ls),
(339,378,o),
(315,344,o),
(290,336,c),
(326,247,l)
);
}
);
width = 552;
}
);
unicode = 1488;
},
{
glyphname = "aleflamed-hb";
layers = (
{
anchors = (
{
name = caret_1;
pos = (284.5,0);
}
);
layerId = master01;
shapes = (
{
closed = 1;
nodes = (
(528,0,l),
(478,85,o),
(419,173,o),
(362,251,c),
(451,304,o),
(502,379,o),
(512,501,cs),
(519,584,l),
(487,584,l),
(480,498,ls),
(471,390,o),
(427,321,o),
(346,273,c),
(310,323,o),
(275,368,o),
(245,405,cs),
(164,504,o),
(131,542,o),
(95,584,c),
(47,584,l),
(47,760,l),
(15,755,l),
(15,557,l),
(82,557,l),
(112,523,o),
(147,480,o),
(211,401,cs),
(289,303,o),
(406,149,o),
(493,0,c)
);
}
);
width = 569;
},
{
anchors = (
{
name = caret_1;
pos = (383.5,0);
}
);
layerId = master02;
shapes = (
{
closed = 1;
nodes = (
(715,0,l),
(658,91,o),
(598,174,o),
(539,259,c),
(650,304,o),
(690,397,o),
(700,487,cs),
(713,609,l),
(522,609,l),
(508,500,ls),
(502,454,o),
(498,401,o),
(459,376,c),
(447,395,o),
(434,414,o),
(422,434,cs),
(400,469,o),
(337,561,o),
(298,609,c),
(217,609,l),
(217,760,l),
(25,740,l),
(25,451,l),
(185,451,l),
(203,428,o),
(222,404,o),
(240,381,cs),
(341,256,o),
(404,152,o),
(492,0,c)
);
}
);
width = 767;
},
{
anchors = (
{
name = caret_1;
pos = (213,0);
}
);
layerId = master03;
shapes = (
{
closed = 1;
nodes = (
(359,0,l),
(333,72,o),
(302,149,o),
(271,220,c),
(342,281,o),
(346,355,o),
(355,471,cs),
(364,584,l),
(332,584,l),
(323,468,ls),
(315,369,o),
(317,302,o),
(259,248,c),
(231,312,o),
(202,370,o),
(177,415,cs),
(121,514,o),
(106,542,o),
(79,584,c),
(47,584,l),
(47,760,l),
(15,755,l),
(15,557,l),
(62,557,l),
(82,526,o),
(104,489,o),
(146,411,cs),
(199,312,o),
(273,149,o),
(327,0,c)
);
}
);
width = 426;
},
{
anchors = (
{
name = caret_1;
pos = (281.5,0);
}
);
layerId = master04;
shapes = (
{
closed = 1;
nodes = (
(537,0,l),
(497,95,o),
(454,182,o),
(411,270,c),
(502,318,o),
(532,404,o),
(534,487,cs),
(538,609,l),
(367,609,l),
(360,500,ls),
(358,469,o),
(357,436,o),
(347,409,c),
(343,418,o),
(340,426,o),
(336,434,cs),
(321,469,o),
(277,561,o),
(248,609,c),
(207,609,l),
(207,760,l),
(15,740,l),
(15,451,l),
(134,451,l),
(149,424,o),
(162,399,o),
(172,381,cs),
(237,256,o),
(278,152,o),
(334,0,c)
);
}
);
width = 563;
}
);
note = "
aleflamed
";
unicode = 64335;
},
{
glyphname = "alternativeplus-hb";
layers = (
{
layerId = master01;
shapes = (
{
closed = 1;
nodes = (
(297,583,l),
(273,583,l),
(273,365,l),
(55,365,l),
(55,341,l),
(515,341,l),
(515,365,l),
(297,365,l)
);
}
);
width = 570;
},
{
layerId = master02;
shapes = (
{
closed = 1;
nodes = (
(348,640,l),
(217,640,l),
(217,461,l),
(35,461,l),
(35,330,l),
(530,330,l),
(530,461,l),
(348,461,l)
);
}
);
width = 566;
},
{
layerId = master03;
shapes = (
{
closed = 1;
nodes = (
(257,583,l),
(233,583,l),
(233,365,l),
(55,365,l),
(55,341,l),
(435,341,l),
(435,365,l),
(257,365,l)
);
}
);
width = 490;
},
{
layerId = master04;
shapes = (
{
closed = 1;
nodes = (
(309,640,l),
(178,640,l),
(178,461,l),
(36,461,l),
(36,330,l),
(451,330,l),
(451,461,l),
(309,461,l)
);
}
);
width = 487;
}
);
note = "
alt_plussign
";
unicode = 64297;
},
{
glyphname = "atnahhafukh-hb";
layers = (
{
anchors = (
{
name = _bottomleft;
pos = (115,0);
}
);
layerId = master01;
shapes = (
{
closed = 1;
nodes = (
(127,-202,l),
(127,-160,l),
(157,-155,o),
(171,-137,o),
(171,-99,cs),
(171,-82,l),
(146,-82,l),
(146,-99,ls),
(146,-126,o),
(137,-137,o),
(115,-137,cs),
(92,-137,o),
(83,-126,o),
(83,-99,cs),
(83,-82,l),
(58,-82,l),
(58,-99,ls),
(58,-137,o),
(72,-155,o),
(101,-160,c),
(101,-202,l)
);
}
);
userData = {
com.schriftgestaltung.Glyphs.originalWidth = 229;
};
width = 0;
},
{
anchors = (
{
name = _bottomleft;
pos = (147,0);
}
);
layerId = master02;
shapes = (
{
closed = 1;
nodes = (
(172,-238,l),
(172,-192,l),
(219,-184,o),
(243,-156,o),
(243,-95,cs),
(243,-70,l),
(191,-70,l),
(191,-95,ls),
(191,-130,o),
(179,-146,o),
(147,-146,cs),
(113,-146,o),
(101,-130,o),
(101,-95,cs),
(101,-70,l),
(50,-70,l),
(50,-95,ls),
(50,-156,o),
(76,-185,o),
(120,-192,c),
(120,-238,l)
);
}
);
userData = {
com.schriftgestaltung.Glyphs.originalWidth = 293;
};
width = 0;
},
{
anchors = (
{
name = _bottomleft;
pos = (107,0);
}
);
layerId = master03;
shapes = (
{
closed = 1;
nodes = (
(119,-202,l),
(119,-160,l),
(149,-155,o),
(163,-137,o),
(163,-99,cs),
(163,-82,l),
(138,-82,l),
(138,-99,ls),
(138,-126,o),
(129,-137,o),
(107,-137,cs),
(84,-137,o),
(75,-126,o),
(75,-99,cs),
(75,-82,l),
(50,-82,l),
(50,-99,ls),
(50,-137,o),
(64,-155,o),
(93,-160,c),
(93,-202,l)
);
}
);
userData = {
com.schriftgestaltung.Glyphs.originalWidth = 213;
};
width = 0;
},
{
anchors = (
{
name = _bottomleft;
pos = (147,0);
}
);
layerId = master04;
shapes = (
{
closed = 1;
nodes = (
(169,-217,l),
(169,-177,l),
(210,-170,o),
(231,-145,o),
(231,-92,cs),
(231,-70,l),
(186,-70,l),
(186,-92,ls),
(186,-123,o),
(175,-137,o),
(147,-137,cs),
(117,-137,o),
(107,-123,o),
(107,-92,cs),
(107,-70,l),
(62,-70,l),
(62,-92,ls),
(62,-145,o),
(85,-171,o),
(123,-177,c),
(123,-217,l)
);
}
);
userData = {
com.schriftgestaltung.Glyphs.originalWidth = 293;
};
width = 0;
}
);
note = "
uni05A2
";
unicode = 1442;
},
{
glyphname = "ayin-hb";
layers = (
{
anchors = (
{
name = bottom;
pos = (271,0);
},
{
name = bottomleft;
pos = (7,0);
},
{
name = center;
pos = (308,316);
},
{
name = top;
pos = (281,528);
},
{
name = topleft;
pos = (42,528);
}
);
layerId = master01;
shapes = (
{
closed = 1;
nodes = (
(213,10,ls),
(373,51,o),
(475,109,o),
(489,456,cs),
(494,584,l),
(462,584,l),
(456,452,ls),
(441,127,o),
(352,74,o),
(211,37,cs),
(45,-6,l),
(46,-33,l)
);
},
{
closed = 1;
nodes = (
(232,27,l),
(236,58,o),
(235,83,o),
(230,102,c),
(100,587,l),
(70,581,l),
(218,27,l)
);
}
);
width = 556;
},
{
anchors = (
{
name = bottom;
pos = (302,0);
},
{
name = bottomleft;
pos = (-5,0);
},
{
name = center;
pos = (357,416);
},
{
name = top;
pos = (342,553);
},
{
name = topleft;
pos = (30,553);
}
);
layerId = master02;
shapes = (
{
closed = 1;
nodes = (
(288,10,ls),
(568,63,o),
(601,251,o),
(613,407,cs),
(629,609,l),
(437,609,l),
(422,414,ls),
(408,231,o),
(369,182,o),
(288,167,cs),
(25,118,l),
(25,-40,l)
);
},
{
closed = 1;
nodes = (
(229,67,l),
(289,122,o),
(317,214,o),
(301,291,c),
(245,619,l),
(57,597,l),
(158,67,l)
);
}
);
width = 654;
},
{
anchors = (
{
name = bottom;
pos = (158,0);
},
{
name = bottomleft;
pos = (1,0);
},
{
name = center;
pos = (216,325);
},
{
name = top;
pos = (208,528);
},
{
name = topleft;
pos = (54,528);
}
);
layerId = master03;
shapes = (
{
closed = 1;
nodes = (
(167,0,ls),
(309,34,o),
(339,109,o),
(353,456,cs),
(358,584,l),
(326,584,l),
(320,452,ls),
(305,127,o),
(289,57,o),
(165,27,cs),
(29,-6,l),
(30,-33,l)
);
},
{
closed = 1;
nodes = (
(171,24,l),
(176,58,o),
(169,83,o),
(165,102,c),
(82,587,l),
(52,581,l),
(150,24,l)
);
}
);
width = 397;
},
{
anchors = (
{
name = bottom;
pos = (271,0);
},
{
name = bottomleft;
pos = (32,0);
},
{
name = center;
pos = (284,444);
},
{
name = top;
pos = (302,553);
},
{
name = topleft;
pos = (71,553);
}
);
layerId = master04;
shapes = (
{
closed = 1;
nodes = (
(266,18,ls),
(414,52,o),
(490,144,o),
(506,344,cs),
(527,609,l),
(335,609,l),
(310,290,ls),
(305,231,o),
(298,182,o),
(253,172,cs),
(13,118,l),
(13,-40,l)
);
},
{
closed = 1;
nodes = (
(185,67,l),
(254,130,o),
(274,226,o),
(261,291,c),
(211,619,l),
(22,597,l),
(114,67,l)
);
}
);
width = 555;
}
);
unicode = 1506;
},
{
glyphname = "ayinaltone-hb";
layers = (
{
anchors = (
{
name = bottom;
pos = (286,0);
},
{
name = bottomleft;
pos = (20,0);
},
{
name = top;
pos = (301,528);
},
{
name = topleft;
pos = (63,528);
}
);
layerId = master01;
shapes = (
{
closed = 1;
nodes = (
(208,0,ls),
(373,1,o),
(470,109,o),
(484,456,cs),
(489,584,l),
(457,584,l),
(451,452,ls),
(436,127,o),
(351,28,o),
(206,27,cs),
(40,26,l),
(41,-1,l)
);
},
{
closed = 1;
nodes = (
(228,22,l),
(232,53,o),
(230,83,o),
(225,102,c),
(95,587,l),
(65,581,l),
(214,22,l)
);
}
);
width = 542;
},
{
anchors = (
{
name = bottom;
pos = (299,0);
},
{
name = bottomleft;
pos = (10,0);
},
{
name = top;
pos = (337,553);
},
{
name = topleft;
pos = (37,553);
}
);
layerId = master02;
shapes = (
{
closed = 1;
nodes = (
(288,0,ls),
(573,0,o),
(601,251,o),
(613,407,cs),
(629,609,l),
(437,609,l),
(422,414,ls),
(408,231,o),
(369,157,o),
(288,157,cs),
(25,158,l),
(25,0,l)
);
},
{
closed = 1;
nodes = (
(229,67,l),
(289,122,o),
(317,214,o),
(301,291,c),
(245,619,l),
(57,597,l),
(158,67,l)
);
}
);
width = 649;
},
{
anchors = (
{
name = bottom;
pos = (231,0);
},
{
name = bottomleft;
pos = (22,0);
},
{
name = top;
pos = (219,528);
},
{
name = topleft;
pos = (65,528);
}
);
layerId = master03;
shapes = (
{
closed = 1;
nodes = (
(158,0,ls),
(323,0,o),
(370,109,o),
(384,456,cs),
(389,584,l),
(357,584,l),
(351,452,ls),
(336,127,o),
(301,27,o),
(156,27,cs),
(30,27,l),
(31,0,l)
);
},
{
closed = 1;
nodes = (
(171,17,l),
(178,48,o),
(174,83,o),
(171,102,c),
(75,587,l),
(44,581,l),
(157,17,l)
);
}
);
width = 413;
},
{
anchors = (
{
name = bottom;
pos = (287,0);
},
{
name = bottomleft;
pos = (-2,0);
},
{
name = top;
pos = (272,553);
},
{
name = topleft;
pos = (41,553);
}
);
layerId = master04;
shapes = (
{
closed = 1;
nodes = (
(268,0,ls),
(553,0,o),
(561,251,o),
(573,407,cs),
(589,609,l),
(397,609,l),
(382,414,ls),
(368,231,o),
(349,157,o),
(268,157,cs),
(25,158,l),
(25,0,l)
);
},
{
closed = 1;
nodes = (
(229,67,l),
(289,122,o),
(317,214,o),
(301,291,c),
(245,619,l),
(57,597,l),
(158,67,l)
);
}
);
width = 624;
}
);
note = "
alternativeayin
";
unicode = 64288;
},
{
glyphname = "bet-hb";
layers = (
{
anchors = (
{
name = bottom;
pos = (252,0);
},
{
name = bottomleft;
pos = (43,0);
},
{
name = center;
pos = (222,296);
},
{
name = top;
pos = (214,528);
},
{
name = topleft;
pos = (43,528);
}
);
layerId = master01;
shapes = (
{
closed = 1;
nodes = (
(417,0,l),
(424,6,o),
(427,9,o),
(427,17,c),
(427,419,ls),
(427,527,o),
(370,584,o),
(264,584,cs),
(85,584,l),
(80,557,l),
(259,557,ls),
(352,557,o),
(395,511,o),
(395,416,cs),
(395,0,l)
);
},
{
closed = 1;
nodes = (
(494,0,l),
(499,27,l),
(50,27,l),
(50,0,l)
);
}
);
width = 549;
},
{
anchors = (
{
name = bottom;
pos = (310,0);
},
{
name = bottomleft;
pos = (15,0);
},
{
name = center;
pos = (185,306);
},
{
name = top;
pos = (247,553);
},
{
name = topleft;
pos = (15,553);
}
);
layerId = master02;
shapes = (
{
closed = 1;
nodes = (
(433,0,l),
(466,45,o),
(504,98,o),
(518,147,c),
(518,382,ls),
(518,533,o),
(433,609,o),
(266,609,cs),
(75,609,l),
(55,451,l),
(257,451,ls),
(300,451,o),
(326,427,o),
(326,379,cs),
(326,0,l)
);
},
{
closed = 1;
nodes = (
(574,0,l),
(594,158,l),
(25,158,l),
(25,0,l)
);
}
);
width = 609;
},
{
anchors = (
{
name = bottom;
pos = (145,0);
},
{
name = bottomleft;
pos = (25,0);
},
{
name = center;
pos = (105,296);
},
{
name = top;
pos = (124,528);
},
{
name = topleft;
pos = (25,528);
}
);
layerId = master03;
shapes = (
{
closed = 1;
nodes = (
(248,0,l),
(255,6,o),
(258,9,o),
(258,17,c),
(258,419,ls),
(258,527,o),
(221,584,o),
(115,584,cs),
(29,584,l),
(24,557,l),
(110,557,ls),
(203,557,o),
(226,511,o),
(226,416,cs),
(226,0,l)
);
},
{
closed = 1;
nodes = (
(308,0,l),
(313,27,l),
(24,27,l),
(24,0,l)
);
}
);
width = 337;
},
{
anchors = (
{
name = bottom;
pos = (244,0);
},
{
name = bottomleft;
pos = (33,0);
},
{
name = center;
pos = (104,306);
},
{
name = top;
pos = (214,553);
},
{
name = topleft;
pos = (33,553);
}
);
layerId = master04;
shapes = (
{
closed = 1;
nodes = (
(311,0,l),
(344,45,o),
(382,98,o),
(396,147,c),
(396,382,ls),
(396,533,o),
(331,609,o),
(164,609,cs),
(53,609,l),
(33,451,l),
(155,451,ls),
(198,451,o),
(204,427,o),
(204,379,cs),
(204,0,l)
);
},
{
closed = 1;
nodes = (
(437,0,l),
(457,158,l),
(18,158,l),
(18,0,l)
);
}
);
width = 475;
}
);
unicode = 1489;
},
{
glyphname = "dagesh-hb";
layers = (
{
anchors = (
{
name = _center;
pos = (71,296);
}
);
layerId = master01;
shapes = (
{
closed = 1;
nodes = (
(84,273,o),
(94,283,o),
(94,296,cs),
(94,308,o),
(84,318,o),
(72,318,cs),
(59,318,o),
(49,308,o),
(49,296,cs),
(49,283,o),
(59,273,o),
(72,273,cs)
);
}
);
userData = {
com.schriftgestaltung.Glyphs.originalWidth = 144;
};
width = 0;
},
{
anchors = (
{
name = _center;
pos = (101,306);
}
);
layerId = master02;
shapes = (
{
closed = 1;
nodes = (
(121,269,o),
(138,286,o),
(138,306,cs),
(138,326,o),
(121,343,o),
(101,343,cs),
(81,343,o),
(64,326,o),
(64,306,cs),
(64,286,o),
(81,269,o),
(101,269,cs)
);
}
);
userData = {
com.schriftgestaltung.Glyphs.originalWidth = 202;
};
width = 0;
},
{
anchors = (
{
name = _center;
pos = (71,296);
}
);
layerId = master03;
shapes = (
{
closed = 1;
nodes = (
(84,273,o),
(94,283,o),
(94,296,cs),
(94,308,o),
(84,318,o),
(72,318,cs),
(59,318,o),
(49,308,o),
(49,296,cs),
(49,283,o),
(59,273,o),
(72,273,cs)
);
}
);
userData = {
com.schriftgestaltung.Glyphs.originalWidth = 144;
};
width = 0;
},
{
anchors = (
{
name = _center;
pos = (101,306);
}
);
layerId = master04;
shapes = (
{
closed = 1;
nodes = (
(121,269,o),
(138,286,o),
(138,306,cs),
(138,326,o),
(121,343,o),
(101,343,cs),
(81,343,o),
(64,326,o),
(64,306,cs),
(64,286,o),
(81,269,o),
(101,269,cs)
);
}
);
userData = {
com.schriftgestaltung.Glyphs.originalWidth = 202;
};
width = 0;
}
);
note = "
dagesh
";
unicode = 1468;
},
{
glyphname = "dalet-hb";
layers = (
{
anchors = (
{
name = bottom;
pos = (361,0);
},
{
name = bottomleft;
pos = (181,0);
},
{
name = center;
pos = (181,296);
},
{
name = top;
pos = (242,528);
},
{
name = topleft;
pos = (13,528);
}
);
layerId = master01;
shapes = (
{
closed = 1;
nodes = (
(468,557,l),
(473,584,l),
(40,584,l),
(40,557,l)
);
},
{
closed = 1;
nodes = (
(378,0,l),
(378,509,l),
(378,528,o),
(380,548,o),
(383,557,c),
(359,557,l),
(350,550,o),
(346,528,o),
(346,509,c),
(346,0,l)
);
}
);
width = 513;
},
{
anchors = (
{
name = bottom;
pos = (378,0);
},
{
name = bottomleft;
pos = (-15,0);
},
{
name = center;
pos = (129,306);
},
{
name = top;
pos = (280,553);
},
{
name = topleft;
pos = (-25,553);
}
);
layerId = master02;
shapes = (
{
closed = 1;
nodes = (
(555,451,l),
(575,609,l),
(35,609,l),
(35,451,l)
);
},
{
closed = 1;
nodes = (
(474,0,l),
(474,384,l),
(474,416,o),
(474,439,o),
(495,451,c),
(342,451,l),
(293,427,o),
(282,366,o),
(282,336,c),
(282,0,l)
);
}
);
width = 590;
},
{
anchors = (
{
name = bottom;
pos = (235,0);
},
{
name = bottomleft;
pos = (80,0);
},
{
name = center;
pos = (112,296);
},
{
name = top;
pos = (171,528);
},
{
name = topleft;
pos = (22,528);
}
);
layerId = master03;
shapes = (
{
closed = 1;
nodes = (
(312,557,l),
(317,584,l),
(24,584,l),
(24,557,l)
);
},
{
closed = 1;
nodes = (
(252,0,l),
(252,509,l),
(252,528,o),
(254,548,o),
(257,557,c),
(233,557,l),
(224,550,o),
(220,528,o),
(220,509,c),
(220,0,l)
);
}
);
width = 341;
},
{
anchors = (
{
name = bottom;
pos = (264,0);
},
{
name = bottomleft;
pos = (32,0);
},
{
name = center;
pos = (76,306);
},
{
name = top;
pos = (236,553);
},
{
name = topleft;
pos = (22,553);
}
);
layerId = master04;
shapes = (
{
closed = 1;
nodes = (
(423,451,l),
(443,609,l),
(18,609,l),
(18,451,l)
);
},
{
closed = 1;
nodes = (
(362,0,l),
(362,384,l),
(362,416,o),
(362,439,o),
(383,451,c),
(230,451,l),
(181,427,o),
(170,366,o),
(170,336,c),
(170,0,l)
);
}
);
width = 461;
}
);
unicode = 1491;
},
{
glyphname = "dargaleft-hb";
layers = (
{
anchors = (
{
name = _bottomleft;
pos = (165,0);
}
);
layerId = master01;
shapes = (
{
closed = 1;
nodes = (
(173,-200,l),
(96,-102,l),
(165,-89,l),
(165,-66,l),
(58,-87,l),
(137,-187,l),
(61,-200,l),
(61,-219,l)
);
}
);
userData = {
com.schriftgestaltung.Glyphs.originalWidth = 231;
};
width = 0;
},
{
anchors = (
{
name = _bottomleft;
pos = (195,0);
}
);
layerId = master02;
shapes = (
{
closed = 1;
nodes = (
(209,-226,l),
(122,-113,l),
(195,-99,l),
(195,-61,l),
(50,-87,l),
(137,-201,l),
(65,-212,l),
(65,-252,l)
);
}
);
userData = {
com.schriftgestaltung.Glyphs.originalWidth = 259;
};
width = 0;
},
{
anchors = (
{
name = _bottomleft;
pos = (157,0);
}
);
layerId = master03;
shapes = (
{
closed = 1;
nodes = (
(165,-200,l),
(88,-102,l),
(157,-89,l),
(157,-66,l),
(50,-87,l),
(129,-187,l),
(53,-200,l),
(53,-219,l)
);
}
);
userData = {
com.schriftgestaltung.Glyphs.originalWidth = 215;
};
width = 0;
},
{
anchors = (
{
name = _bottomleft;
pos = (187,0);
}
);
layerId = master04;
shapes = (
{
closed = 1;
nodes = (
(199,-206,l),
(123,-107,l),
(187,-94,l),
(187,-61,l),
(60,-84,l),
(136,-184,l),
(73,-193,l),
(73,-229,l)
);
}
);
userData = {
com.schriftgestaltung.Glyphs.originalWidth = 259;
};
width = 0;
}
);
note = "
uni05A7
";
unicode = 1447;
},
{
glyphname = "dehi-hb";
layers = (
{
anchors = (
{
name = _bottomleft;
pos = (65,0);
}
);
layerId = master01;
shapes = (
{
closed = 1;
nodes = (
(159,-159,l),
(99,-159,o),
(79,-131,o),
(79,-82,c),
(50,-82,l),
(50,-149,o),
(83,-188,o),
(159,-188,c)
);
}
);
userData = {
com.schriftgestaltung.Glyphs.originalWidth = 209;
};
width = 0;
},
{
anchors = (
{
name = _bottomleft;
pos = (78,0);
}
);
layerId = master02;
shapes = (
{
closed = 1;
nodes = (
(214,-170,l),
(146,-170,o),
(105,-133,o),
(105,-70,c),
(50,-70,l),
(50,-167,o),
(110,-224,o),
(214,-224,c)
);
}
);
userData = {
com.schriftgestaltung.Glyphs.originalWidth = 264;
};
width = 0;
},
{
anchors = (
{
name = _bottomleft;
pos = (65,0);
}
);
layerId = master03;
shapes = (
{
closed = 1;
nodes = (
(159,-159,l),
(99,-159,o),
(79,-131,o),
(79,-82,c),
(50,-82,l),
(50,-149,o),
(83,-188,o),
(159,-188,c)
);
}
);
userData = {
com.schriftgestaltung.Glyphs.originalWidth = 209;
};
width = 0;
},
{
anchors = (
{
name = _bottomleft;
pos = (85,0);
}
);
layerId = master04;
shapes = (
{
closed = 1;
nodes = (
(204,-158,l),
(144,-158,o),
(108,-125,o),
(108,-70,c),
(60,-70,l),
(60,-155,o),
(113,-205,o),
(204,-205,c)
);
}
);
userData = {
com.schriftgestaltung.Glyphs.originalWidth = 264;
};
width = 0;
}
);
note = "
uni05AD
";
unicode = 1453;
},
{
glyphname = "etnahtaleft-hb";
layers = (
{
anchors = (
{
name = _bottomleft;
pos = (114,0);
}
);
layerId = master01;
shapes = (
{
closed = 1;
nodes = (
(83,-202,l),
(83,-185,ls),
(83,-158,o),
(92,-147,o),
(115,-147,cs),
(137,-147,o),
(146,-158,o),
(146,-185,cs),
(146,-202,l),
(171,-202,l),
(171,-185,ls),
(171,-147,o),
(157,-129,o),
(127,-124,c),
(127,-82,l),
(101,-82,l),
(101,-124,l),
(72,-129,o),
(58,-147,o),
(58,-185,cs),
(58,-202,l)
);
}
);
userData = {
com.schriftgestaltung.Glyphs.originalWidth = 229;
};
width = 0;
},
{
anchors = (
{
name = _bottomleft;
pos = (146,0);
}
);
layerId = master02;
shapes = (
{
closed = 1;
nodes = (
(101,-238,l),
(101,-214,ls),
(101,-178,o),
(113,-163,o),
(147,-163,cs),
(179,-163,o),
(191,-178,o),
(191,-214,cs),
(191,-238,l),
(243,-238,l),
(243,-213,ls),
(243,-154,o),
(221,-125,o),
(172,-117,c),
(172,-70,l),
(120,-70,l),
(120,-117,l),
(73,-125,o),
(50,-154,o),
(50,-213,cs),
(50,-238,l)
);
}
);
userData = {
com.schriftgestaltung.Glyphs.originalWidth = 293;
};
width = 0;
},
{
anchors = (
{
name = _bottomleft;
pos = (106,0);
}
);
layerId = master03;
shapes = (
{
closed = 1;
nodes = (
(75,-202,l),
(75,-185,ls),
(75,-158,o),
(84,-147,o),
(107,-147,cs),
(129,-147,o),
(138,-158,o),
(138,-185,cs),
(138,-202,l),
(163,-202,l),
(163,-185,ls),
(163,-147,o),
(149,-129,o),
(119,-124,c),
(119,-82,l),
(93,-82,l),
(93,-124,l),
(64,-129,o),
(50,-147,o),
(50,-185,cs),
(50,-202,l)
);
}
);
userData = {
com.schriftgestaltung.Glyphs.originalWidth = 213;
};
width = 0;
},
{
anchors = (
{
name = _bottomleft;
pos = (146,0);
}
);
layerId = master04;
shapes = (
{
closed = 1;
nodes = (
(107,-217,l),
(107,-196,ls),
(107,-165,o),
(117,-152,o),
(147,-152,cs),
(175,-152,o),
(186,-165,o),
(186,-196,cs),
(186,-217,l),
(231,-217,l),
(231,-195,ls),
(231,-144,o),
(212,-118,o),
(169,-111,c),
(169,-70,l),
(123,-70,l),
(123,-111,l),
(82,-118,o),
(62,-144,o),
(62,-195,cs),
(62,-217,l)
);
}
);
userData = {
com.schriftgestaltung.Glyphs.originalWidth = 293;
};
width = 0;
}
);
note = "
uni0591
";
unicode = 1425;
},
{
glyphname = "finalkaf-hb";
layers = (
{
anchors = (
{
name = bottom;
pos = (212,199);
},
{
name = bottomleft;
pos = (10,0);
},
{
name = center;
pos = (212,296);
},
{
name = top;
pos = (167,528);
},
{
name = topleft;
pos = (10,528);
}
);
layerId = master01;
shapes = (
{
closed = 1;
nodes = (
(442,-195,l),
(442,382,ls),
(442,509,o),
(382,584,o),
(276,584,cs),
(52,584,l),
(47,557,l),
(276,557,ls),
(360,557,o),
(410,492,o),
(410,382,cs),
(410,-198,l)
);
}
);
width = 519;
},
{
anchors = (
{
name = bottom;
pos = (173,271);
},
{
name = bottomleft;
pos = (5,0);
},
{
name = center;
pos = (173,306);
},
{
name = top;
pos = (269,553);
},
{
name = topleft;
pos = (-5,553);
}
);
layerId = master02;
shapes = (
{
closed = 1;
nodes = (
(542,-170,l),
(542,367,ls),
(542,526,o),
(451,609,o),
(278,609,cs),
(55,609,l),
(35,451,l),
(270,451,ls),
(323,451,o),
(350,422,o),
(350,367,cs),
(350,-180,l)
);
}
);
width = 587;
},
{
anchors = (
{
name = bottom;
pos = (121,199);
},
{
name = bottomleft;
pos = (29,0);
},
{
name = center;
pos = (121,296);
},
{
name = top;
pos = (151,528);
},
{
name = topleft;
pos = (29,528);
}
);
layerId = master03;
shapes = (
{
closed = 1;
nodes = (
(303,-195,l),
(303,382,ls),
(303,509,o),
(261,584,o),
(155,584,cs),
(31,584,l),
(26,557,l),
(155,557,ls),
(239,557,o),
(269,492,o),
(269,382,cs),
(269,-198,l)
);
}
);
width = 363;
},
{
anchors = (
{
name = bottom;
pos = (118,241);
},
{
name = bottomleft;
pos = (24,0);
},
{
name = center;
pos = (121,306);
},
{
name = top;
pos = (206,553);
},
{
name = topleft;
pos = (14,553);
}
);
layerId = master04;
shapes = (
{
closed = 1;
nodes = (
(415,-170,l),
(415,367,ls),
(415,526,o),
(344,609,o),
(171,609,cs),
(38,609,l),
(18,451,l),
(163,451,ls),
(216,451,o),
(223,422,o),
(223,367,cs),
(223,-180,l)
);
}
);
width = 453;
}
);
unicode = 1498;
},
{
glyphname = "finalmem-hb";
layers = (
{
anchors = (
{
name = bottom;
pos = (344,0);
},
{
name = bottomleft;
pos = (110,0);
},
{
name = center;
pos = (344,292);
},
{
name = top;
pos = (344,528);
},
{
name = topleft;
pos = (110,528);
}
);
layerId = master01;
shapes = (
{
closed = 1;
nodes = (
(62,584,l),
(57,557,l),
(140,557,l),
(131,550,o),
(127,528,o),
(127,509,cs),
(127,0,l),
(581,0,l),
(581,419,ls),
(581,527,o),
(524,584,o),
(418,584,cs)
);
},
{
closed = 1;
nodes = (
(159,27,l),
(159,509,ls),
(159,528,o),
(161,548,o),
(164,557,c),
(413,557,ls),
(506,557,o),
(549,511,o),
(549,416,cs),
(549,27,l)
);
}
);
width = 666;
},
{
anchors = (
{
name = bottom;
pos = (357,0);
},
{
name = bottomleft;
pos = (55,0);
},
{
name = center;
pos = (357,304);
},
{
name = top;
pos = (357,553);
},
{
name = topleft;
pos = (55,553);
}
);
layerId = master02;
shapes = (
{
closed = 1;
nodes = (
(55,609,l),
(35,451,l),
(145,451,l),
(96,427,o),
(85,366,o),
(85,336,cs),
(85,0,l),
(659,0,l),
(659,382,ls),
(659,533,o),
(574,609,o),
(407,609,cs)
);
},
{
closed = 1;
nodes = (
(277,158,l),
(277,384,ls),
(277,406,o),
(277,429,o),
(287,451,c),
(398,451,ls),
(441,451,o),
(467,427,o),
(467,379,cs),
(467,158,l)
);
}
);
width = 714;
},
{
anchors = (
{
name = bottom;
pos = (212,0);
},
{
name = bottomleft;
pos = (57,0);
},
{
name = center;
pos = (212,292);
},
{
name = top;
pos = (212,528);
},
{
name = topleft;
pos = (57,528);
}
);
layerId = master03;
shapes = (
{
closed = 1;
nodes = (
(34,584,l),
(29,557,l),
(82,557,l),
(73,550,o),
(69,528,o),
(69,509,cs),
(69,0,l),
(373,0,l),
(373,419,ls),
(373,527,o),
(316,584,o),
(210,584,cs)
);
},
{
closed = 1;
nodes = (
(101,27,l),
(101,509,ls),
(101,528,o),
(103,548,o),
(106,557,c),
(205,557,ls),
(298,557,o),
(341,511,o),
(341,416,cs),
(341,27,l)
);
}
);
width = 432;
},
{
anchors = (
{
name = bottom;
pos = (292,0);
},
{
name = bottomleft;
pos = (63,0);
},
{
name = center;
pos = (292,304);
},
{
name = top;
pos = (292,553);
},
{
name = topleft;
pos = (62,553);
}
);
layerId = master04;
shapes = (
{
closed = 1;
nodes = (
(38,609,l),
(18,451,l),
(108,451,l),
(59,427,o),
(48,366,o),
(48,336,cs),
(48,0,l),
(542,0,l),
(542,382,ls),
(542,533,o),
(477,609,o),
(310,609,cs)
);
},
{
closed = 1;
nodes = (
(240,158,l),
(240,384,ls),
(240,406,o),
(240,429,o),
(250,451,c),
(301,451,ls),
(344,451,o),
(350,427,o),
(350,379,cs),
(350,158,l)
);
}
);
width = 580;
}
);
unicode = 1501;
},
{
glyphname = "finalnun-hb";
layers = (
{
anchors = (
{
name = bottomleft;
pos = (68,0);
},
{
name = center;
pos = (120,296);
},
{
name = top;
pos = (141,528);
},
{
name = topleft;
pos = (68,528);
}
);
layerId = master01;
shapes = (
{
closed = 1;
nodes = (
(182,-195,l),
(182,584,l),
(150,584,l),
(150,-198,l)
);
},
{
closed = 1;
nodes = (
(170,557,l),
(170,584,l),
(55,584,l),
(50,557,l)
);
}
);
width = 303;
},
{
anchors = (
{
name = bottomleft;
pos = (35,0);
},
{
name = center;
pos = (55,306);
},
{
name = top;
pos = (201,553);
},
{
name = topleft;
pos = (25,553);
}
);
layerId = master02;
shapes = (
{
closed = 1;
nodes = (
(302,-170,l),
(302,609,l),
(110,609,l),
(110,-180,l)
);
},
{
closed = 1;
nodes = (
(237,451,l),
(237,609,l),
(55,609,l),
(35,451,l)
);
}
);
width = 372;
},
{
anchors = (
{
name = bottomleft;
pos = (44,0);
},
{
name = center;
pos = (63,296);
},
{
name = top;
pos = (112,528);
},
{
name = topleft;
pos = (44,528);
}
);
layerId = master03;
shapes = (
{
closed = 1;
nodes = (
(140,-195,l),
(140,584,l),
(108,584,l),
(108,-198,l)
);
},
{
closed = 1;
nodes = (
(128,557,l),
(128,584,l),
(43,584,l),
(38,557,l)
);
}
);
width = 209;
},
{
anchors = (
{
name = bottomleft;
pos = (32,0);
},
{
name = center;
pos = (41,306);
},
{
name = top;
pos = (150,553);
},
{
name = topleft;
pos = (22,553);
}
);
layerId = master04;
shapes = (
{
closed = 1;
nodes = (
(275,-170,l),
(275,609,l),
(83,609,l),
(83,-180,l)
);
},
{
closed = 1;
nodes = (
(210,451,l),
(210,609,l),
(38,609,l),
(18,451,l)
);
}
);
width = 313;
}
);
unicode = 1503;
},
{
glyphname = "finalpe-hb";
layers = (
{
anchors = (
{
name = bottom;
pos = (331,220);
},
{
name = bottomleft;
pos = (20,0);
},
{
name = center;
pos = (332,269);
},
{
name = top;
pos = (232,528);
},
{
name = topleft;
pos = (20,528);
}
);
layerId = master01;
shapes = (
{
closed = 1;
nodes = (
(504,-195,l),
(504,297,ls),
(504,482,o),
(415,594,o),
(263,594,cs),
(134,594,o),
(56,513,o),
(56,399,cs),
(56,303,o),
(101,234,o),
(198,222,cs),
(214,220,o),
(222,220,o),
(229,220,c),
(230,248,l),
(224,248,o),
(217,249,o),
(207,250,cs),
(125,258,o),
(90,320,o),
(90,399,cs),
(90,497,o),
(154,567,o),
(263,567,cs),
(394,567,o),
(472,466,o),
(472,297,cs),
(472,-198,l)
);
}
);
width = 587;
},
{
anchors = (
{
name = bottom;
pos = (348,225);
},
{
name = bottomleft;
pos = (21,0);
},
{
name = center;
pos = (354,282);
},
{
name = top;
pos = (309,553);
},
{
name = topleft;
pos = (6,553);
}
);
layerId = master02;
shapes = (
{
closed = 1;
nodes = (
(621,-170,l),
(621,311,ls),
(621,502,o),
(508,619,o),
(309,619,cs),
(124,619,o),
(35,529,o),
(35,404,cs),
(35,300,o),
(93,227,o),
(178,209,cs),
(220,200,o),
(249,197,o),
(270,201,c),
(286,337,l),
(276,337,o),
(262,341,o),
(250,347,cs),
(230,357,o),
(218,374,o),
(218,398,cs),
(218,435,o),
(241,461,o),
(309,461,cs),
(396,461,o),
(429,403,o),
(429,310,cs),
(429,-180,l)
);
}
);
width = 676;
},
{
anchors = (
{
name = bottom;
pos = (268,235);
},
{
name = bottomleft;
pos = (46,0);
},
{
name = center;
pos = (199,399);
},
{
name = top;
pos = (174,528);
},
{
name = topleft;
pos = (40,528);
}
);
layerId = master03;
shapes = (
{
closed = 1;
nodes = (
(371,-195,l),
(371,297,l),
(371,482,o),
(314,594,o),
(195,594,cs),
(99,594,o),
(39,513,o),
(39,399,cs),
(39,303,o),
(84,235,o),
(151,222,cs),
(167,219,o),
(175,220,o),
(182,220,c),
(183,248,l),
(177,248,o),
(170,248,o),
(160,250,cs),
(108,260,o),
(71,320,o),
(71,399,cs),
(71,497,o),
(119,567,o),
(195,567,cs),
(293,567,o),
(339,466,o),
(339,297,c),
(339,-198,l)
);
}
);
width = 437;
},
{
anchors = (
{
name = bottom;
pos = (285,225);
},
{
name = bottomleft;
pos = (70,0);
},
{
name = center;
pos = (265,400);
},
{
name = top;
pos = (292,553);
},
{
name = topleft;
pos = (55,553);
}
);
layerId = master04;
shapes = (
{
closed = 1;
nodes = (
(524,-170,l),
(524,368,ls),
(524,533,o),
(431,619,o),
(252,619,cs),
(98,619,o),
(18,545,o),
(18,404,cs),
(18,296,o),
(67,229,o),
(161,209,cs),
(204,200,o),
(235,197,o),
(253,201,c),
(269,337,l),
(257,337,o),
(244,340,o),
(233,347,cs),
(212,358,o),
(201,376,o),
(201,398,cs),
(201,439,o),
(218,461,o),
(252,461,cs),
(305,461,o),
(332,429,o),
(332,367,cs),
(332,-180,l)
);
}
);
width = 551;
}
);
unicode = 1507;
},
{
glyphname = "finaltsadi-hb";
layers = (
{
anchors = (
{
name = bottomleft;
pos = (-7,0);
},
{
name = center;
pos = (210,424);
},
{
name = top;
pos = (203,528);
},
{
name = topleft;
pos = (-7,528);
}
);
layerId = master01;
shapes = (
{
closed = 1;
nodes = (
(348,-195,l),
(310,-40,l),
(274,108,o),
(226,244,o),
(174,368,cs),
(139,451,o),
(96,547,o),
(74,584,c),
(37,584,l),
(64,538,o),
(104,452,o),
(140,364,cs),
(190,242,o),
(237,109,o),
(273,-40,c),
(311,-200,l)
);
},
{
closed = 1;
nodes = (
(356,270,o),
(393,429,o),
(401,496,cs),
(411,584,l),
(379,584,l),
(369,504,ls),
(361,440,o),
(333,289,o),
(216,242,c),
(225,217,l)
);
}
);
width = 471;
},
{
anchors = (
{
name = bottomleft;
pos = (43,0);
},
{
name = center;
pos = (333,504);
},
{
name = top;
pos = (319,553);
},
{
name = topleft;
pos = (21,553);
}
);
layerId = master02;
shapes = (
{
closed = 1;
nodes = (
(471,-170,l),
(414,32,l),
(383,153,o),
(341,273,o),
(299,394,cs),
(274,466,o),
(243,565,o),
(223,609,c),
(14,609,l),
(53,519,o),
(82,448,o),
(111,368,cs),
(152,256,o),
(192,144,o),
(222,32,c),
(279,-180,l)
);
},
{
closed = 1;
nodes = (
(512,205,o),
(573,341,o),
(591,513,cs),
(601,609,l),
(412,609,l),
(402,526,ls),
(387,402,o),
(385,328,o),
(290,300,c),
(330,177,l)
);
}
);
width = 626;
},
{
anchors = (
{
name = bottomleft;
pos = (24,0);
},
{
name = center;
pos = (167,450);
},
{
name = top;
pos = (166,528);
},
{
name = topleft;
pos = (24,528);
}
);
layerId = master03;
shapes = (
{
closed = 1;
nodes = (
(244,-196,l),
(222,-41,l),
(202,107,o),
(173,244,o),
(130,367,cs),
(101,450,o),
(66,546,o),
(43,584,c),
(9,584,l),
(35,537,o),
(70,451,o),
(100,363,cs),
(141,243,o),
(170,108,o),
(190,-41,c),
(212,-201,l)
);
},
{
closed = 1;
nodes = (
(257,270,o),
(279,429,o),
(284,496,cs),
(291,584,l),
(259,584,l),
(251,504,ls),
(245,440,o),
(233,289,o),
(138,242,c),
(147,217,l)
);
}
);
width = 335;
},
{
anchors = (
{
name = bottomleft;
pos = (51,0);
},
{
name = center;
pos = (272,535);
},
{
name = top;
pos = (260,553);
},
{
name = topleft;
pos = (29,553);
}
);
layerId = master04;
shapes = (
{
closed = 1;
nodes = (
(382,-170,l),
(348,32,l),
(330,153,o),
(301,273,o),
(271,394,cs),
(253,466,o),
(235,547,o),
(216,609,c),
(8,609,l),
(38,519,o),
(60,448,o),
(81,368,cs),
(110,256,o),
(138,144,o),
(156,32,c),
(189,-180,l)
);
},
{
closed = 1;
nodes = (
(456,205,o),
(502,341,o),
(502,513,cs),
(502,609,l),
(313,609,l),
(312,526,ls),
(311,402,o),
(316,328,o),
(224,300,c),
(277,177,l)
);
}
);
width = 530;
}
);
unicode = 1509;
},
{
glyphname = "finalwidemem-hb";
layers = (
{
layerId = master01;
shapes = (
{
closed = 1;
nodes = (
(37,584,l),
(32,557,l),
(115,557,l),
(106,550,o),
(102,528,o),
(102,509,cs),
(102,0,l),
(706,0,l),
(706,419,ls),
(706,527,o),
(649,584,o),
(543,584,cs)
);
},
{
closed = 1;
nodes = (
(134,27,l),
(134,509,ls),
(134,528,o),
(136,548,o),
(139,557,c),
(538,557,ls),
(631,557,o),
(674,511,o),
(674,416,cs),
(674,27,l)
);
}
);
width = 758;
},
{
layerId = master02;
shapes = (
{
closed = 1;
nodes = (
(55,609,l),
(35,451,l),
(145,451,l),
(96,427,o),
(85,366,o),
(85,336,cs),
(85,0,l),
(819,0,l),
(819,382,ls),
(819,533,o),
(734,609,o),
(567,609,cs)
);
},
{
closed = 1;
nodes = (
(277,158,l),
(277,384,ls),
(277,406,o),
(277,429,o),
(287,451,c),
(558,451,ls),
(601,451,o),
(627,427,o),
(627,379,cs),
(627,158,l)
);
}
);
width = 854;
},
{
layerId = master03;
shapes = (
{
closed = 1;
nodes = (
(47,584,l),
(42,557,l),
(125,557,l),
(116,550,o),
(112,528,o),
(112,509,cs),
(112,0,l),
(566,0,l),
(566,419,ls),
(566,527,o),
(509,584,o),
(403,584,cs)
);
},
{
closed = 1;
nodes = (
(144,27,l),
(144,509,ls),
(144,528,o),
(146,548,o),
(149,557,c),
(398,557,ls),
(491,557,o),
(534,511,o),
(534,416,cs),
(534,27,l)
);
}
);
width = 623;
},
{
layerId = master04;
shapes = (
{
closed = 1;
nodes = (
(45,609,l),
(25,451,l),
(135,451,l),
(86,427,o),
(75,366,o),
(75,336,cs),
(75,0,l),
(649,0,l),
(649,382,ls),
(649,533,o),
(564,609,o),
(397,609,cs)
);
},
{
closed = 1;
nodes = (
(267,158,l),
(267,384,ls),
(267,406,o),
(267,429,o),
(277,451,c),
(388,451,ls),
(431,451,o),
(457,427,o),
(457,379,cs),
(457,158,l)
);
}
);
width = 704;
}
);
note = "
finalmemwide
";
unicode = 64294;
},
{
glyphname = "geresh-hb";
layers = (
{
layerId = master01;
shapes = (
{
closed = 1;
nodes = (
(46,339,l),
(78,408,o),
(102,493,o),
(114,575,c),
(114,584,l),
(86,584,l),
(79,512,o),
(54,409,o),
(23,339,c)
);
}
);
width = 149;
},
{
layerId = master02;
shapes = (
{
closed = 1;
nodes = (
(146,324,l),
(179,398,o),
(214,526,o),
(232,598,c),
(225,609,l),
(58,609,l),
(49,529,o),
(29,415,o),
(10,324,c)
);
}
);
width = 247;
},
{
layerId = master03;
shapes = (
{
closed = 1;
nodes = (
(43,365,l),
(68,437,o),
(85,506,o),
(99,573,c),
(98,584,l),
(69,584,l),
(62,512,o),
(47,448,o),
(25,365,c)
);
}
);
width = 135;
},
{
layerId = master04;
shapes = (
{
closed = 1;
nodes = (
(159,324,l),
(188,397,o),
(209,488,o),
(224,598,c),
(219,609,l),
(61,609,l),
(58,542,o),
(37,394,o),
(25,324,c)
);
}
);
width = 259;
}
);
unicode = 1523;
},
{
glyphname = "gereshaccent-hb";
layers = (
{
anchors = (
{
name = _topleft;
pos = (65,528);
}
);
layerId = master01;
shapes = (
{
closed = 1;
nodes = (
(79,650,l),
(79,699,o),
(99,727,o),
(159,727,c),
(159,756,l),
(83,756,o),
(50,717,o),
(50,650,c)
);
}
);
userData = {
com.schriftgestaltung.Glyphs.originalWidth = 209;
};
width = 0;
},
{
anchors = (
{
name = _topleft;
pos = (78,553);
}
);
layerId = master02;
shapes = (
{
closed = 1;
nodes = (
(105,636,l),
(105,700,o),
(146,736,o),
(214,736,c),
(214,791,l),
(111,791,o),
(50,734,o),
(50,636,c)
);
}
);
userData = {
com.schriftgestaltung.Glyphs.originalWidth = 264;
};
width = 0;
},
{
anchors = (
{
name = _topleft;
pos = (65,528);
}
);
layerId = master03;
shapes = (
{
closed = 1;
nodes = (
(79,650,l),
(79,699,o),
(99,727,o),
(159,727,c),
(159,756,l),
(83,756,o),
(50,717,o),
(50,650,c)
);
}
);
userData = {
com.schriftgestaltung.Glyphs.originalWidth = 209;
};
width = 0;
},
{
anchors = (
{
name = _topleft;
pos = (85,553);
}
);
layerId = master04;
shapes = (
{
closed = 1;
nodes = (
(108,636,l),
(108,692,o),
(144,724,o),
(204,724,c),
(204,772,l),
(114,772,o),
(60,722,o),
(60,636,c)
);
}
);
userData = {
com.schriftgestaltung.Glyphs.originalWidth = 264;
};
width = 0;
}
);
note = "
uni059C
";
unicode = 1436;
},
{
glyphname = "gereshmuqdam-hb";
layers = (
{
anchors = (
{
name = _top;
pos = (119,528);
}
);
layerId = master01;
shapes = (
{
closed = 1;
nodes = (
(79,650,l),
(79,699,o),
(99,727,o),
(159,727,c),
(159,756,l),
(83,756,o),
(50,717,o),
(50,650,c)
);
}
);
userData = {
com.schriftgestaltung.Glyphs.originalWidth = 209;
};
width = 0;
},
{
anchors = (
{
name = _top;
pos = (160,553);
}
);
layerId = master02;
shapes = (
{
closed = 1;
nodes = (
(105,636,l),
(105,700,o),
(146,736,o),
(214,736,c),
(214,791,l),
(111,791,o),
(50,734,o),
(50,636,c)
);
}
);
userData = {
com.schriftgestaltung.Glyphs.originalWidth = 264;
};
width = 0;
},
{
anchors = (
{
name = _top;
pos = (119,528);
}
);
layerId = master03;
shapes = (
{
closed = 1;
nodes = (
(79,650,l),
(79,699,o),
(99,727,o),
(159,727,c),
(159,756,l),
(83,756,o),
(50,717,o),
(50,650,c)
);
}
);
userData = {
com.schriftgestaltung.Glyphs.originalWidth = 209;
};
width = 0;
},
{
anchors = (
{
name = _top;
pos = (157,553);
}
);
layerId = master04;
shapes = (
{
closed = 1;
nodes = (
(108,636,l),
(108,692,o),
(144,724,o),
(204,724,c),
(204,772,l),
(114,772,o),
(60,722,o),
(60,636,c)
);
}
);
userData = {
com.schriftgestaltung.Glyphs.originalWidth = 264;
};
width = 0;
}
);
note = "
uni059D
";
unicode = 1437;
},
{
glyphname = "gershayim-hb";
layers = (
{
layerId = master01;
shapes = (
{
closed = 1;
nodes = (
(46,339,l),
(78,408,o),
(102,493,o),
(114,575,c),
(114,584,l),
(86,584,l),
(79,512,o),
(54,409,o),
(23,339,c)
);
},
{
closed = 1;
nodes = (
(186,339,l),
(218,408,o),
(242,493,o),
(254,575,c),
(254,584,l),
(226,584,l),
(219,512,o),
(194,409,o),
(163,339,c)
);
}
);
width = 287;
},
{
layerId = master02;
shapes = (
{
closed = 1;
nodes = (
(146,324,l),
(179,398,o),
(214,526,o),
(232,598,c),
(225,609,l),
(58,609,l),
(49,529,o),
(29,415,o),
(10,324,c)
);
},
{
closed = 1;
nodes = (
(395,324,l),
(428,398,o),
(463,526,o),
(481,598,c),
(474,609,l),
(307,609,l),
(298,529,o),
(278,415,o),
(259,324,c)
);
}
);
width = 496;
},
{
layerId = master03;
shapes = (
{
closed = 1;
nodes = (
(43,365,l),
(68,437,o),
(85,506,o),
(99,573,c),
(98,584,l),
(69,584,l),
(62,512,o),
(47,448,o),
(25,365,c)
);
},
{
closed = 1;
nodes = (
(151,365,l),
(176,437,o),
(193,506,o),
(207,573,c),
(206,584,l),
(177,584,l),
(170,512,o),
(155,448,o),
(133,365,c)
);
}
);
width = 243;
},
{
layerId = master04;
shapes = (
{
closed = 1;
nodes = (
(159,324,l),
(188,397,o),
(209,488,o),
(224,598,c),
(219,609,l),
(61,609,l),
(58,542,o),
(37,394,o),
(25,324,c)
);
},
{
closed = 1;
nodes = (
(388,324,l),
(417,397,o),
(439,488,o),
(454,598,c),
(448,609,l),
(291,609,l),
(284,519,o),
(271,421,o),
(254,324,c)
);
}
);
width = 479;
}
);
unicode = 1524;
},
{
glyphname = "gershayimaccent-hb";
layers = (
{
anchors = (
{
name = _top;
pos = (119,528);
}
);
layerId = master01;
shapes = (
{
closed = 1;
nodes = (
(188,650,l),
(188,699,o),
(208,727,o),
(268,727,c),
(268,756,l),
(192,756,o),
(159,717,o),
(159,650,c)
);
},
{
closed = 1;
nodes = (
(79,650,l),
(79,699,o),
(99,727,o),
(159,727,c),
(159,756,l),
(83,756,o),
(50,717,o),
(50,650,c)
);
}
);
userData = {
com.schriftgestaltung.Glyphs.originalWidth = 318;
};
width = 0;
},
{
anchors = (
{
name = _top;
pos = (166,553);
}
);
layerId = master02;
shapes = (
{
closed = 1;
nodes = (
(272,636,l),
(272,700,o),
(314,736,o),
(382,736,c),
(382,791,l),
(279,791,o),
(216,734,o),
(216,636,c)
);
},
{
closed = 1;
nodes = (
(106,636,l),
(106,700,o),
(148,736,o),
(216,736,c),
(216,791,l),
(110,791,o),
(50,733,o),
(50,636,c)
);
}
);
userData = {
com.schriftgestaltung.Glyphs.originalWidth = 432;
};
width = 0;
},
{
anchors = (
{
name = _top;
pos = (119,528);
}
);
layerId = master03;
shapes = (
{
closed = 1;
nodes = (
(188,650,l),
(188,699,o),
(208,727,o),
(268,727,c),
(268,756,l),
(192,756,o),
(159,717,o),
(159,650,c)
);
},
{
closed = 1;
nodes = (
(79,650,l),
(79,699,o),
(99,727,o),
(159,727,c),
(159,756,l),
(83,756,o),
(50,717,o),
(50,650,c)
);
}
);
userData = {
com.schriftgestaltung.Glyphs.originalWidth = 318;
};
width = 0;
},
{
anchors = (
{
name = _top;
pos = (172,553);
}
);
layerId = master04;
shapes = (
{
closed = 1;
nodes = (
(265,636,l),
(265,692,o),
(302,724,o),
(362,724,c),
(362,772,l),
(271,772,o),
(216,722,o),
(216,636,c)
);
},
{
closed = 1;
nodes = (
(120,636,l),
(120,692,o),
(156,724,o),
(216,724,c),
(216,772,l),
(123,772,o),
(70,721,o),
(70,636,c)
);
}
);
userData = {
com.schriftgestaltung.Glyphs.originalWidth = 432;
};
width = 0;
}
);
note = "
uni059E
";
unicode = 1438;
},
{
glyphname = "gimel-hb";
layers = (
{
anchors = (
{
name = bottom;
pos = (206,0);
},
{
name = bottomleft;
pos = (21,0);
},
{
name = center;
pos = (112,316);
},
{
name = top;
pos = (155,528);
},
{
name = topleft;
pos = (66,528);
}
);
layerId = master01;
shapes = (
{
closed = 1;
nodes = (
(313,7,l),
(262,146,l),
(262,479,ls),
(262,548,o),
(224,584,o),
(160,584,cs),
(93,584,l),
(88,557,l),
(155,557,ls),
(205,557,o),
(230,529,o),
(230,476,cs),
(230,184,l),
(207,120,o),
(112,27,o),
(28,27,cs),
(25,27,l),
(25,0,l),
(31,0,ls),
(113,0,o),
(183,59,o),
(233,131,c),
(236,131,l),
(284,-5,l)
);
}
);
width = 336;
},
{
anchors = (
{
name = bottom;
pos = (201,0);
},
{
name = bottomleft;
pos = (2,0);
},
{
name = center;
pos = (101,306);
},
{
name = top;
pos = (213,553);
},
{
name = topleft;
pos = (40,553);
}
);
layerId = master02;
shapes = (
{
closed = 1;
nodes = (
(414,23,l),
(386,186,l),
(386,409,ls),
(386,539,o),
(320,609,o),
(169,609,cs),
(80,609,l),
(60,450,l),
(116,450,ls),
(175,450,o),
(194,439,o),
(194,390,cs),
(194,223,l),
(172,197,o),
(125,164,o),
(50,162,c),
(20,162,l),
(20,0,l),
(50,0,ls),
(137,0,o),
(166,23,o),
(209,122,c),
(222,122,l),
(244,-5,l)
);
}
);
width = 437;
},
{
anchors = (
{
name = bottom;
pos = (150,0);
},
{
name = bottomleft;
pos = (31,0);
},
{
name = center;
pos = (72,296);
},
{
name = top;
pos = (132,528);
},
{
name = topleft;
pos = (70,528);
}
);
layerId = master03;
shapes = (
{
closed = 1;
nodes = (
(237,7,l),
(196,144,l),
(196,479,ls),
(196,548,o),
(168,584,o),
(104,584,cs),
(75,584,l),
(70,557,l),
(99,557,ls),
(149,557,o),
(164,529,o),
(164,476,cs),
(164,168,l),
(147,130,o),
(97,27,o),
(30,27,cs),
(19,27,l),
(19,0,l),
(30,0,ls),
(115,0,o),
(157,101,o),
(168,119,c),
(171,119,l),
(208,-5,l)
);
}
);
width = 261;
},
{
anchors = (
{
name = bottom;
pos = (174,3);
},
{
name = bottomleft;
pos = (36,0);
},
{
name = center;
pos = (79,306);
},
{
name = top;
pos = (203,553);
},
{
name = topleft;
pos = (74,553);
}
);
layerId = master04;
shapes = (
{
closed = 1;
nodes = (
(380,23,l),
(353,186,l),
(353,409,ls),
(353,539,o),
(307,609,o),
(156,609,cs),
(75,609,l),
(55,450,l),
(103,450,ls),
(152,450,o),
(161,439,o),
(161,390,cs),
(161,213,l),
(139,187,o),
(90,164,o),
(25,162,c),
(15,162,l),
(15,0,l),
(25,0,ls),
(102,0,o),
(145,13,o),
(178,85,c),
(191,85,l),
(210,-5,l)
);
}
);
width = 403;
}
);
unicode = 1490;
},
{
glyphname = "hatafpatah-hb";
layers = (
{
anchors = (
{
name = _bottom;
pos = (163,0);
}
);
layerId = master01;
shapes = (
{
closed = 1;
nodes = (
(196,-107,l),
(196,-82,l),
(50,-82,l),
(50,-107,l)
);
},
{
closed = 1;
nodes = (
(266,-116,o),
(276,-106,o),
(276,-93,cs),
(276,-81,o),
(266,-71,o),
(254,-71,cs),
(241,-71,o),
(231,-81,o),
(231,-93,cs),
(231,-106,o),
(241,-116,o),
(254,-116,cs)
);
},
{
closed = 1;
nodes = (
(266,-206,o),
(276,-196,o),
(276,-183,cs),
(276,-171,o),
(266,-161,o),
(254,-161,cs),
(241,-161,o),
(231,-171,o),
(231,-183,cs),
(231,-196,o),
(241,-206,o),
(254,-206,cs)
);
}
);
userData = {
com.schriftgestaltung.Glyphs.originalWidth = 325;
};
width = 0;
},
{
anchors = (
{
name = _bottom;
pos = (232,0);
}
);
layerId = master02;
shapes = (
{
closed = 1;
nodes = (
(277,-136,l),
(277,-74,l),
(55,-74,l),
(55,-136,l)
);
},
{
closed = 1;
nodes = (
(382,-142,o),
(399,-125,o),
(399,-105,cs),
(399,-85,o),
(382,-68,o),
(362,-68,cs),
(342,-68,o),
(325,-85,o),
(325,-105,cs),
(325,-125,o),
(342,-142,o),
(362,-142,cs)
);
},
{
closed = 1;
nodes = (
(382,-247,o),
(399,-230,o),
(399,-210,cs),
(399,-190,o),
(382,-173,o),
(362,-173,cs),
(342,-173,o),
(325,-190,o),
(325,-210,cs),
(325,-230,o),
(342,-247,o),
(362,-247,cs)
);
}
);
userData = {
com.schriftgestaltung.Glyphs.originalWidth = 463;
};
width = 0;
},
{
anchors = (
{
name = _bottom;
pos = (143,0);
}
);
layerId = master03;
shapes = (
{
closed = 1;
nodes = (
(186,-107,l),
(186,-82,l),
(60,-82,l),
(60,-107,l)
);
},
{
closed = 1;
nodes = (
(256,-116,o),
(266,-106,o),
(266,-93,cs),
(266,-81,o),
(256,-71,o),
(244,-71,cs),
(231,-71,o),
(221,-81,o),
(221,-93,cs),
(221,-106,o),
(231,-116,o),
(244,-116,cs)
);
},
{
closed = 1;
nodes = (
(256,-206,o),
(266,-196,o),
(266,-183,cs),
(266,-171,o),
(256,-161,o),
(244,-161,cs),
(231,-161,o),
(221,-171,o),
(221,-183,cs),
(221,-196,o),
(231,-206,o),
(244,-206,cs)
);
}
);
userData = {
com.schriftgestaltung.Glyphs.originalWidth = 285;
};
width = 0;
},
{
anchors = (
{
name = _bottom;
pos = (232,0);
}
);
layerId = master04;
shapes = (
{
closed = 1;
nodes = (
(267,-136,l),
(267,-74,l),
(65,-74,l),
(65,-136,l)
);
},
{
closed = 1;
nodes = (
(372,-142,o),
(389,-125,o),
(389,-105,cs),
(389,-85,o),
(372,-68,o),
(352,-68,cs),
(332,-68,o),
(315,-85,o),
(315,-105,cs),
(315,-125,o),
(332,-142,o),
(352,-142,cs)
);
},
{
closed = 1;
nodes = (
(372,-247,o),
(389,-230,o),
(389,-210,cs),
(389,-190,o),
(372,-173,o),
(352,-173,cs),
(332,-173,o),
(315,-190,o),
(315,-210,cs),
(315,-230,o),
(332,-247,o),
(352,-247,cs)
);
}
);
userData = {
com.schriftgestaltung.Glyphs.originalWidth = 463;
};
width = 0;
}
);
note = "
hatafpatah
";
unicode = 1458;
},
{
glyphname = "hatafpatah_zerowidthjoiner_siluqleft-hb";
layers = (
{
anchors = (
{
name = _bottom;
pos = (193,0);
}
);
layerId = master01;
shapes = (
{
closed = 1;
nodes = (
(196,-107,l),
(196,-82,l),
(50,-82,l),
(50,-107,l)
);
},
{
closed = 1;
nodes = (
(256,-211,l),
(256,-66,l),
(231,-66,l),
(231,-211,l)
);
},
{
closed = 1;
nodes = (
(326,-116,o),
(336,-106,o),
(336,-93,cs),
(336,-81,o),
(326,-71,o),
(314,-71,cs),
(301,-71,o),
(291,-81,o),
(291,-93,cs),
(291,-106,o),
(301,-116,o),
(314,-116,cs)
);
},
{
closed = 1;
nodes = (
(326,-206,o),
(336,-196,o),
(336,-183,cs),
(336,-171,o),
(326,-161,o),
(314,-161,cs),
(301,-161,o),
(291,-171,o),
(291,-183,cs),
(291,-196,o),
(301,-206,o),
(314,-206,cs)
);
}
);
userData = {
com.schriftgestaltung.Glyphs.originalWidth = 385;
};
width = 0;
},
{
anchors = (
{
name = _bottom;
pos = (283,0);
}
);
layerId = master02;
shapes = (
{
closed = 1;
nodes = (
(277,-136,l),
(277,-74,l),
(55,-74,l),
(55,-136,l)
);
},
{
closed = 1;
nodes = (
(378,-247,l),
(378,-74,l),
(317,-74,l),
(317,-247,l)
);
},
{
closed = 1;
nodes = (
(484,-142,o),
(501,-125,o),
(501,-105,cs),
(501,-85,o),
(484,-68,o),
(464,-68,cs),
(444,-68,o),
(427,-85,o),
(427,-105,cs),
(427,-125,o),
(444,-142,o),
(464,-142,cs)
);
},
{
closed = 1;
nodes = (
(484,-247,o),
(501,-230,o),
(501,-210,cs),
(501,-190,o),
(484,-173,o),
(464,-173,cs),
(444,-173,o),
(427,-190,o),
(427,-210,cs),
(427,-230,o),
(444,-247,o),
(464,-247,cs)
);
}
);
userData = {
com.schriftgestaltung.Glyphs.originalWidth = 565;
};
width = 0;
},
{
anchors = (
{
name = _bottom;
pos = (168,0);
}
);
layerId = master03;
shapes = (
{
closed = 1;
nodes = (
(186,-107,l),
(186,-82,l),
(60,-82,l),
(60,-107,l)
);
},
{
closed = 1;
nodes = (
(246,-211,l),
(246,-66,l),
(221,-66,l),
(221,-211,l)
);
},
{
closed = 1;
nodes = (
(316,-116,o),
(326,-106,o),
(326,-93,cs),
(326,-81,o),
(316,-71,o),
(304,-71,cs),
(291,-71,o),
(281,-81,o),
(281,-93,cs),
(281,-106,o),
(291,-116,o),
(304,-116,cs)
);
},
{
closed = 1;
nodes = (
(316,-206,o),
(326,-196,o),
(326,-183,cs),
(326,-171,o),
(316,-161,o),
(304,-161,cs),
(291,-161,o),
(281,-171,o),
(281,-183,cs),
(281,-196,o),
(291,-206,o),
(304,-206,cs)
);
}
);
userData = {
com.schriftgestaltung.Glyphs.originalWidth = 335;
};
width = 0;
},
{
anchors = (
{
name = _bottom;
pos = (283,0);
}
);
layerId = master04;
shapes = (
{
closed = 1;
nodes = (
(267,-136,l),
(267,-74,l),
(65,-74,l),
(65,-136,l)
);
},
{
closed = 1;
nodes = (
(368,-247,l),
(368,-74,l),
(307,-74,l),
(307,-247,l)
);
},
{
closed = 1;
nodes = (
(474,-142,o),
(491,-125,o),
(491,-105,cs),
(491,-85,o),
(474,-68,o),
(454,-68,cs),
(434,-68,o),
(417,-85,o),
(417,-105,cs),
(417,-125,o),
(434,-142,o),
(454,-142,cs)
);
},
{
closed = 1;
nodes = (
(474,-247,o),
(491,-230,o),
(491,-210,cs),
(491,-190,o),
(474,-173,o),
(454,-173,cs),
(434,-173,o),
(417,-190,o),
(417,-210,cs),
(417,-230,o),
(434,-247,o),
(454,-247,cs)
);
}
);
userData = {
com.schriftgestaltung.Glyphs.originalWidth = 565;
};
width = 0;
}
);
},
{
glyphname = "hatafqamats-hb";
layers = (
{
anchors = (
{
name = _bottom;
pos = (163,0);
}
);
layerId = master01;
shapes = (
{
closed = 1;
nodes = (
(136,-196,l),
(136,-106,l),
(198,-106,l),
(198,-81,l),
(50,-81,l),
(50,-106,l),
(111,-106,l),
(111,-196,l)
);
},
{
closed = 1;
nodes = (
(267,-116,o),
(277,-106,o),
(277,-93,cs),
(277,-81,o),
(267,-71,o),
(255,-71,cs),
(242,-71,o),
(232,-81,o),
(232,-93,cs),
(232,-106,o),
(242,-116,o),
(255,-116,cs)
);
},
{
closed = 1;
nodes = (
(267,-206,o),
(277,-196,o),
(277,-183,cs),
(277,-171,o),
(267,-161,o),
(255,-161,cs),
(242,-161,o),
(232,-171,o),
(232,-183,cs),
(232,-196,o),
(242,-206,o),
(255,-206,cs)
);
}
);
userData = {
com.schriftgestaltung.Glyphs.originalWidth = 326;
};
width = 0;
},
{
anchors = (
{
name = _bottom;
pos = (232,0);
}
);
layerId = master02;
shapes = (
{
closed = 1;
nodes = (
(196,-240,l),
(196,-136,l),
(277,-136,l),
(277,-74,l),
(55,-74,l),
(55,-136,l),
(135,-136,l),
(135,-240,l)
);
},
{
closed = 1;
nodes = (
(382,-142,o),
(399,-125,o),
(399,-105,cs),
(399,-85,o),
(382,-68,o),
(362,-68,cs),
(342,-68,o),
(325,-85,o),
(325,-105,cs),
(325,-125,o),
(342,-142,o),
(362,-142,cs)
);
},
{
closed = 1;
nodes = (
(382,-247,o),
(399,-230,o),
(399,-210,cs),
(399,-190,o),
(382,-173,o),
(362,-173,cs),
(342,-173,o),
(325,-190,o),
(325,-210,cs),
(325,-230,o),
(342,-247,o),
(362,-247,cs)
);
}
);
userData = {
com.schriftgestaltung.Glyphs.originalWidth = 463;
};
width = 0;
},
{
anchors = (
{
name = _bottom;
pos = (138,0);
}
);
layerId = master03;
shapes = (
{
closed = 1;
nodes = (
(106,-196,l),
(106,-106,l),
(158,-106,l),
(158,-81,l),
(30,-81,l),
(30,-106,l),
(81,-106,l),
(81,-196,l)
);
},
{
closed = 1;
nodes = (
(227,-116,o),
(237,-106,o),
(237,-93,cs),
(237,-81,o),
(227,-71,o),
(215,-71,cs),
(202,-71,o),
(192,-81,o),
(192,-93,cs),
(192,-106,o),
(202,-116,o),
(215,-116,cs)
);
},
{
closed = 1;
nodes = (
(227,-206,o),
(237,-196,o),
(237,-183,cs),
(237,-171,o),
(227,-161,o),
(215,-161,cs),
(202,-161,o),
(192,-171,o),
(192,-183,cs),
(192,-196,o),
(202,-206,o),
(215,-206,cs)
);
}
);
userData = {
com.schriftgestaltung.Glyphs.originalWidth = 276;
};
width = 0;
},
{
anchors = (
{
name = _bottom;
pos = (232,0);
}
);
layerId = master04;
shapes = (
{
closed = 1;
nodes = (
(196,-240,l),
(196,-136,l),
(267,-136,l),
(267,-74,l),
(65,-74,l),
(65,-136,l),
(135,-136,l),
(135,-240,l)
);
},
{
closed = 1;
nodes = (
(372,-142,o),
(389,-125,o),
(389,-105,cs),
(389,-85,o),
(372,-68,o),
(352,-68,cs),
(332,-68,o),
(315,-85,o),
(315,-105,cs),
(315,-125,o),
(332,-142,o),
(352,-142,cs)
);
},
{
closed = 1;
nodes = (
(372,-247,o),
(389,-230,o),
(389,-210,cs),
(389,-190,o),
(372,-173,o),
(352,-173,cs),
(332,-173,o),
(315,-190,o),
(315,-210,cs),
(315,-230,o),
(332,-247,o),
(352,-247,cs)
);
}
);
userData = {
com.schriftgestaltung.Glyphs.originalWidth = 463;
};
width = 0;
}
);
note = "
hatafqamats
";
unicode = 1459;
},
{
glyphname = "hatafqamats_zerowidthjoiner_siluqleft-hb";
layers = (
{
anchors = (
{
name = _bottom;
pos = (197,0);
}
);
layerId = master01;
shapes = (
{
closed = 1;
nodes = (
(139,-196,l),
(139,-106,l),
(201,-106,l),
(201,-81,l),
(53,-81,l),
(53,-106,l),
(114,-106,l),
(114,-196,l)
);
},
{
closed = 1;
nodes = (
(261,-211,l),
(261,-66,l),
(236,-66,l),
(236,-211,l)
);
},
{
closed = 1;
nodes = (
(330,-116,o),
(340,-106,o),
(340,-93,cs),
(340,-81,o),
(330,-71,o),
(318,-71,cs),
(305,-71,o),
(295,-81,o),
(295,-93,cs),
(295,-106,o),
(305,-116,o),
(318,-116,cs)
);
},
{
closed = 1;
nodes = (
(330,-206,o),
(340,-196,o),
(340,-183,cs),
(340,-171,o),
(330,-161,o),
(318,-161,cs),
(305,-161,o),
(295,-171,o),
(295,-183,cs),
(295,-196,o),
(305,-206,o),
(318,-206,cs)
);
}
);
userData = {
com.schriftgestaltung.Glyphs.originalWidth = 393;
};
width = 0;
},
{
anchors = (
{
name = _bottom;
pos = (283,0);
}
);
layerId = master02;
shapes = (
{
closed = 1;
nodes = (
(196,-240,l),
(196,-136,l),
(277,-136,l),
(277,-74,l),
(55,-74,l),
(55,-136,l),
(135,-136,l),
(135,-240,l)
);
},
{
closed = 1;
nodes = (
(378,-247,l),
(378,-74,l),
(317,-74,l),
(317,-247,l)
);
},
{
closed = 1;
nodes = (
(484,-142,o),
(501,-125,o),
(501,-105,cs),
(501,-85,o),
(484,-68,o),
(464,-68,cs),
(444,-68,o),
(427,-85,o),
(427,-105,cs),
(427,-125,o),
(444,-142,o),
(464,-142,cs)
);
},
{
closed = 1;
nodes = (
(484,-247,o),
(501,-230,o),
(501,-210,cs),
(501,-190,o),
(484,-173,o),
(464,-173,cs),
(444,-173,o),
(427,-190,o),
(427,-210,cs),
(427,-230,o),
(444,-247,o),
(464,-247,cs)
);
}
);
userData = {
com.schriftgestaltung.Glyphs.originalWidth = 565;
};
width = 0;
},
{
anchors = (
{
name = _bottom;
pos = (164,0);
}
);
layerId = master03;
shapes = (
{
closed = 1;
nodes = (
(104,-196,l),
(104,-106,l),
(156,-106,l),
(156,-81,l),
(28,-81,l),
(28,-106,l),
(79,-106,l),
(79,-196,l)
);
},
{
closed = 1;
nodes = (
(216,-211,l),
(216,-66,l),
(191,-66,l),
(191,-211,l)
);
},
{
closed = 1;
nodes = (
(285,-116,o),
(295,-106,o),
(295,-93,cs),
(295,-81,o),
(285,-71,o),
(273,-71,cs),
(260,-71,o),
(250,-81,o),
(250,-93,cs),
(250,-106,o),
(260,-116,o),
(273,-116,cs)
);
},
{
closed = 1;
nodes = (
(285,-206,o),
(295,-196,o),
(295,-183,cs),
(295,-171,o),
(285,-161,o),
(273,-161,cs),
(260,-161,o),
(250,-171,o),
(250,-183,cs),
(250,-196,o),
(260,-206,o),
(273,-206,cs)
);
}
);
userData = {
com.schriftgestaltung.Glyphs.originalWidth = 327;
};
width = 0;
},
{
anchors = (
{
name = _bottom;
pos = (283,0);
}
);
layerId = master04;
shapes = (
{
closed = 1;
nodes = (
(196,-240,l),
(196,-136,l),
(267,-136,l),
(267,-74,l),
(65,-74,l),
(65,-136,l),
(135,-136,l),
(135,-240,l)
);
},
{
closed = 1;
nodes = (
(368,-247,l),
(368,-74,l),
(307,-74,l),
(307,-247,l)
);
},
{
closed = 1;
nodes = (
(474,-142,o),
(491,-125,o),
(491,-105,cs),
(491,-85,o),
(474,-68,o),
(454,-68,cs),
(434,-68,o),
(417,-85,o),
(417,-105,cs),
(417,-125,o),
(434,-142,o),
(454,-142,cs)
);
},
{
closed = 1;
nodes = (
(474,-247,o),
(491,-230,o),
(491,-210,cs),
(491,-190,o),
(474,-173,o),
(454,-173,cs),
(434,-173,o),
(417,-190,o),
(417,-210,cs),
(417,-230,o),
(434,-247,o),
(454,-247,cs)
);
}
);
userData = {
com.schriftgestaltung.Glyphs.originalWidth = 565;
};
width = 0;
}
);
},
{
glyphname = "hatafsegol-hb";
layers = (
{
anchors = (
{
name = _bottom;
pos = (160,0);
}
);
layerId = master01;
shapes = (
{
closed = 1;
nodes = (
(131,-206,o),
(141,-196,o),
(141,-183,cs),
(141,-171,o),
(131,-161,o),
(119,-161,cs),
(106,-161,o),
(96,-171,o),
(96,-183,cs),
(96,-196,o),
(106,-206,o),
(119,-206,cs)
);
},
{
closed = 1;
nodes = (
(84,-116,o),
(94,-106,o),
(94,-93,cs),
(94,-81,o),
(84,-71,o),
(72,-71,cs),
(59,-71,o),
(49,-81,o),
(49,-93,cs),
(49,-106,o),
(59,-116,o),
(72,-116,cs)
);
},
{
closed = 1;
nodes = (
(180,-116,o),
(190,-106,o),
(190,-93,cs),
(190,-81,o),
(180,-71,o),
(168,-71,cs),
(155,-71,o),
(145,-81,o),
(145,-93,cs),
(145,-106,o),
(155,-116,o),
(168,-116,cs)
);
},
{
closed = 1;
nodes = (
(261,-116,o),
(271,-106,o),
(271,-93,cs),
(271,-81,o),
(261,-71,o),
(249,-71,cs),
(236,-71,o),
(226,-81,o),
(226,-93,cs),
(226,-106,o),
(236,-116,o),
(249,-116,cs)
);
},
{
closed = 1;
nodes = (
(261,-206,o),
(271,-196,o),
(271,-183,cs),
(271,-171,o),
(261,-161,o),
(249,-161,cs),
(236,-161,o),
(226,-171,o),
(226,-183,cs),
(226,-196,o),
(236,-206,o),
(249,-206,cs)
);
}
);
userData = {
com.schriftgestaltung.Glyphs.originalWidth = 320;
};
width = 0;
},
{
anchors = (
{
name = _bottom;
pos = (231,0);
}
);
layerId = master02;
shapes = (
{
closed = 1;
nodes = (
(185,-247,o),
(202,-230,o),
(202,-210,cs),
(202,-190,o),
(185,-173,o),
(165,-173,cs),
(145,-173,o),
(128,-190,o),
(128,-210,cs),
(128,-230,o),
(145,-247,o),
(165,-247,cs)
);
},
{
closed = 1;
nodes = (
(121,-142,o),
(138,-125,o),
(138,-105,cs),
(138,-85,o),
(121,-68,o),
(101,-68,cs),
(81,-68,o),
(64,-85,o),
(64,-105,cs),
(64,-125,o),
(81,-142,o),
(101,-142,cs)
);
},
{
closed = 1;
nodes = (
(250,-142,o),
(267,-125,o),
(267,-105,cs),
(267,-85,o),
(250,-68,o),
(230,-68,cs),
(210,-68,o),
(193,-85,o),
(193,-105,cs),
(193,-125,o),
(210,-142,o),
(230,-142,cs)
);
},
{
closed = 1;
nodes = (
(381,-142,o),
(398,-125,o),
(398,-105,cs),
(398,-85,o),
(381,-68,o),
(361,-68,cs),
(341,-68,o),
(324,-85,o),
(324,-105,cs),
(324,-125,o),
(341,-142,o),
(361,-142,cs)
);
},
{
closed = 1;
nodes = (
(381,-247,o),
(398,-230,o),
(398,-210,cs),
(398,-190,o),
(381,-173,o),
(361,-173,cs),
(341,-173,o),
(324,-190,o),
(324,-210,cs),
(324,-230,o),
(341,-247,o),
(361,-247,cs)
);
}
);
userData = {
com.schriftgestaltung.Glyphs.originalWidth = 462;
};
width = 0;
},
{
anchors = (
{
name = _bottom;
pos = (145,0);
}
);
layerId = master03;
shapes = (
{
closed = 1;
nodes = (
(131,-206,o),
(141,-196,o),
(141,-183,cs),
(141,-171,o),
(131,-161,o),
(119,-161,cs),
(106,-161,o),
(96,-171,o),
(96,-183,cs),
(96,-196,o),
(106,-206,o),
(119,-206,cs)
);
},
{
closed = 1;
nodes = (
(84,-116,o),
(94,-106,o),
(94,-93,cs),
(94,-81,o),
(84,-71,o),
(72,-71,cs),
(59,-71,o),
(49,-81,o),
(49,-93,cs),
(49,-106,o),
(59,-116,o),
(72,-116,cs)
);
},
{
closed = 1;
nodes = (
(180,-116,o),
(190,-106,o),
(190,-93,cs),
(190,-81,o),
(180,-71,o),
(168,-71,cs),
(155,-71,o),
(145,-81,o),
(145,-93,cs),
(145,-106,o),
(155,-116,o),
(168,-116,cs)
);
},
{
closed = 1;
nodes = (
(261,-116,o),
(271,-106,o),
(271,-93,cs),
(271,-81,o),
(261,-71,o),
(249,-71,cs),
(236,-71,o),
(226,-81,o),
(226,-93,cs),
(226,-106,o),
(236,-116,o),
(249,-116,cs)
);
},
{
closed = 1;
nodes = (
(261,-206,o),
(271,-196,o),
(271,-183,cs),
(271,-171,o),
(261,-161,o),
(249,-161,cs),
(236,-161,o),
(226,-171,o),
(226,-183,cs),
(226,-196,o),
(236,-206,o),
(249,-206,cs)
);
}
);
userData = {
com.schriftgestaltung.Glyphs.originalWidth = 290;
};
width = 0;
},
{
anchors = (
{
name = _bottom;
pos = (231,0);
}
);
layerId = master04;
shapes = (
{
closed = 1;
nodes = (
(185,-247,o),
(202,-230,o),
(202,-210,cs),
(202,-190,o),
(185,-173,o),
(165,-173,cs),
(145,-173,o),
(128,-190,o),
(128,-210,cs),
(128,-230,o),
(145,-247,o),
(165,-247,cs)
);
},
{
closed = 1;
nodes = (
(121,-142,o),
(138,-125,o),
(138,-105,cs),
(138,-85,o),
(121,-68,o),
(101,-68,cs),
(81,-68,o),
(64,-85,o),
(64,-105,cs),
(64,-125,o),
(81,-142,o),
(101,-142,cs)
);
},
{
closed = 1;
nodes = (
(250,-142,o),
(267,-125,o),
(267,-105,cs),
(267,-85,o),
(250,-68,o),
(230,-68,cs),
(210,-68,o),
(193,-85,o),
(193,-105,cs),
(193,-125,o),
(210,-142,o),
(230,-142,cs)
);
},
{
closed = 1;
nodes = (
(381,-142,o),
(398,-125,o),
(398,-105,cs),
(398,-85,o),
(381,-68,o),
(361,-68,cs),
(341,-68,o),
(324,-85,o),
(324,-105,cs),
(324,-125,o),
(341,-142,o),
(361,-142,cs)
);
},
{
closed = 1;
nodes = (
(381,-247,o),
(398,-230,o),
(398,-210,cs),
(398,-190,o),
(381,-173,o),
(361,-173,cs),
(341,-173,o),
(324,-190,o),
(324,-210,cs),
(324,-230,o),
(341,-247,o),
(361,-247,cs)
);
}
);
userData = {
com.schriftgestaltung.Glyphs.originalWidth = 462;
};
width = 0;
}
);
note = "
hatafsegol
";
unicode = 1457;
},
{
glyphname = "hatafsegol_zerowidthjoiner_siluqleft-hb";
lastChange = "2024-06-03 10:08:37 +0000";
layers = (
{
anchors = (
{
name = _bottom;
pos = (192,0);
}
);
layerId = master01;
shapes = (
{
closed = 1;
nodes = (
(252,-211,l),
(252,-66,l),
(227,-66,l),
(227,-211,l)
);
},
{
closed = 1;
nodes = (
(87,-116,o),
(97,-106,o),
(97,-93,cs),
(97,-81,o),
(87,-71,o),
(75,-71,cs),
(62,-71,o),
(52,-81,o),
(52,-93,cs),
(52,-106,o),
(62,-116,o),
(75,-116,cs)
);
},
{
closed = 1;
nodes = (
(183,-116,o),
(193,-106,o),
(193,-93,cs),
(193,-81,o),
(183,-71,o),
(171,-71,cs),
(158,-71,o),
(148,-81,o),
(148,-93,cs),
(148,-106,o),
(158,-116,o),
(171,-116,cs)
);
},
{
closed = 1;
nodes = (
(134,-206,o),
(144,-196,o),
(144,-183,cs),
(144,-171,o),
(134,-161,o),
(122,-161,cs),
(109,-161,o),
(99,-171,o),
(99,-183,cs),
(99,-196,o),
(109,-206,o),
(122,-206,cs)
);
},
{
closed = 1;
nodes = (
(322,-116,o),
(332,-106,o),
(332,-93,cs),
(332,-81,o),
(322,-71,o),
(310,-71,cs),
(297,-71,o),
(287,-81,o),
(287,-93,cs),
(287,-106,o),
(297,-116,o),
(310,-116,cs)
);
},
{
closed = 1;
nodes = (
(322,-206,o),
(332,-196,o),
(332,-183,cs),
(332,-171,o),
(322,-161,o),
(310,-161,cs),
(297,-161,o),
(287,-171,o),
(287,-183,cs),
(287,-196,o),
(297,-206,o),
(310,-206,cs)
);
}
);
userData = {
com.schriftgestaltung.Glyphs.originalWidth = 384;
};
width = 0;
},
{
anchors = (
{
name = _bottom;
pos = (289,0);
}
);
layerId = master02;
shapes = (
{
closed = 1;
nodes = (
(390,-247,l),
(390,-74,l),
(329,-74,l),
(329,-247,l)
);
},
{
closed = 1;
nodes = (
(134,-142,o),
(151,-125,o),
(151,-105,cs),
(151,-85,o),
(134,-68,o),
(114,-68,cs),
(94,-68,o),
(77,-85,o),
(77,-105,cs),
(77,-125,o),
(94,-142,o),
(114,-142,cs)
);
},
{
closed = 1;
nodes = (
(263,-142,o),
(280,-125,o),
(280,-105,cs),
(280,-85,o),
(263,-68,o),
(243,-68,cs),
(223,-68,o),
(206,-85,o),
(206,-105,cs),
(206,-125,o),
(223,-142,o),
(243,-142,cs)
);
},
{
closed = 1;
nodes = (
(198,-247,o),
(215,-230,o),
(215,-210,cs),
(215,-190,o),
(198,-173,o),
(178,-173,cs),
(158,-173,o),
(141,-190,o),
(141,-210,cs),
(141,-230,o),
(158,-247,o),
(178,-247,cs)
);
},
{
closed = 1;
nodes = (
(496,-142,o),
(513,-125,o),
(513,-105,cs),
(513,-85,o),
(496,-68,o),
(476,-68,cs),
(456,-68,o),
(439,-85,o),
(439,-105,cs),
(439,-125,o),
(456,-142,o),
(476,-142,cs)
);
},
{
closed = 1;
nodes = (
(496,-247,o),
(513,-230,o),
(513,-210,cs),
(513,-190,o),
(496,-173,o),
(476,-173,cs),
(456,-173,o),
(439,-190,o),
(439,-210,cs),
(439,-230,o),
(456,-247,o),
(476,-247,cs)
);
}
);
userData = {
com.schriftgestaltung.Glyphs.originalWidth = 577;
};
width = 0;
},
{
anchors = (
{
name = _bottom;
pos = (169,0);
}
);
layerId = master03;
shapes = (
{
closed = 1;
nodes = (
(252,-211,l),
(252,-66,l),
(227,-66,l),
(227,-211,l)
);
},
{
closed = 1;
nodes = (
(87,-116,o),
(97,-106,o),
(97,-93,cs),
(97,-81,o),
(87,-71,o),
(75,-71,cs),
(62,-71,o),
(52,-81,o),
(52,-93,cs),
(52,-106,o),
(62,-116,o),
(75,-116,cs)
);
},
{
closed = 1;
nodes = (
(183,-116,o),
(193,-106,o),
(193,-93,cs),
(193,-81,o),
(183,-71,o),
(171,-71,cs),
(158,-71,o),
(148,-81,o),
(148,-93,cs),
(148,-106,o),
(158,-116,o),
(171,-116,cs)
);
},
{
closed = 1;
nodes = (
(134,-206,o),
(144,-196,o),
(144,-183,cs),
(144,-171,o),
(134,-161,o),
(122,-161,cs),
(109,-161,o),
(99,-171,o),
(99,-183,cs),
(99,-196,o),
(109,-206,o),
(122,-206,cs)
);
},
{
closed = 1;
nodes = (
(322,-116,o),
(332,-106,o),
(332,-93,cs),
(332,-81,o),
(322,-71,o),
(310,-71,cs),
(297,-71,o),
(287,-81,o),
(287,-93,cs),
(287,-106,o),
(297,-116,o),
(310,-116,cs)
);
},
{
closed = 1;
nodes = (
(322,-206,o),
(332,-196,o),
(332,-183,cs),
(332,-171,o),
(322,-161,o),
(310,-161,cs),
(297,-161,o),
(287,-171,o),
(287,-183,cs),
(287,-196,o),
(297,-206,o),
(310,-206,cs)
);
}
);
userData = {
com.schriftgestaltung.Glyphs.originalWidth = 338;
};
width = 0;
},
{
anchors = (
{
name = _bottom;
pos = (290,0);
}
);
layerId = master04;
shapes = (
{
closed = 1;
nodes = (
(390,-247,l),
(390,-74,l),
(329,-74,l),
(329,-247,l)
);
},
{
closed = 1;
nodes = (
(134,-142,o),
(151,-125,o),
(151,-105,cs),
(151,-85,o),
(134,-68,o),
(114,-68,cs),
(94,-68,o),
(77,-85,o),
(77,-105,cs),
(77,-125,o),
(94,-142,o),
(114,-142,cs)
);
},
{
closed = 1;
nodes = (
(263,-142,o),
(280,-125,o),
(280,-105,cs),
(280,-85,o),
(263,-68,o),
(243,-68,cs),
(223,-68,o),
(206,-85,o),
(206,-105,cs),
(206,-125,o),
(223,-142,o),
(243,-142,cs)
);
},
{
closed = 1;
nodes = (
(198,-247,o),
(215,-230,o),
(215,-210,cs),
(215,-190,o),
(198,-173,o),
(178,-173,cs),
(158,-173,o),
(141,-190,o),
(141,-210,cs),
(141,-230,o),
(158,-247,o),
(178,-247,cs)
);
},
{
closed = 1;
nodes = (
(496,-142,o),
(513,-125,o),
(513,-105,cs),
(513,-85,o),
(496,-68,o),
(476,-68,cs),
(456,-68,o),
(439,-85,o),
(439,-105,cs),
(439,-125,o),
(456,-142,o),
(476,-142,cs)
);
},
{
closed = 1;
nodes = (
(496,-247,o),
(513,-230,o),
(513,-210,cs),
(513,-190,o),
(496,-173,o),
(476,-173,cs),
(456,-173,o),
(439,-190,o),
(439,-210,cs),
(439,-230,o),
(456,-247,o),
(476,-247,cs)
);
}
);
userData = {
com.schriftgestaltung.Glyphs.originalWidth = 577;
};
width = 0;
}
);
},
{
glyphname = "he-hb";
layers = (
{
anchors = (
{
name = bottom;
pos = (278,0);
},
{
name = bottomleft;
pos = (47,0);
},
{
name = center;
pos = (278,296);
},
{
name = top;
pos = (275,528);
},
{
name = topleft;
pos = (45,528);
}
);
layerId = master01;
shapes = (
{
closed = 1;
nodes = (
(511,0,l),
(511,419,ls),
(511,527,o),
(454,584,o),
(348,584,cs),
(60,584,l),
(55,557,l),
(343,557,ls),
(436,557,o),
(479,511,o),
(479,416,cs),
(479,0,l)
);
},
{
closed = 1;
nodes = (
(106,0,l),
(106,355,l),
(74,350,l),
(74,0,l)
);
}
);
width = 596;
},
{
anchors = (
{
name = bottom;
pos = (330,0);
},
{
name = bottomleft;
pos = (35,0);
},
{
name = center;
pos = (327,306);
},
{
name = top;
pos = (330,553);
},
{
name = topleft;
pos = (35,553);
}
);
layerId = master02;
shapes = (
{
closed = 1;
nodes = (
(629,0,l),
(629,382,ls),
(629,533,o),
(544,609,o),
(377,609,cs),
(70,609,l),
(50,451,l),
(368,451,ls),
(411,451,o),
(437,427,o),
(437,379,cs),
(437,0,l)
);
},
{
closed = 1;
nodes = (
(252,0,l),
(252,326,l),
(60,316,l),
(60,0,l)
);
}
);
width = 679;
},
{
anchors = (
{
name = bottom;
pos = (221,0);
},
{
name = bottomleft;
pos = (53,0);
},
{
name = center;
pos = (211,296);
},
{
name = top;
pos = (204,528);
},
{
name = topleft;
pos = (51,528);
}
);
layerId = master03;
shapes = (
{
closed = 1;
nodes = (
(365,0,l),
(365,419,ls),
(365,527,o),
(328,584,o),
(222,584,cs),
(64,584,l),
(59,557,l),
(217,557,ls),
(310,557,o),
(333,511,o),
(333,416,cs),
(333,0,l)
);
},
{
closed = 1;
nodes = (
(100,0,l),
(100,395,l),
(68,390,l),
(68,0,l)
);
}
);
width = 434;
},
{
anchors = (
{
name = bottom;
pos = (267,0);
},
{
name = bottomleft;
pos = (43,0);
},
{
name = center;
pos = (281,306);
},
{
name = top;
pos = (267,553);
},
{
name = topleft;
pos = (43,553);
}
);
layerId = master04;
shapes = (
{
closed = 1;
nodes = (
(517,0,l),
(517,382,ls),
(517,533,o),
(452,609,o),
(285,609,cs),
(58,609,l),
(38,451,l),
(276,451,ls),
(319,451,o),
(325,427,o),
(325,379,cs),
(325,0,l)
);
},
{
closed = 1;
nodes = (
(240,0,l),
(240,346,l),
(48,336,l),
(48,0,l)
);
}
);
width = 555;
}
);
unicode = 1492;
},
{
glyphname = "het-hb";
layers = (
{
anchors = (
{
name = bottom;
pos = (332,0);
},
{
name = bottomleft;
pos = (98,0);
},
{
name = center;
pos = (332,296);
},
{
name = top;
pos = (332,528);
},
{
name = topleft;
pos = (98,528);
}
);
layerId = master01;
shapes = (
{
closed = 1;
nodes = (
(108,584,l),
(108,557,l),
(140,557,l),
(125,543,o),
(108,488,o),
(108,421,c),
(108,0,l),
(140,0,l),
(140,421,l),
(140,503,o),
(158,543,o),
(166,557,c),
(384,557,ls),
(477,557,o),
(520,511,o),
(520,416,cs),
(520,0,l),
(552,0,l),
(552,419,ls),
(552,527,o),
(495,584,o),
(389,584,cs)
);
},
{
closed = 1;
nodes = (
(218,557,l),
(218,584,l),
(60,584,l),
(55,557,l)
);
}
);
width = 637;
},
{
anchors = (
{
name = bottom;
pos = (349,0);
},
{
name = bottomleft;
pos = (45,0);
},
{
name = center;
pos = (349,306);
},
{
name = top;
pos = (344,553);
},
{
name = topleft;
pos = (45,553);
}
);
layerId = master02;
shapes = (
{
closed = 1;
nodes = (
(115,609,l),
(115,457,l),
(115,447,l),
(79,403,o),
(75,364,o),
(75,316,c),
(75,0,l),
(267,0,l),
(267,377,l),
(267,429,o),
(270,441,o),
(277,451,c),
(388,451,ls),
(431,451,o),
(457,427,o),
(457,379,cs),
(457,0,l),
(649,0,l),
(649,382,ls),
(649,533,o),
(564,609,o),
(397,609,cs)
);
},
{
closed = 1;
nodes = (
(367,451,l),
(367,609,l),
(45,609,l),
(25,451,l)
);
}
);
width = 704;
},
{
anchors = (
{
name = bottom;
pos = (217,0);
},
{
name = bottomleft;
pos = (62,0);
},
{
name = center;
pos = (217,296);
},
{
name = top;
pos = (217,528);
},
{
name = topleft;
pos = (62,528);
}
);
layerId = master03;
shapes = (
{
closed = 1;
nodes = (
(73,584,l),
(73,557,l),
(105,557,l),
(90,543,o),
(73,488,o),
(73,421,c),
(73,0,l),
(105,0,l),
(105,421,l),
(105,503,o),
(123,543,o),
(131,557,c),
(228,557,ls),
(321,557,o),
(344,511,o),
(344,416,cs),
(344,0,l),
(376,0,l),
(376,419,ls),
(376,527,o),
(339,584,o),
(233,584,cs)
);
},
{
closed = 1;
nodes = (
(173,557,l),
(173,584,l),
(44,584,l),
(39,557,l)
);
}
);
width = 435;
},
{
anchors = (
{
name = bottom;
pos = (294,0);
},
{
name = bottomleft;
pos = (68,0);
},
{
name = center;
pos = (294,306);
},
{
name = top;
pos = (294,553);
},
{
name = topleft;
pos = (68,553);
}
);
layerId = master04;
shapes = (
{
closed = 1;
nodes = (
(88,609,l),
(88,457,l),
(88,447,l),
(52,403,o),
(48,364,o),
(48,316,c),
(48,0,l),
(240,0,l),
(240,377,l),
(240,429,o),
(243,441,o),
(250,451,c),
(284,451,ls),
(327,451,o),
(353,427,o),
(353,379,cs),
(353,0,l),
(545,0,l),
(545,382,ls),
(545,533,o),
(460,609,o),
(293,609,cs)
);
},
{
closed = 1;
nodes = (
(253,451,l),
(253,609,l),
(48,609,l),
(28,451,l)
);
}
);
width = 583;
}
);
unicode = 1495;
},
{
glyphname = "hiriq-hb";
layers = (
{
anchors = (
{
name = _bottom;
pos = (72,0);
}
);
layerId = master01;
shapes = (
{
closed = 1;
nodes = (
(84,-116,o),
(94,-106,o),
(94,-93,cs),
(94,-81,o),
(84,-71,o),
(72,-71,cs),
(59,-71,o),
(49,-81,o),
(49,-93,cs),
(49,-106,o),
(59,-116,o),
(72,-116,cs)
);
}
);
userData = {
com.schriftgestaltung.Glyphs.originalWidth = 144;
};
width = 0;
},
{
anchors = (
{
name = _bottom;
pos = (101,0);
}
);
layerId = master02;
shapes = (
{
closed = 1;
nodes = (
(121,-142,o),
(138,-125,o),
(138,-105,cs),
(138,-85,o),
(121,-68,o),
(101,-68,cs),
(81,-68,o),
(64,-85,o),
(64,-105,cs),
(64,-125,o),
(81,-142,o),
(101,-142,cs)
);
}
);
userData = {
com.schriftgestaltung.Glyphs.originalWidth = 202;
};
width = 0;
},
{
anchors = (
{
name = _bottom;
pos = (72,0);
}
);
layerId = master03;
shapes = (
{
closed = 1;
nodes = (
(84,-116,o),
(94,-106,o),
(94,-93,cs),
(94,-81,o),
(84,-71,o),
(72,-71,cs),
(59,-71,o),
(49,-81,o),
(49,-93,cs),
(49,-106,o),
(59,-116,o),
(72,-116,cs)
);
}
);
userData = {
com.schriftgestaltung.Glyphs.originalWidth = 144;
};
width = 0;
},
{
anchors = (
{
name = _bottom;
pos = (101,0);
}
);
layerId = master04;
shapes = (
{
closed = 1;
nodes = (
(121,-142,o),
(138,-125,o),
(138,-105,cs),
(138,-85,o),
(121,-68,o),
(101,-68,cs),
(81,-68,o),
(64,-85,o),
(64,-105,cs),
(64,-125,o),
(81,-142,o),
(101,-142,cs)
);
}
);
userData = {
com.schriftgestaltung.Glyphs.originalWidth = 202;
};
width = 0;
}
);
note = "
hiriq
";
unicode = 1460;
},
{
glyphname = "holam-hb";
layers = (
{
anchors = (
{
name = _topleft;
pos = (72,528);
}
);
layerId = master01;
shapes = (
{
closed = 1;
nodes = (
(84,656,o),
(94,666,o),
(94,679,cs),
(94,691,o),
(84,701,o),
(72,701,cs),
(59,701,o),
(49,691,o),
(49,679,cs),
(49,666,o),
(59,656,o),
(72,656,cs)
);
}
);
userData = {
com.schriftgestaltung.Glyphs.originalWidth = 144;
};
width = 0;
},
{
anchors = (
{
name = _topleft;
pos = (101,553);
}
);
layerId = master02;
shapes = (
{
closed = 1;
nodes = (
(121,678,o),
(138,695,o),
(138,715,cs),
(138,735,o),
(121,752,o),
(101,752,cs),
(81,752,o),
(64,735,o),
(64,715,cs),
(64,695,o),
(81,678,o),
(101,678,cs)
);
}
);
userData = {
com.schriftgestaltung.Glyphs.originalWidth = 202;
};
width = 0;
},
{
anchors = (
{
name = _topleft;
pos = (72,528);
}
);
layerId = master03;
shapes = (
{
closed = 1;
nodes = (
(84,656,o),
(94,666,o),
(94,679,cs),
(94,691,o),
(84,701,o),
(72,701,cs),
(59,701,o),
(49,691,o),
(49,679,cs),
(49,666,o),
(59,656,o),
(72,656,cs)
);
}
);
userData = {
com.schriftgestaltung.Glyphs.originalWidth = 144;
};
width = 0;
},
{
anchors = (
{
name = _topleft;
pos = (101,553);
}
);
layerId = master04;
shapes = (
{
closed = 1;
nodes = (
(121,678,o),
(138,695,o),
(138,715,cs),
(138,735,o),
(121,752,o),
(101,752,cs),
(81,752,o),
(64,735,o),
(64,715,cs),
(64,695,o),
(81,678,o),
(101,678,cs)
);
}
);
userData = {
com.schriftgestaltung.Glyphs.originalWidth = 202;
};
width = 0;
}
);
note = "
holam
";
unicode = 1465;
},
{
glyphname = "holamhaser-hb";
layers = (
{
anchors = (
{
name = _topleft;
pos = (72,528);
}
);
layerId = master01;
shapes = (
{
closed = 1;
nodes = (
(84,656,o),
(94,666,o),
(94,679,cs),
(94,691,o),
(84,701,o),
(72,701,cs),
(59,701,o),
(49,691,o),
(49,679,cs),
(49,666,o),
(59,656,o),
(72,656,cs)
);
}
);
userData = {
com.schriftgestaltung.Glyphs.originalWidth = 144;
};
width = 0;
},
{
anchors = (
{
name = _topleft;
pos = (101,553);
}
);
layerId = master02;
shapes = (
{
closed = 1;
nodes = (
(121,678,o),
(138,695,o),
(138,715,cs),
(138,735,o),
(121,752,o),
(101,752,cs),
(81,752,o),
(64,735,o),
(64,715,cs),
(64,695,o),
(81,678,o),
(101,678,cs)
);
}
);
userData = {
com.schriftgestaltung.Glyphs.originalWidth = 202;
};
width = 0;
},
{
anchors = (
{
name = _topleft;
pos = (72,528);
}
);
layerId = master03;
shapes = (
{
closed = 1;
nodes = (
(84,656,o),
(94,666,o),
(94,679,cs),
(94,691,o),
(84,701,o),
(72,701,cs),
(59,701,o),
(49,691,o),
(49,679,cs),
(49,666,o),
(59,656,o),
(72,656,cs)
);
}
);
userData = {
com.schriftgestaltung.Glyphs.originalWidth = 144;
};
width = 0;
},
{
anchors = (
{
name = _topleft;
pos = (101,553);
}
);
layerId = master04;
shapes = (
{
closed = 1;
nodes = (
(121,678,o),
(138,695,o),
(138,715,cs),
(138,735,o),
(121,752,o),
(101,752,cs),
(81,752,o),
(64,735,o),
(64,715,cs),
(64,695,o),
(81,678,o),
(101,678,cs)
);
}
);
userData = {
com.schriftgestaltung.Glyphs.originalWidth = 202;
};
width = 0;
}
);
note = "
uni05BA
";
unicode = 1466;
},
{
glyphname = hyphen;
kernLeft = hyphen.right;
kernRight = hyphen.left;
layers = (
{
layerId = master01;
shapes = (
{
closed = 1;
nodes = (
(282,259,l),
(282,284,l),
(40,284,l),
(40,259,l)
);
}
);
userData = {
com.schriftgestaltung.Glyphs.subCategory = Dash;
};
width = 322;
},
{
layerId = master02;
shapes = (
{
closed = 1;
nodes = (
(297,192,l),
(297,344,l),
(21,344,l),
(21,192,l)
);
}
);
userData = {
com.schriftgestaltung.Glyphs.subCategory = Dash;
};
width = 318;
},
{
layerId = master03;
shapes = (
{
closed = 1;
nodes = (
(237,259,l),
(237,286,l),
(26,286,l),
(26,259,l)
);
}
);
userData = {
com.schriftgestaltung.Glyphs.subCategory = Dash;
};
width = 263;
},
{
layerId = master04;
shapes = (
{
closed = 1;
nodes = (
(296,192,l),
(296,344,l),
(29,344,l),
(29,192,l)
);
}
);
userData = {
com.schriftgestaltung.Glyphs.subCategory = Dash;
};
width = 325;
}
);
unicode = 45;
},
{
glyphname = hyphentwo;
layers = (
{
layerId = master01;
shapes = (
{
closed = 1;
nodes = (
(282,259,l),
(282,284,l),
(40,284,l),
(40,259,l)
);
}
);
userData = {
com.schriftgestaltung.Glyphs.glyph.widthMetricsKey = "=hyphen";
com.schriftgestaltung.Glyphs.subCategory = Dash;
};
width = 322;
},
{
layerId = master02;
shapes = (
{
closed = 1;
nodes = (
(297,192,l),
(297,344,l),
(21,344,l),
(21,192,l)
);
}
);
userData = {
com.schriftgestaltung.Glyphs.glyph.widthMetricsKey = "=hyphen";
com.schriftgestaltung.Glyphs.subCategory = Dash;
};
width = 318;
},
{
layerId = master03;
shapes = (
{
closed = 1;
nodes = (
(237,259,l),
(237,286,l),
(26,286,l),
(26,259,l)
);
}
);
userData = {
com.schriftgestaltung.Glyphs.glyph.widthMetricsKey = "=hyphen";
com.schriftgestaltung.Glyphs.subCategory = Dash;
};
width = 263;
},
{
layerId = master04;
shapes = (
{
closed = 1;
nodes = (
(296,192,l),
(296,344,l),
(29,344,l),
(29,192,l)
);
}
);
userData = {
com.schriftgestaltung.Glyphs.glyph.widthMetricsKey = "=hyphen";
com.schriftgestaltung.Glyphs.subCategory = Dash;
};
width = 325;
}
);
unicode = 8208;
},
{
glyphname = "iluy-hb";
layers = (
{
anchors = (
{
name = _top;
pos = (125,528);
}
);
layerId = master01;
shapes = (
{
closed = 1;
nodes = (
(191,650,l),
(191,777,l),
(165,777,l),
(165,676,l),
(59,676,l),
(59,650,l)
);
}
);
userData = {
com.schriftgestaltung.Glyphs.originalWidth = 250;
};
width = 0;
},
{
anchors = (
{
name = _top;
pos = (132,553);
}
);
layerId = master02;
shapes = (
{
closed = 1;
nodes = (
(214,636,l),
(214,794,l),
(159,794,l),
(159,690,l),
(50,690,l),
(50,636,l)
);
}
);
userData = {
com.schriftgestaltung.Glyphs.originalWidth = 264;
};
width = 0;
},
{
anchors = (
{
name = _top;
pos = (116,528);
}
);
layerId = master03;
shapes = (
{
closed = 1;
nodes = (
(182,650,l),
(182,777,l),
(156,777,l),
(156,676,l),
(50,676,l),
(50,650,l)
);
}
);
userData = {
com.schriftgestaltung.Glyphs.originalWidth = 232;
};
width = 0;
},
{
anchors = (
{
name = _top;
pos = (132,553);
}
);
layerId = master04;
shapes = (
{
closed = 1;
nodes = (
(204,636,l),
(204,775,l),
(156,775,l),
(156,683,l),
(60,683,l),
(60,636,l)
);
}
);
userData = {
com.schriftgestaltung.Glyphs.originalWidth = 264;
};
width = 0;
}
);
note = "
uni05AC
";
unicode = 1452;
},
{
glyphname = "judeospanishvarika-hb";
layers = (
{
anchors = (
{
name = _top;
pos = (156,528);
}
);
layerId = master01;
shapes = (
{
closed = 1;
nodes = (
(242,759,l),
(242,712,o),
(211,671,o),
(156,671,cs),
(102,671,o),
(71,700,o),
(71,759,c),
(50,759,l),
(50,694,o),
(89,650,o),
(156,650,cs),
(222,650,o),
(261,694,o),
(261,759,c)
);
}
);
userData = {
com.schriftgestaltung.Glyphs.originalWidth = 311;
};
width = 0;
},
{
anchors = (
{
name = _top;
pos = (166,553);
}
);
layerId = master02;
shapes = (
{
closed = 1;
nodes = (
(226,767,l),
(226,727,o),
(204,705,o),
(166,705,cs),
(127,705,o),
(105,732,o),
(105,767,c),
(50,767,l),
(50,696,o),
(93,647,o),
(166,647,cs),
(240,647,o),
(283,696,o),
(283,767,c)
);
}
);
userData = {
com.schriftgestaltung.Glyphs.originalWidth = 333;
};
width = 0;
},
{
anchors = (
{
name = _top;
pos = (156,528);
}
);
layerId = master03;
shapes = (
{
closed = 1;
nodes = (
(242,759,l),
(242,712,o),
(211,671,o),
(156,671,cs),
(102,671,o),
(71,700,o),
(71,759,c),
(50,759,l),
(50,694,o),
(89,650,o),
(156,650,cs),
(222,650,o),
(261,694,o),
(261,759,c)
);
}
);
userData = {
com.schriftgestaltung.Glyphs.originalWidth = 311;
};
width = 0;
},
{
anchors = (
{
name = _top;
pos = (166,553);
}
);
layerId = master04;
shapes = (
{
closed = 1;
nodes = (
(219,752,l),
(219,717,o),
(199,698,o),
(166,698,cs),
(132,698,o),
(113,722,o),
(113,752,c),
(64,752,l),
(64,690,o),
(102,647,o),
(166,647,cs),
(231,647,o),
(269,690,o),
(269,752,c)
);
}
);
userData = {
com.schriftgestaltung.Glyphs.originalWidth = 333;
};
width = 0;
}
);
note = "
uniFB1E
";
unicode = 64286;
},
{
glyphname = "kaf-hb";
layers = (
{
anchors = (
{
name = bottom;
pos = (186,0);
},
{
name = bottomleft;
pos = (20,0);
},
{
name = center;
pos = (194,296);
},
{
name = top;
pos = (170,528);
},
{
name = topleft;
pos = (10,528);
}
);
layerId = master01;
shapes = (
{
closed = 1;
nodes = (
(206,0,ls),
(362,0,o),
(444,100,o),
(444,292,cs),
(444,484,o),
(362,584,o),
(206,584,cs),
(62,584,l),
(57,557,l),
(206,557,ls),
(340,557,o),
(410,466,o),
(410,292,cs),
(410,118,o),
(340,27,o),
(206,27,cs),
(57,27,l),
(57,0,l)
);
}
);
width = 501;
},
{
anchors = (
{
name = bottom;
pos = (174,0);
},
{
name = bottomleft;
pos = (-25,0);
},
{
name = center;
pos = (165,306);
},
{
name = top;
pos = (175,553);
},
{
name = topleft;
pos = (-8,553);
}
);
layerId = master02;
shapes = (
{
closed = 1;
nodes = (
(213,0,ls),
(407,0,o),
(512,110,o),
(512,297,cs),
(512,493,o),
(407,609,o),
(213,609,cs),
(45,609,l),
(25,451,l),
(213,451,ls),
(285,451,o),
(317,394,o),
(317,297,cs),
(317,210,o),
(285,158,o),
(213,158,cs),
(25,158,l),
(25,0,l)
);
}
);
width = 537;
},
{
anchors = (
{
name = bottom;
pos = (137,0);
},
{
name = bottomleft;
pos = (36,0);
},
{
name = center;
pos = (137,296);
},
{
name = top;
pos = (129,528);
},
{
name = topleft;
pos = (26,528);
}
);
layerId = master03;
shapes = (
{
closed = 1;
nodes = (
(133,0,ls),
(253,0,o),
(301,83,o),
(301,292,cs),
(301,501,o),
(253,584,o),
(133,584,cs),
(39,584,l),
(34,557,l),
(133,557,ls),
(229,557,o),
(267,481,o),
(267,292,cs),
(267,103,o),
(229,27,o),
(133,27,cs),
(34,27,l),
(34,0,l)
);
}
);
width = 335;
},
{
anchors = (
{
name = bottom;
pos = (170,0);
},
{
name = bottomleft;
pos = (22,0);
},
{
name = center;
pos = (117,306);
},
{
name = top;
pos = (191,553);
},
{
name = topleft;
pos = (22,553);
}
);
layerId = master04;
shapes = (
{
closed = 1;
nodes = (
(141,0,ls),
(325,0,o),
(410,93,o),
(410,297,cs),
(410,511,o),
(325,609,o),
(141,609,cs),
(43,609,l),
(23,451,l),
(141,451,ls),
(192,451,o),
(215,403,o),
(215,297,cs),
(215,202,o),
(192,158,o),
(141,158,cs),
(23,158,l),
(23,0,l)
);
}
);
width = 428;
}
);
unicode = 1499;
},
{
glyphname = "lamed-hb";
layers = (
{
anchors = (
{
name = bottom;
pos = (233,0);
},
{
name = bottomleft;
pos = (227,0);
},
{
name = center;
pos = (142,334);
},
{
name = top;
pos = (239,528);
},
{
name = topleft;
pos = (-21,528);
}
);
layerId = master01;
shapes = (
{
closed = 1;
nodes = (
(74,760,l),
(42,755,l),
(42,557,l),
(407,557,l),
(227,0,l),
(259,0,l),
(439,557,l),
(447,584,l),
(74,584,l)
);
}
);
width = 489;
},
{
anchors = (
{
name = bottom;
pos = (263,0);
},
{
name = bottomleft;
pos = (219,0);
},
{
name = center;
pos = (125,306);
},
{
name = top;
pos = (357,553);
},
{
name = topleft;
pos = (-93,553);
}
);
layerId = master02;
shapes = (
{
closed = 1;
nodes = (
(212,760,l),
(20,740,l),
(20,451,l),
(330,451,l),
(162,0,l),
(362,0,l),
(541,499,l),
(553,609,l),
(212,609,l)
);
}
);
width = 578;
},
{
anchors = (
{
name = bottom;
pos = (140,0);
},
{
name = bottomleft;
pos = (138,0);
},
{
name = center;
pos = (92,316);
},
{
name = top;
pos = (158,528);
},
{
name = topleft;
pos = (-27,528);
}
);
layerId = master03;
shapes = (
{
closed = 1;
nodes = (
(57,760,l),
(25,755,l),
(25,557,l),
(260,557,l),
(127,0,l),
(159,0,l),
(292,557,l),
(299,584,l),
(57,584,l)
);
}
);
width = 331;
},
{
anchors = (
{
name = bottom;
pos = (228,0);
},
{
name = bottomleft;
pos = (55,0);
},
{
name = center;
pos = (118,306);
},
{
name = top;
pos = (325,553);
},
{
name = topleft;
pos = (-23,553);
}
);
layerId = master04;
shapes = (
{
closed = 1;
nodes = (
(217,760,l),
(25,740,l),
(25,451,l),
(255,451,l),
(137,0,l),
(328,0,l),
(447,499,l),
(471,609,l),
(217,609,l)
);
}
);
width = 486;
}
);
unicode = 1500;
},
{
glyphname = "lowerdot-hb";
layers = (
{
anchors = (
{
name = _bottom;
pos = (72,0);
}
);
layerId = master01;
shapes = (
{
closed = 1;
nodes = (
(84,-117,o),
(94,-107,o),
(94,-94,cs),
(94,-82,o),
(84,-72,o),
(72,-72,cs),
(59,-72,o),
(49,-82,o),
(49,-94,cs),
(49,-107,o),
(59,-117,o),
(72,-117,cs)
);
}
);
userData = {
com.schriftgestaltung.Glyphs.originalWidth = 144;
};
width = 0;
},
{
anchors = (
{
name = _bottom;
pos = (101,0);
}
);
layerId = master02;
shapes = (
{
closed = 1;
nodes = (
(121,-142,o),
(138,-125,o),
(138,-105,cs),
(138,-85,o),
(121,-68,o),
(101,-68,cs),
(81,-68,o),
(64,-85,o),
(64,-105,cs),
(64,-125,o),
(81,-142,o),
(101,-142,cs)
);
}
);
userData = {
com.schriftgestaltung.Glyphs.originalWidth = 202;
};
width = 0;
},
{
anchors = (
{
name = _bottom;
pos = (72,0);
}
);
layerId = master03;
shapes = (
{
closed = 1;
nodes = (
(84,-117,o),
(94,-107,o),
(94,-94,cs),
(94,-82,o),
(84,-72,o),
(72,-72,cs),
(59,-72,o),
(49,-82,o),
(49,-94,cs),
(49,-107,o),
(59,-117,o),
(72,-117,cs)
);
}
);
userData = {
com.schriftgestaltung.Glyphs.originalWidth = 144;
};
width = 0;
},
{
anchors = (
{
name = _bottom;
pos = (101,0);
}
);
layerId = master04;
shapes = (
{
closed = 1;
nodes = (
(121,-142,o),
(138,-125,o),
(138,-105,cs),
(138,-85,o),
(121,-68,o),
(101,-68,cs),
(81,-68,o),
(64,-85,o),
(64,-105,cs),
(64,-125,o),
(81,-142,o),
(101,-142,cs)
);
}
);
userData = {
com.schriftgestaltung.Glyphs.originalWidth = 202;
};
width = 0;
}
);
note = "
lowerdot
";
unicode = 1477;
},
{
glyphname = "mahapakhleft-hb";
layers = (
{
anchors = (
{
name = _bottomleft;
pos = (102,0);
}
);
layerId = master01;
shapes = (
{
closed = 1;
nodes = (
(154,-229,l),
(80,-154,l),
(151,-82,l),
(121,-82,l),
(50,-153,l),
(125,-229,l)
);
}
);
userData = {
com.schriftgestaltung.Glyphs.originalWidth = 227;
};
width = 0;
},
{
anchors = (
{
name = _bottomleft;
pos = (132,0);
}
);
layerId = master02;
shapes = (
{
closed = 1;
nodes = (
(214,-253,l),
(123,-161,l),
(214,-70,l),
(141,-70,l),
(50,-161,l),
(141,-253,l)
);
}
);
userData = {
com.schriftgestaltung.Glyphs.originalWidth = 264;
};
width = 0;
},
{
anchors = (
{
name = _bottomleft;
pos = (102,0);
}
);
layerId = master03;
shapes = (
{
closed = 1;
nodes = (
(154,-229,l),
(80,-154,l),
(151,-82,l),
(121,-82,l),
(50,-153,l),
(125,-229,l)
);
}
);
userData = {
com.schriftgestaltung.Glyphs.originalWidth = 204;
};
width = 0;
},
{
anchors = (
{
name = _bottomleft;
pos = (132,0);
}
);
layerId = master04;
shapes = (
{
closed = 1;
nodes = (
(204,-231,l),
(124,-150,l),
(204,-70,l),
(140,-70,l),
(60,-150,l),
(140,-231,l)
);
}
);
userData = {
com.schriftgestaltung.Glyphs.originalWidth = 264;
};
width = 0;
}
);
note = "
uni05A4
";
unicode = 1444;
},
{
glyphname = "maqaf-hb";
layers = (
{
layerId = master01;
shapes = (
{
closed = 1;
nodes = (
(282,557,l),
(282,584,l),
(40,584,l),
(40,557,l)
);
}
);
width = 322;
},
{
layerId = master02;
shapes = (
{
closed = 1;
nodes = (
(301,451,l),
(301,609,l),
(25,609,l),
(25,451,l)
);
}
);
width = 326;
},
{
layerId = master03;
shapes = (
{
closed = 1;
nodes = (
(237,557,l),
(237,584,l),
(36,584,l),
(36,557,l)
);
}
);
width = 273;
},
{
layerId = master04;
shapes = (
{
closed = 1;
nodes = (
(272,451,l),
(272,609,l),
(25,609,l),
(25,451,l)
);
}
);
width = 297;
}
);
unicode = 1470;
},
{
glyphname = "masoracircle-hb";
layers = (
{
anchors = (
{
name = _top;
pos = (107,528);
}
);
layerId = master01;
shapes = (
{
closed = 1;
nodes = (
(139,650,o),
(164,675,o),
(164,707,cs),
(164,738,o),
(138,764,o),
(107,764,cs),
(76,764,o),
(50,738,o),
(50,707,cs),
(50,675,o),
(75,650,o),
(107,650,cs)
);
},
{
closed = 1;
nodes = (
(89,674,o),
(75,689,o),
(75,707,cs),
(75,725,o),
(90,739,o),
(107,739,cs),
(124,739,o),
(139,725,o),
(139,707,cs),
(139,689,o),
(125,674,o),
(107,674,cs)
);
}
);
userData = {
com.schriftgestaltung.Glyphs.originalWidth = 214;
};
width = 0;
},
{
anchors = (
{
name = _top;
pos = (151,553);
}
);
layerId = master02;
shapes = (
{
closed = 1;
nodes = (
(208,632,o),
(252,677,o),
(252,733,cs),
(252,789,o),
(207,834,o),
(151,834,cs),
(95,834,o),
(50,789,o),
(50,733,cs),
(50,677,o),
(94,632,o),
(151,632,cs)
);
},
{
closed = 1;
nodes = (
(121,679,o),
(97,703,o),
(97,733,cs),
(97,763,o),
(122,787,o),
(151,787,cs),
(180,787,o),
(205,763,o),
(205,733,cs),
(205,703,o),
(181,679,o),
(151,679,cs)
);
}
);
userData = {
com.schriftgestaltung.Glyphs.originalWidth = 302;
};
width = 0;
},
{
anchors = (
{
name = _top;
pos = (107,528);
}
);
layerId = master03;
shapes = (
{
closed = 1;
nodes = (
(139,650,o),
(164,675,o),
(164,707,cs),
(164,738,o),
(138,764,o),
(107,764,cs),
(76,764,o),
(50,738,o),
(50,707,cs),
(50,675,o),
(75,650,o),
(107,650,cs)
);
},
{
closed = 1;
nodes = (
(89,674,o),
(75,689,o),
(75,707,cs),
(75,725,o),
(90,739,o),
(107,739,cs),
(124,739,o),
(139,725,o),
(139,707,cs),
(139,689,o),
(125,674,o),
(107,674,cs)
);
}
);
userData = {
com.schriftgestaltung.Glyphs.originalWidth = 214;
};
width = 0;
},
{
anchors = (
{
name = _top;
pos = (151,553);
}
);
layerId = master04;
shapes = (
{
closed = 1;
nodes = (
(201,632,o),
(240,671,o),
(240,721,cs),
(240,770,o),
(200,809,o),
(151,809,cs),
(102,809,o),
(62,770,o),
(62,721,cs),
(62,671,o),
(101,632,o),
(151,632,cs)
);
},
{
closed = 1;
nodes = (
(125,673,o),
(104,694,o),
(104,721,cs),
(104,747,o),
(126,768,o),
(151,768,cs),
(176,768,o),
(198,747,o),
(198,721,cs),
(198,694,o),
(177,673,o),
(151,673,cs)
);
}
);
userData = {
com.schriftgestaltung.Glyphs.originalWidth = 302;
};
width = 0;
}
);
note = "
uni05AF
";
unicode = 1455;
},
{
glyphname = "mem-hb";
layers = (
{
anchors = (
{
name = bottom;
pos = (330,0);
},
{
name = bottomleft;
pos = (66,0);
},
{
name = center;
pos = (330,296);
},
{
name = top;
pos = (345,528);
},
{
name = topleft;
pos = (89,528);
}
);
layerId = master01;
shapes = (
{
closed = 1;
nodes = (
(102,0,l),
(173,376,ls),
(187,449,o),
(227,566,o),
(358,566,cs),
(459,566,o),
(536,496,o),
(536,318,cs),
(536,303,ls),
(536,135,o),
(466,27,o),
(335,27,cs),
(235,27,l),
(231,0,l),
(336,0,ls),
(488,0,o),
(568,117,o),
(568,303,cs),
(568,318,ls),
(568,513,o),
(481,593,o),
(358,593,cs),
(218,593,o),
(172,480,o),
(154,405,c),
(153,405,l),
(92,584,l),
(60,584,l),
(141,356,l),
(70,0,l)
);
}
);
width = 618;
},
{
anchors = (
{
name = bottom;
pos = (396,0);
},
{
name = bottomleft;
pos = (157,0);
},
{
name = center;
pos = (396,306);
},
{
name = top;
pos = (403,553);
},
{
name = topleft;
pos = (61,553);
}
);
layerId = master02;
shapes = (
{
closed = 1;
nodes = (
(243,0,l),
(295,312,ls),
(312,416,o),
(338,458,o),
(420,458,cs),
(475,458,o),
(518,406,o),
(518,320,cs),
(518,307,ls),
(518,221,o),
(477,158,o),
(409,158,cs),
(348,158,l),
(326,0,l),
(419,0,ls),
(602,0,o),
(710,126,o),
(710,307,cs),
(710,320,ls),
(710,503,o),
(609,619,o),
(462,619,cs),
(356,619,o),
(295,590,o),
(253,486,c),
(247,486,l),
(217,609,l),
(25,609,l),
(110,353,l),
(44,0,l)
);
}
);
width = 730;
},
{
anchors = (
{
name = bottom;
pos = (219,0);
},
{
name = bottomleft;
pos = (54,0);
},
{
name = center;
pos = (217,296);
},
{
name = top;
pos = (252,528);
},
{
name = topleft;
pos = (72,528);
}
);
layerId = master03;
shapes = (
{
closed = 1;
nodes = (
(76,0,l),
(117,407,ls),
(128,519,o),
(179,566,o),
(229,566,cs),
(303,566,o),
(340,481,o),
(340,318,cs),
(340,303,ls),
(340,122,o),
(294,27,o),
(208,27,cs),
(159,27,l),
(155,0,l),
(209,0,ls),
(315,0,o),
(372,104,o),
(372,303,cs),
(372,318,ls),
(372,499,o),
(324,593,o),
(229,593,cs),
(167,593,o),
(123,544,o),
(107,471,c),
(106,471,l),
(76,584,l),
(44,584,l),
(90,421,l),
(44,0,l)
);
}
);
width = 406;
},
{
anchors = (
{
name = bottom;
pos = (324,0);
},
{
name = bottomleft;
pos = (178,0);
},
{
name = center;
pos = (335,306);
},
{
name = top;
pos = (348,553);
},
{
name = topleft;
pos = (82,553);
}
);
layerId = master04;
shapes = (
{
closed = 1;
nodes = (
(236,0,l),
(267,312,ls),
(277,408,o),
(305,458,o),
(338,458,cs),
(383,458,o),
(406,411,o),
(406,320,cs),
(406,307,ls),
(406,209,o),
(381,158,o),
(329,158,cs),
(304,158,l),
(289,0,l),
(339,0,ls),
(511,0,o),
(598,105,o),
(598,307,cs),
(598,320,ls),
(598,516,o),
(527,619,o),
(390,619,cs),
(308,619,o),
(253,577,o),
(231,496,c),
(225,496,l),
(215,609,l),
(23,609,l),
(88,353,l),
(44,0,l)
);
}
);
width = 621;
}
);
unicode = 1502;
},
{
glyphname = "merkhakefulaleft-hb";
layers = (
{
anchors = (
{
name = _bottomleft;
pos = (199,0);
}
);
layerId = master01;
shapes = (
{
closed = 1;
nodes = (
(235,-222,o),
(268,-183,o),
(268,-116,c),
(239,-116,l),
(239,-165,o),
(219,-193,o),
(159,-193,c),
(159,-222,l)
);
},
{
closed = 1;
nodes = (
(126,-222,o),
(159,-183,o),
(159,-116,c),
(130,-116,l),
(130,-165,o),
(110,-193,o),
(50,-193,c),
(50,-222,l)
);
}
);
userData = {
com.schriftgestaltung.Glyphs.originalWidth = 318;
};
width = 0;
},
{
anchors = (
{
name = _bottomleft;
pos = (266,0);
}
);
layerId = master02;
shapes = (
{
closed = 1;
nodes = (
(323,-224,o),
(382,-166,o),
(382,-70,c),
(326,-70,l),
(326,-132,o),
(285,-170,o),
(216,-170,c),
(216,-224,l)
);
},
{
closed = 1;
nodes = (
(156,-224,o),
(216,-167,o),
(216,-70,c),
(160,-70,l),
(160,-132,o),
(119,-170,o),
(50,-170,c),
(50,-224,l)
);
}
);
userData = {
com.schriftgestaltung.Glyphs.originalWidth = 432;
};
width = 0;
},
{
anchors = (
{
name = _bottomleft;
pos = (199,0);
}
);
layerId = master03;
shapes = (
{
closed = 1;
nodes = (
(235,-222,o),
(268,-183,o),
(268,-116,c),
(239,-116,l),
(239,-165,o),
(219,-193,o),
(159,-193,c),
(159,-222,l)
);
},
{
closed = 1;
nodes = (
(126,-222,o),
(159,-183,o),
(159,-116,c),
(130,-116,l),
(130,-165,o),
(110,-193,o),
(50,-193,c),
(50,-222,l)
);
}
);
userData = {
com.schriftgestaltung.Glyphs.originalWidth = 318;
};
width = 0;
},
{
anchors = (
{
name = _bottomleft;
pos = (260,0);
}
);
layerId = master04;
shapes = (
{
closed = 1;
nodes = (
(310,-205,o),
(362,-154,o),
(362,-70,c),
(312,-70,l),
(312,-124,o),
(277,-158,o),
(216,-158,c),
(216,-205,l)
);
},
{
closed = 1;
nodes = (
(163,-205,o),
(216,-155,o),
(216,-70,c),
(167,-70,l),
(167,-124,o),
(131,-158,o),
(70,-158,c),
(70,-205,l)
);
}
);
userData = {
com.schriftgestaltung.Glyphs.originalWidth = 432;
};
width = 0;
}
);
note = "
uni05A6
";
unicode = 1446;
},
{
glyphname = "merkhaleft-hb";
layers = (
{
anchors = (
{
name = _bottomleft;
pos = (159,0);
}
);
layerId = master01;
shapes = (
{
closed = 1;
nodes = (
(126,-188,o),
(159,-149,o),
(159,-82,c),
(130,-82,l),
(130,-131,o),
(110,-159,o),
(50,-159,c),
(50,-188,l)
);
}
);
userData = {
com.schriftgestaltung.Glyphs.originalWidth = 209;
};
width = 0;
},
{
anchors = (
{
name = _bottomleft;
pos = (214,0);
}
);
layerId = master02;
shapes = (
{
closed = 1;
nodes = (
(155,-224,o),
(214,-167,o),
(214,-70,c),
(159,-70,l),
(159,-132,o),
(118,-170,o),
(50,-170,c),
(50,-224,l)
);
}
);
userData = {
com.schriftgestaltung.Glyphs.originalWidth = 264;
};
width = 0;
},
{
anchors = (
{
name = _bottomleft;
pos = (159,0);
}
);
layerId = master03;
shapes = (
{
closed = 1;
nodes = (
(126,-188,o),
(159,-149,o),
(159,-82,c),
(130,-82,l),
(130,-131,o),
(110,-159,o),
(50,-159,c),
(50,-188,l)
);
}
);
userData = {
com.schriftgestaltung.Glyphs.originalWidth = 209;
};
width = 0;
},
{
anchors = (
{
name = _bottomleft;
pos = (204,0);
}
);
layerId = master04;
shapes = (
{
closed = 1;
nodes = (
(152,-205,o),
(204,-155,o),
(204,-70,c),
(156,-70,l),
(156,-124,o),
(120,-158,o),
(60,-158,c),
(60,-205,l)
);
}
);
userData = {
com.schriftgestaltung.Glyphs.originalWidth = 264;
};
width = 0;
}
);
note = "
uni05A5
";
unicode = 1445;
},
{
glyphname = "munahleft-hb";
layers = (
{
anchors = (
{
name = _bottomleft;
pos = (185,0);
}
);
layerId = master01;
shapes = (
{
closed = 1;
nodes = (
(185,-213,l),
(185,-82,l),
(159,-82,l),
(159,-187,l),
(50,-187,l),
(50,-213,l)
);
}
);
userData = {
com.schriftgestaltung.Glyphs.originalWidth = 235;
};
width = 0;
},
{
anchors = (
{
name = _bottomleft;
pos = (214,0);
}
);
layerId = master02;
shapes = (
{
closed = 1;
nodes = (
(214,-228,l),
(214,-70,l),
(159,-70,l),
(159,-174,l),
(50,-174,l),
(50,-228,l)
);
}
);
userData = {
com.schriftgestaltung.Glyphs.originalWidth = 264;
};
width = 0;
},
{
anchors = (
{
name = _bottomleft;
pos = (185,0);
}
);
layerId = master03;
shapes = (
{
closed = 1;
nodes = (
(185,-213,l),
(185,-82,l),
(159,-82,l),
(159,-187,l),
(50,-187,l),
(50,-213,l)
);
}
);
userData = {
com.schriftgestaltung.Glyphs.originalWidth = 235;
};
width = 0;
},
{
anchors = (
{
name = _bottomleft;
pos = (204,0);
}
);
layerId = master04;
shapes = (
{
closed = 1;
nodes = (
(204,-209,l),
(204,-70,l),
(156,-70,l),
(156,-161,l),
(60,-161,l),
(60,-209,l)
);
}
);
userData = {
com.schriftgestaltung.Glyphs.originalWidth = 264;
};
width = 0;
}
);
note = "
uni05A3
";
unicode = 1443;
},
{
glyphname = "nun-hb";
layers = (
{
anchors = (
{
name = bottom;
pos = (162,0);
},
{
name = bottomleft;
pos = (21,0);
},
{
name = center;
pos = (120,296);
},
{
name = top;
pos = (151,528);
},
{
name = topleft;
pos = (72,528);
}
);
layerId = master01;
shapes = (
{
closed = 1;
nodes = (
(268,0,l),
(268,479,ls),
(268,548,o),
(230,584,o),
(176,584,cs),
(96,584,l),
(91,557,l),
(171,557,ls),
(211,557,o),
(236,529,o),
(236,476,cs),
(236,0,l)
);
},
{
closed = 1;
nodes = (
(251,0,l),
(251,27,l),
(55,27,l),
(55,0,l)
);
}
);
width = 353;
},
{
anchors = (
{
name = bottom;
pos = (177,0);
},
{
name = bottomleft;
pos = (-43,0);
},
{
name = center;
pos = (81,306);
},
{
name = top;
pos = (193,553);
},
{
name = topleft;
pos = (20,553);
}
);
layerId = master02;
shapes = (
{
closed = 1;
nodes = (
(367,0,l),
(367,411,ls),
(367,540,o),
(301,609,o),
(156,609,cs),
(75,609,l),
(55,451,l),
(103,451,ls),
(156,451,o),
(175,440,o),
(175,392,cs),
(175,0,l)
);
},
{
closed = 1;
nodes = (
(267,0,l),
(267,158,l),
(35,158,l),
(35,0,l)
);
}
);
width = 421;
},
{
anchors = (
{
name = bottom;
pos = (99,0);
},
{
name = bottomleft;
pos = (23,0);
},
{
name = center;
pos = (66,296);
},
{
name = top;
pos = (122,528);
},
{
name = topleft;
pos = (64,528);
}
);
layerId = master03;
shapes = (
{
closed = 1;
nodes = (
(177,0,l),
(177,479,ls),
(177,548,o),
(149,584,o),
(95,584,cs),
(45,584,l),
(40,557,l),
(90,557,ls),
(130,557,o),
(145,529,o),
(145,476,cs),
(145,0,l)
);
},
{
closed = 1;
nodes = (
(160,0,l),
(160,27,l),
(34,27,l),
(34,0,l)
);
}
);
width = 236;
},
{
anchors = (
{
name = bottom;
pos = (169,0);
},
{
name = bottomleft;
pos = (-7,0);
},
{
name = center;
pos = (64,306);
},
{
name = top;
pos = (185,553);
},
{
name = topleft;
pos = (56,553);
}
);
layerId = master04;
shapes = (
{
closed = 1;
nodes = (
(322,0,l),
(322,411,ls),
(322,540,o),
(274,609,o),
(129,609,cs),
(58,609,l),
(38,451,l),
(76,451,ls),
(129,451,o),
(130,440,o),
(130,392,cs),
(130,0,l)
);
},
{
closed = 1;
nodes = (
(222,0,l),
(222,158,l),
(28,158,l),
(28,0,l)
);
}
);
width = 366;
}
);
unicode = 1504;
},
{
glyphname = "nunhafukha-hb";
layers = (
{
layerId = master01;
shapes = (
{
closed = 1;
nodes = (
(315,0,l),
(315,27,l),
(111,27,l),
(111,416,ls),
(111,518,o),
(162,557,o),
(250,557,cs),
(280,557,l),
(280,584,l),
(245,584,ls),
(144,584,o),
(85,531,o),
(85,419,cs),
(85,0,l)
);
}
);
width = 350;
},
{
layerId = master02;
shapes = (
{
closed = 1;
nodes = (
(449,0,l),
(449,158,l),
(262,158,l),
(262,416,ls),
(262,440,o),
(271,451,o),
(296,451,cs),
(416,451,l),
(416,609,l),
(243,609,ls),
(126,609,o),
(70,540,o),
(70,435,cs),
(70,0,l)
);
}
);
width = 474;
},
{
layerId = master03;
shapes = (
{
closed = 1;
nodes = (
(210,0,l),
(210,29,l),
(96,29,l),
(96,479,l),
(96,537,o),
(109,557,o),
(152,557,cs),
(184,557,l),
(184,584,l),
(147,584,ls),
(93,584,o),
(70,553,o),
(70,487,cs),
(70,0,l)
);
}
);
width = 245;
},
{
layerId = master04;
shapes = (
{
closed = 1;
nodes = (
(338,0,l),
(338,146,l),
(220,146,l),
(220,409,ls),
(220,445,o),
(233,463,o),
(260,463,cs),
(306,463,l),
(306,609,l),
(204,609,ls),
(95,609,o),
(50,547,o),
(50,417,cs),
(50,0,l)
);
}
);
width = 358;
}
);
note = "
uni05C6
";
unicode = 1478;
},
{
glyphname = "ole-hb";
layers = (
{
anchors = (
{
name = _top;
pos = (101,528);
}
);
layerId = master01;
shapes = (
{
closed = 1;
nodes = (
(154,647,l),
(80,722,l),
(151,794,l),
(121,794,l),
(50,723,l),
(125,647,l)
);
}
);
userData = {
com.schriftgestaltung.Glyphs.originalWidth = 204;
};
width = 0;
},
{
anchors = (
{
name = _top;
pos = (132,553);
}
);
layerId = master02;
shapes = (
{
closed = 1;
nodes = (
(214,633,l),
(123,725,l),
(214,816,l),
(141,816,l),
(50,725,l),
(141,633,l)
);
}
);
userData = {
com.schriftgestaltung.Glyphs.originalWidth = 264;
};
width = 0;
},
{
anchors = (
{
name = _top;
pos = (101,528);
}
);
layerId = master03;
shapes = (
{
closed = 1;
nodes = (
(154,647,l),
(80,722,l),
(151,794,l),
(121,794,l),
(50,723,l),
(125,647,l)
);
}
);
userData = {
com.schriftgestaltung.Glyphs.originalWidth = 204;
};
width = 0;
},
{
anchors = (
{
name = _top;
pos = (132,553);
}
);
layerId = master04;
shapes = (
{
closed = 1;
nodes = (
(204,633,l),
(124,714,l),
(204,794,l),
(140,794,l),
(60,714,l),
(140,633,l)
);
}
);
userData = {
com.schriftgestaltung.Glyphs.originalWidth = 264;
};
width = 0;
}
);
note = "
uni05AB
";
unicode = 1451;
},
{
glyphname = "paseq-hb";
layers = (
{
layerId = master01;
shapes = (
{
closed = 1;
nodes = (
(253,-251,l),
(278,-251,l),
(278,763,l),
(253,763,l)
);
}
);
width = 535;
},
{
layerId = master02;
shapes = (
{
closed = 1;
nodes = (
(189,-218,l),
(320,-218,l),
(320,760,l),
(189,760,l)
);
}
);
width = 509;
},
{
layerId = master03;
shapes = (
{
closed = 1;
nodes = (
(176,-242,l),
(202,-242,l),
(202,761,l),
(176,761,l)
);
}
);
width = 378;
},
{
layerId = master04;
shapes = (
{
closed = 1;
nodes = (
(189,-218,l),
(320,-218,l),
(320,760,l),
(189,760,l)
);
}
);
width = 509;
}
);
note = "
paseq
";
unicode = 1472;
},
{
glyphname = "pashta-hb";
layers = (
{
anchors = (
{
name = _topleft;
pos = (159,528);
}
);
layerId = master01;
shapes = (
{
closed = 1;
nodes = (
(159,650,l),
(159,717,o),
(126,756,o),
(50,756,c),
(50,727,l),
(110,727,o),
(130,699,o),
(130,650,c)
);
}
);
userData = {
com.schriftgestaltung.Glyphs.originalWidth = 209;
};
width = 0;
},
{
anchors = (
{
name = _topleft;
pos = (214,553);
}
);
layerId = master02;
shapes = (
{
closed = 1;
nodes = (
(214,650,l),
(214,749,o),
(153,805,o),
(50,805,c),
(50,750,l),
(120,750,o),
(159,713,o),
(159,650,c)
);
}
);
userData = {
com.schriftgestaltung.Glyphs.originalWidth = 264;
};
width = 0;
},
{
anchors = (
{
name = _topleft;
pos = (159,528);
}
);
layerId = master03;
shapes = (
{
closed = 1;
nodes = (
(159,650,l),
(159,717,o),
(126,756,o),
(50,756,c),
(50,727,l),
(110,727,o),
(130,699,o),
(130,650,c)
);
}
);
userData = {
com.schriftgestaltung.Glyphs.originalWidth = 209;
};
width = 0;
},
{
anchors = (
{
name = _topleft;
pos = (204,553);
}
);
layerId = master04;
shapes = (
{
closed = 1;
nodes = (
(204,650,l),
(204,737,o),
(150,786,o),
(60,786,c),
(60,738,l),
(121,738,o),
(156,705,o),
(156,650,c)
);
}
);
userData = {
com.schriftgestaltung.Glyphs.originalWidth = 264;
};
width = 0;
}
);
note = "
uni0599
";
unicode = 1433;
},
{
glyphname = "patah-hb";
layers = (
{
anchors = (
{
name = _bottom;
pos = (124,0);
}
);
layerId = master01;
shapes = (
{
closed = 1;
nodes = (
(198,-107,l),
(198,-82,l),
(50,-82,l),
(50,-107,l)
);
}
);
userData = {
com.schriftgestaltung.Glyphs.originalWidth = 248;
};
width = 0;
},
{
anchors = (
{
name = _bottom;
pos = (166,0);
}
);
layerId = master02;
shapes = (
{
closed = 1;
nodes = (
(277,-136,l),
(277,-74,l),
(55,-74,l),
(55,-136,l)
);
}
);
userData = {
com.schriftgestaltung.Glyphs.originalWidth = 332;
};
width = 0;
},
{
anchors = (
{
name = _bottom;
pos = (104,0);
}
);
layerId = master03;
shapes = (
{
closed = 1;
nodes = (
(158,-107,l),
(158,-82,l),
(50,-82,l),
(50,-107,l)
);
}
);
userData = {
com.schriftgestaltung.Glyphs.originalWidth = 208;
};
width = 0;
},
{
anchors = (
{
name = _bottom;
pos = (166,0);
}
);
layerId = master04;
shapes = (
{
closed = 1;
nodes = (
(263,-127,l),
(263,-74,l),
(69,-74,l),
(69,-127,l)
);
}
);
userData = {
com.schriftgestaltung.Glyphs.originalWidth = 332;
};
width = 0;
}
);
note = "
patah
";
unicode = 1463;
},
{
glyphname = "pazer-hb";
layers = (
{
anchors = (
{
name = _top;
pos = (115,528);
}
);
layerId = master01;
shapes = (
{
closed = 1;
nodes = (
(83,620,l),
(83,653,l),
(91,649,o),
(102,646,o),
(114,646,cs),
(153,647,o),
(171,665,o),
(171,708,cs),
(171,734,l),
(146,734,l),
(146,708,ls),
(146,681,o),
(137,670,o),
(115,670,cs),
(92,670,o),
(83,681,o),
(83,708,cs),
(83,734,l),
(58,734,l),
(58,620,l)
);
}
);
userData = {
com.schriftgestaltung.Glyphs.originalWidth = 229;
};
width = 0;
},
{
anchors = (
{
name = _top;
pos = (134,553);
}
);
layerId = master02;
shapes = (
{
closed = 1;
nodes = (
(101,635,l),
(101,686,l),
(109,682,o),
(119,681,o),
(130,681,cs),
(189,681,o),
(218,718,o),
(218,778,cs),
(218,803,l),
(166,803,l),
(166,778,ls),
(166,740,o),
(155,727,o),
(123,727,cs),
(111,727,o),
(105,729,o),
(101,734,c),
(101,803,l),
(50,803,l),
(50,635,l)
);
}
);
userData = {
com.schriftgestaltung.Glyphs.originalWidth = 268;
};
width = 0;
},
{
anchors = (
{
name = _top;
pos = (107,528);
}
);
layerId = master03;
shapes = (
{
closed = 1;
nodes = (
(75,620,l),
(75,653,l),
(83,649,o),
(94,646,o),
(106,646,cs),
(145,647,o),
(163,665,o),
(163,708,cs),
(163,734,l),
(138,734,l),
(138,708,ls),
(138,681,o),
(129,670,o),
(107,670,cs),
(84,670,o),
(75,681,o),
(75,708,cs),
(75,734,l),
(50,734,l),
(50,620,l)
);
}
);
userData = {
com.schriftgestaltung.Glyphs.originalWidth = 213;
};
width = 0;
},
{
anchors = (
{
name = _top;
pos = (134,553);
}
);
layerId = master04;
shapes = (
{
closed = 1;
nodes = (
(105,635,l),
(105,680,l),
(112,676,o),
(121,675,o),
(130,675,cs),
(182,675,o),
(208,708,o),
(208,760,cs),
(208,782,l),
(162,782,l),
(162,760,ls),
(162,727,o),
(152,716,o),
(124,716,cs),
(114,716,o),
(109,717,o),
(105,722,c),
(105,782,l),
(60,782,l),
(60,635,l)
);
}
);
userData = {
com.schriftgestaltung.Glyphs.originalWidth = 268;
};
width = 0;
}
);
note = "
uni05A1
";
unicode = 1441;
},
{
glyphname = "pe-hb";
layers = (
{
anchors = (
{
name = bottom;
pos = (258,0);
},
{
name = bottomleft;
pos = (60,0);
},
{
name = center;
pos = (337,270);
},
{
name = top;
pos = (247,528);
},
{
name = topleft;
pos = (60,528);
}
);
layerId = master01;
shapes = (
{
closed = 1;
nodes = (
(236,0,ls),
(409,0,o),
(514,122,o),
(514,297,cs),
(514,482,o),
(427,594,o),
(275,594,cs),
(146,594,o),
(66,513,o),
(66,399,cs),
(66,303,o),
(111,234,o),
(208,222,cs),
(224,220,o),
(232,220,o),
(239,220,c),
(240,248,l),
(234,248,o),
(227,249,o),
(217,250,cs),
(135,258,o),
(100,320,o),
(100,399,cs),
(100,497,o),
(166,567,o),
(275,567,cs),
(406,567,o),
(480,466,o),
(480,297,cs),
(480,138,o),
(388,27,o),
(236,27,cs),
(82,27,l),
(82,0,l)
);
}
);
width = 574;
},
{
anchors = (
{
name = bottom;
pos = (312,0);
},
{
name = bottomleft;
pos = (38,0);
},
{
name = center;
pos = (344,323);
},
{
name = top;
pos = (319,553);
},
{
name = topleft;
pos = (38,553);
}
);
layerId = master02;
shapes = (
{
closed = 1;
nodes = (
(260,0,ls),
(487,0,o),
(616,113,o),
(616,310,cs),
(616,502,o),
(503,619,o),
(304,619,cs),
(119,619,o),
(30,529,o),
(30,404,cs),
(30,300,o),
(88,228,o),
(173,209,cs),
(215,200,o),
(244,197,o),
(265,201,c),
(281,337,l),
(271,337,o),
(257,341,o),
(245,347,cs),
(225,356,o),
(213,374,o),
(213,398,cs),
(213,435,o),
(236,461,o),
(304,461,cs),
(391,461,o),
(421,403,o),
(421,310,cs),
(421,213,o),
(372,158,o),
(280,158,cs),
(48,158,l),
(48,0,l)
);
}
);
width = 646;
},
{
anchors = (
{
name = bottom;
pos = (228,0);
},
{
name = bottomleft;
pos = (73,0);
},
{
name = center;
pos = (207,400);
},
{
name = top;
pos = (207,528);
},
{
name = topleft;
pos = (60,528);
}
);
layerId = master03;
shapes = (
{
closed = 1;
nodes = (
(156,0,ls),
(296,0,o),
(371,122,o),
(371,297,cs),
(371,482,o),
(314,594,o),
(195,594,cs),
(99,594,o),
(39,513,o),
(39,399,cs),
(39,303,o),
(84,235,o),
(151,222,cs),
(167,219,o),
(175,220,o),
(182,220,c),
(183,248,l),
(177,248,o),
(170,248,o),
(160,250,cs),
(108,260,o),
(73,320,o),
(73,399,cs),
(73,497,o),
(119,567,o),
(195,567,cs),
(293,567,o),
(337,466,o),
(337,297,cs),
(337,138,o),
(275,27,o),
(156,27,cs),
(62,27,l),
(62,0,l)
);
}
);
width = 410;
},
{
anchors = (
{
name = bottom;
pos = (256,0);
},
{
name = bottomleft;
pos = (54,0);
},
{
name = center;
pos = (260,397);
},
{
name = top;
pos = (271,553);
},
{
name = topleft;
pos = (54,553);
}
);
layerId = master04;
shapes = (
{
closed = 1;
nodes = (
(214,0,ls),
(423,0,o),
(529,115,o),
(529,310,cs),
(529,504,o),
(428,619,o),
(257,619,cs),
(110,619,o),
(23,539,o),
(23,404,cs),
(23,302,o),
(76,230,o),
(166,209,cs),
(201,201,o),
(231,198,o),
(248,201,c),
(264,337,l),
(251,337,o),
(238,341,o),
(230,349,cs),
(215,361,o),
(206,379,o),
(206,398,cs),
(206,438,o),
(225,461,o),
(257,461,cs),
(305,461,o),
(334,405,o),
(334,310,cs),
(334,214,o),
(308,158,o),
(234,158,cs),
(51,158,l),
(51,0,l)
);
}
);
width = 552;
}
);
unicode = 1508;
},
{
glyphname = "qadma-hb";
layers = (
{
anchors = (
{
name = _topleft;
pos = (145,528);
}
);
layerId = master01;
shapes = (
{
closed = 1;
nodes = (
(159,650,l),
(159,717,o),
(126,756,o),
(50,756,c),
(50,727,l),
(110,727,o),
(130,699,o),
(130,650,c)
);
}
);
userData = {
com.schriftgestaltung.Glyphs.originalWidth = 209;
};
width = 0;
},
{
anchors = (
{
name = _topleft;
pos = (187,553);
}
);
layerId = master02;
shapes = (
{
closed = 1;
nodes = (
(214,636,l),
(214,735,o),
(153,791,o),
(50,791,c),
(50,736,l),
(120,736,o),
(159,699,o),
(159,636,c)
);
}
);
userData = {
com.schriftgestaltung.Glyphs.originalWidth = 264;
};
width = 0;
},
{
anchors = (
{
name = _topleft;
pos = (145,528);
}
);
layerId = master03;
shapes = (
{
closed = 1;
nodes = (
(159,650,l),
(159,717,o),
(126,756,o),
(50,756,c),
(50,727,l),
(110,727,o),
(130,699,o),
(130,650,c)
);
}
);
userData = {
com.schriftgestaltung.Glyphs.originalWidth = 209;
};
width = 0;
},
{
anchors = (
{
name = _topleft;
pos = (180,553);
}
);
layerId = master04;
shapes = (
{
closed = 1;
nodes = (
(204,636,l),
(204,723,o),
(150,772,o),
(60,772,c),
(60,724,l),
(121,724,o),
(156,691,o),
(156,636,c)
);
}
);
userData = {
com.schriftgestaltung.Glyphs.originalWidth = 264;
};
width = 0;
}
);
note = "
uni05A8
";
unicode = 1448;
},
{
glyphname = "qamats-hb";
layers = (
{
anchors = (
{
name = _bottom;
pos = (125,0);
}
);
layerId = master01;
shapes = (
{
closed = 1;
nodes = (
(137,-198,l),
(137,-107,l),
(199,-107,l),
(199,-82,l),
(50,-82,l),
(50,-107,l),
(112,-107,l),
(112,-198,l)
);
}
);
userData = {
com.schriftgestaltung.Glyphs.originalWidth = 249;
};
width = 0;
},
{
anchors = (
{
name = _bottom;
pos = (166,0);
}
);
layerId = master02;
shapes = (
{
closed = 1;
nodes = (
(196,-240,l),
(196,-136,l),
(277,-136,l),
(277,-74,l),
(55,-74,l),
(55,-136,l),
(135,-136,l),
(135,-240,l)
);
}
);
userData = {
com.schriftgestaltung.Glyphs.originalWidth = 332;
};
width = 0;
},
{
anchors = (
{
name = _bottom;
pos = (105,0);
}
);
layerId = master03;
shapes = (
{
closed = 1;
nodes = (
(117,-198,l),
(117,-107,l),
(159,-107,l),
(159,-82,l),
(50,-82,l),
(50,-107,l),
(92,-107,l),
(92,-198,l)
);
}
);
userData = {
com.schriftgestaltung.Glyphs.originalWidth = 209;
};
width = 0;
},
{
anchors = (
{
name = _bottom;
pos = (166,0);
}
);
layerId = master04;
shapes = (
{
closed = 1;
nodes = (
(192,-218,l),
(192,-127,l),
(263,-127,l),
(263,-74,l),
(69,-74,l),
(69,-127,l),
(139,-127,l),
(139,-218,l)
);
}
);
userData = {
com.schriftgestaltung.Glyphs.originalWidth = 332;
};
width = 0;
}
);
note = "
qamats
";
unicode = 1464;
},
{
glyphname = "qamatsqatan-hb";
layers = (
{
anchors = (
{
name = _bottom;
pos = (97,0);
}
);
layerId = master01;
shapes = (
{
closed = 1;
nodes = (
(108,-161,l),
(108,-107,l),
(141,-107,l),
(141,-82,l),
(50,-82,l),
(50,-107,l),
(83,-107,l),
(83,-161,l)
);
}
);
userData = {
com.schriftgestaltung.Glyphs.originalWidth = 191;
};
width = 0;
},
{
anchors = (
{
name = _bottom;
pos = (146,0);
}
);
layerId = master02;
shapes = (
{
closed = 1;
nodes = (
(176,-210,l),
(176,-136,l),
(237,-136,l),
(237,-74,l),
(55,-74,l),
(55,-136,l),
(115,-136,l),
(115,-210,l)
);
}
);
userData = {
com.schriftgestaltung.Glyphs.originalWidth = 292;
};
width = 0;
},
{
anchors = (
{
name = _bottom;
pos = (97,0);
}
);
layerId = master03;
shapes = (
{
closed = 1;
nodes = (
(108,-161,l),
(108,-107,l),
(141,-107,l),
(141,-82,l),
(50,-82,l),
(50,-107,l),
(83,-107,l),
(83,-161,l)
);
}
);
userData = {
com.schriftgestaltung.Glyphs.originalWidth = 191;
};
width = 0;
},
{
anchors = (
{
name = _bottom;
pos = (146,0);
}
);
layerId = master04;
shapes = (
{
closed = 1;
nodes = (
(172,-192,l),
(172,-127,l),
(225,-127,l),
(225,-74,l),
(67,-74,l),
(67,-127,l),
(119,-127,l),
(119,-192,l)
);
}
);
userData = {
com.schriftgestaltung.Glyphs.originalWidth = 292;
};
width = 0;
}
);
note = "
qamatsqatan
";
unicode = 1479;
},
{
glyphname = "qarneypara-hb";
layers = (
{
anchors = (
{
name = _top;
pos = (196,528);
}
);
layerId = master01;
shapes = (
{
closed = 1;
nodes = (
(256,673,l),
(264,669,o),
(274,667,o),
(284,667,cs),
(317,667,o),
(342,693,o),
(342,725,cs),
(342,757,o),
(316,782,o),
(284,782,cs),
(252,782,o),
(226,757,o),
(226,725,cs),
(226,714,o),
(229,704,o),
(234,696,c),
(210,672,l),
(232,650,l)
);
},
{
closed = 1;
nodes = (
(182,672,l),
(158,696,l),
(163,704,o),
(166,714,o),
(166,725,cs),
(166,757,o),
(140,782,o),
(108,782,cs),
(76,782,o),
(50,757,o),
(50,725,cs),
(50,693,o),
(75,667,o),
(108,667,cs),
(118,667,o),
(128,669,o),
(136,673,c),
(160,650,l)
);
},
{
closed = 1;
nodes = (
(90,692,o),
(75,707,o),
(75,725,cs),
(75,742,o),
(91,758,o),
(109,758,cs),
(126,758,o),
(141,743,o),
(141,725,cs),
(141,706,o),
(126,692,o),
(109,692,cs)
);
},
{
closed = 1;
nodes = (
(266,692,o),
(251,706,o),
(251,725,cs),
(251,743,o),
(266,758,o),
(283,758,cs),
(301,758,o),
(317,742,o),
(317,725,cs),
(317,707,o),
(302,692,o),
(283,692,cs)
);
}
);
userData = {
com.schriftgestaltung.Glyphs.originalWidth = 392;
};
width = 0;
},
{
anchors = (
{
name = _top;
pos = (300,553);
}
);
layerId = master02;
shapes = (
{
closed = 1;
nodes = (
(396,670,l),
(411,663,o),
(428,659,o),
(446,659,cs),
(505,659,o),
(550,705,o),
(550,762,cs),
(550,820,o),
(503,864,o),
(446,864,cs),
(389,864,o),
(343,819,o),
(343,762,cs),
(343,743,o),
(348,725,o),
(357,711,c),
(314,668,l),
(354,629,l)
);
},
{
closed = 1;
nodes = (
(286,668,l),
(243,711,l),
(252,725,o),
(257,743,o),
(257,762,cs),
(257,819,o),
(211,864,o),
(154,864,cs),
(97,864,o),
(50,819,o),
(50,762,cs),
(50,705,o),
(95,659,o),
(154,659,cs),
(172,659,o),
(189,663,o),
(204,670,c),
(246,629,l)
);
},
{
closed = 1;
nodes = (
(126,710,o),
(102,734,o),
(102,762,cs),
(102,789,o),
(127,813,o),
(155,813,cs),
(181,813,o),
(205,790,o),
(205,762,cs),
(205,733,o),
(182,710,o),
(155,710,cs)
);
},
{
closed = 1;
nodes = (
(418,710,o),
(395,733,o),
(395,762,cs),
(395,790,o),
(419,813,o),
(445,813,cs),
(473,813,o),
(498,789,o),
(498,762,cs),
(498,734,o),
(474,710,o),
(445,710,cs)
);
}
);
userData = {
com.schriftgestaltung.Glyphs.originalWidth = 600;
};
width = 0;
},
{
anchors = (
{
name = _top;
pos = (191,528);
}
);
layerId = master03;
shapes = (
{
closed = 1;
nodes = (
(246,673,l),
(254,669,o),
(264,667,o),
(274,667,cs),
(307,667,o),
(332,693,o),
(332,725,cs),
(332,757,o),
(306,782,o),
(274,782,cs),
(242,782,o),
(216,757,o),
(216,725,cs),
(216,714,o),
(219,704,o),
(224,696,c),
(200,672,l),
(222,650,l)
);
},
{
closed = 1;
nodes = (
(182,672,l),
(158,696,l),
(163,704,o),
(166,714,o),
(166,725,cs),
(166,757,o),
(140,782,o),
(108,782,cs),
(76,782,o),
(50,757,o),
(50,725,cs),
(50,693,o),
(75,667,o),
(108,667,cs),
(118,667,o),
(128,669,o),
(136,673,c),
(160,650,l)
);
},
{
closed = 1;
nodes = (
(90,692,o),
(75,707,o),
(75,725,cs),
(75,742,o),
(91,758,o),
(109,758,cs),
(126,758,o),
(141,743,o),
(141,725,cs),
(141,706,o),
(126,692,o),
(109,692,cs)
);
},
{
closed = 1;
nodes = (
(256,692,o),
(241,706,o),
(241,725,cs),
(241,743,o),
(256,758,o),
(273,758,cs),
(291,758,o),
(307,742,o),
(307,725,cs),
(307,707,o),
(292,692,o),
(273,692,cs)
);
}
);
userData = {
com.schriftgestaltung.Glyphs.originalWidth = 382;
};
width = 0;
},
{
anchors = (
{
name = _top;
pos = (300,553);
}
);
layerId = master04;
shapes = (
{
closed = 1;
nodes = (
(384,665,l),
(397,659,o),
(412,655,o),
(428,655,cs),
(480,655,o),
(519,696,o),
(519,746,cs),
(519,797,o),
(478,835,o),
(428,835,cs),
(378,835,o),
(338,796,o),
(338,746,cs),
(338,729,o),
(342,713,o),
(350,701,c),
(312,663,l),
(347,629,l)
);
},
{
closed = 1;
nodes = (
(288,663,l),
(250,701,l),
(258,713,o),
(262,729,o),
(262,746,cs),
(262,796,o),
(222,835,o),
(172,835,cs),
(122,835,o),
(81,796,o),
(81,746,cs),
(81,696,o),
(120,655,o),
(172,655,cs),
(188,655,o),
(203,659,o),
(216,665,c),
(253,629,l)
);
},
{
closed = 1;
nodes = (
(147,700,o),
(126,721,o),
(126,746,cs),
(126,769,o),
(148,790,o),
(173,790,cs),
(196,790,o),
(217,770,o),
(217,746,cs),
(217,720,o),
(196,700,o),
(173,700,cs)
);
},
{
closed = 1;
nodes = (
(404,700,o),
(383,720,o),
(383,746,cs),
(383,770,o),
(404,790,o),
(427,790,cs),
(452,790,o),
(474,769,o),
(474,746,cs),
(474,721,o),
(453,700,o),
(427,700,cs)
);
}
);
userData = {
com.schriftgestaltung.Glyphs.originalWidth = 600;
};
width = 0;
}
);
note = "
uni059F
";
unicode = 1439;
},
{
glyphname = "qof-hb";
layers = (
{
anchors = (
{
name = bottom;
pos = (353,0);
},
{
name = bottomleft;
pos = (30,0);
},
{
name = center;
pos = (260,296);
},
{
name = top;
pos = (296,528);
},
{
name = topleft;
pos = (70,528);
}
);
layerId = master01;
shapes = (
{
closed = 1;
nodes = (
(370,0,l),
(550,557,l),
(558,584,l),
(87,584,l),
(82,557,l),
(518,557,l),
(338,0,l)
);
},
{
closed = 1;
nodes = (
(149,-195,l),
(149,400,l),
(117,395,l),
(117,-198,l)
);
}
);
width = 600;
},
{
anchors = (
{
name = bottom;
pos = (405,0);
},
{
name = bottomleft;
pos = (-39,0);
},
{
name = center;
pos = (318,326);
},
{
name = top;
pos = (334,553);
},
{
name = topleft;
pos = (25,553);
}
);
layerId = master02;
shapes = (
{
closed = 1;
nodes = (
(503,0,l),
(642,498,l),
(652,609,l),
(55,609,l),
(35,453,l),
(437,453,l),
(311,0,l)
);
},
{
closed = 1;
nodes = (
(247,-170,l),
(247,346,l),
(55,336,l),
(55,-180,l)
);
}
);
width = 672;
},
{
anchors = (
{
name = bottom;
pos = (233,0);
},
{
name = bottomleft;
pos = (37,0);
},
{
name = center;
pos = (200,296);
},
{
name = top;
pos = (236,528);
},
{
name = topleft;
pos = (77,528);
}
);
layerId = master03;
shapes = (
{
closed = 1;
nodes = (
(257,0,l),
(397,557,l),
(403,584,l),
(54,584,l),
(49,557,l),
(365,557,l),
(225,0,l)
);
},
{
closed = 1;
nodes = (
(106,-195,l),
(106,400,l),
(74,395,l),
(74,-198,l)
);
}
);
width = 437;
},
{
anchors = (
{
name = bottom;
pos = (398,0);
},
{
name = bottomleft;
pos = (4,0);
},
{
name = center;
pos = (277,316);
},
{
name = top;
pos = (298,553);
},
{
name = topleft;
pos = (57,553);
}
);
layerId = master04;
shapes = (
{
closed = 1;
nodes = (
(456,0,l),
(545,498,l),
(563,609,l),
(48,609,l),
(28,453,l),
(350,453,l),
(274,0,l)
);
},
{
closed = 1;
nodes = (
(230,-170,l),
(230,366,l),
(38,356,l),
(38,-180,l)
);
}
);
width = 576;
}
);
unicode = 1511;
},
{
glyphname = "qubuts-hb";
layers = (
{
anchors = (
{
name = _bottom;
pos = (130,0);
}
);
layerId = master01;
shapes = (
{
closed = 1;
nodes = (
(84,-116,o),
(94,-106,o),
(94,-93,cs),
(94,-81,o),
(84,-71,o),
(72,-71,cs),
(59,-71,o),
(49,-81,o),
(49,-93,cs),
(49,-106,o),
(59,-116,o),
(72,-116,cs)
);
},
{
closed = 1;
nodes = (
(142,-162,o),
(152,-152,o),
(152,-139,cs),
(152,-127,o),
(142,-117,o),
(130,-117,cs),
(117,-117,o),
(107,-127,o),
(107,-139,cs),
(107,-152,o),
(117,-162,o),
(130,-162,cs)
);
},
{
closed = 1;
nodes = (
(200,-206,o),
(210,-196,o),
(210,-183,cs),
(210,-171,o),
(200,-161,o),
(188,-161,cs),
(175,-161,o),
(165,-171,o),
(165,-183,cs),
(165,-196,o),
(175,-206,o),
(188,-206,cs)
);
}
);
userData = {
com.schriftgestaltung.Glyphs.originalWidth = 260;
};
width = 0;
},
{
anchors = (
{
name = _bottom;
pos = (208,0);
}
);
layerId = master02;
shapes = (
{
closed = 1;
nodes = (
(121,-142,o),
(138,-125,o),
(138,-105,cs),
(138,-85,o),
(121,-68,o),
(101,-68,cs),
(81,-68,o),
(64,-85,o),
(64,-105,cs),
(64,-125,o),
(81,-142,o),
(101,-142,cs)
);
},
{
closed = 1;
nodes = (
(228,-194,o),
(245,-177,o),
(245,-157,cs),
(245,-137,o),
(228,-120,o),
(208,-120,cs),
(188,-120,o),
(171,-137,o),
(171,-157,cs),
(171,-177,o),
(188,-194,o),
(208,-194,cs)
);
},
{
closed = 1;
nodes = (
(335,-247,o),
(352,-230,o),
(352,-210,cs),
(352,-190,o),
(335,-173,o),
(315,-173,cs),
(295,-173,o),
(278,-190,o),
(278,-210,cs),
(278,-230,o),
(295,-247,o),
(315,-247,cs)
);
}
);
userData = {
com.schriftgestaltung.Glyphs.originalWidth = 416;
};
width = 0;
},
{
anchors = (
{
name = _bottom;
pos = (125,0);
}
);
layerId = master03;
shapes = (
{
closed = 1;
nodes = (
(84,-116,o),
(94,-106,o),
(94,-93,cs),
(94,-81,o),
(84,-71,o),
(72,-71,cs),
(59,-71,o),
(49,-81,o),
(49,-93,cs),
(49,-106,o),
(59,-116,o),
(72,-116,cs)
);
},
{
closed = 1;
nodes = (
(142,-162,o),
(152,-152,o),
(152,-139,cs),
(152,-127,o),
(142,-117,o),
(130,-117,cs),
(117,-117,o),
(107,-127,o),
(107,-139,cs),
(107,-152,o),
(117,-162,o),
(130,-162,cs)
);
},
{
closed = 1;
nodes = (
(200,-206,o),
(210,-196,o),
(210,-183,cs),
(210,-171,o),
(200,-161,o),
(188,-161,cs),
(175,-161,o),
(165,-171,o),
(165,-183,cs),
(165,-196,o),
(175,-206,o),
(188,-206,cs)
);
}
);
userData = {
com.schriftgestaltung.Glyphs.originalWidth = 250;
};
width = 0;
},
{
anchors = (
{
name = _bottom;
pos = (208,0);
}
);
layerId = master04;
shapes = (
{
closed = 1;
nodes = (
(121,-142,o),
(138,-125,o),
(138,-105,cs),
(138,-85,o),
(121,-68,o),
(101,-68,cs),
(81,-68,o),
(64,-85,o),
(64,-105,cs),
(64,-125,o),
(81,-142,o),
(101,-142,cs)
);
},
{
closed = 1;
nodes = (
(228,-194,o),
(245,-177,o),
(245,-157,cs),
(245,-137,o),
(228,-120,o),
(208,-120,cs),
(188,-120,o),
(171,-137,o),
(171,-157,cs),
(171,-177,o),
(188,-194,o),
(208,-194,cs)
);
},
{
closed = 1;
nodes = (
(335,-247,o),
(352,-230,o),
(352,-210,cs),
(352,-190,o),
(335,-173,o),
(315,-173,cs),
(295,-173,o),
(278,-190,o),
(278,-210,cs),
(278,-230,o),
(295,-247,o),
(315,-247,cs)
);
}
);
userData = {
com.schriftgestaltung.Glyphs.originalWidth = 416;
};
width = 0;
}
);
note = "
qubuts
";
unicode = 1467;
},
{
glyphname = "rafe-hb";
layers = (
{
anchors = (
{
name = _top;
pos = (132,528);
}
);
layerId = master01;
shapes = (
{
closed = 1;
nodes = (
(214,667,l),
(214,692,l),
(50,692,l),
(50,667,l)
);
}
);
userData = {
com.schriftgestaltung.Glyphs.originalWidth = 264;
};
width = 0;
},
{
anchors = (
{
name = _top;
pos = (181,553);
}
);
layerId = master02;
shapes = (
{
closed = 1;
nodes = (
(307,684,l),
(307,746,l),
(55,746,l),
(55,684,l)
);
}
);
userData = {
com.schriftgestaltung.Glyphs.originalWidth = 362;
};
width = 0;
},
{
anchors = (
{
name = _top;
pos = (112,528);
}
);
layerId = master03;
shapes = (
{
closed = 1;
nodes = (
(174,667,l),
(174,692,l),
(50,692,l),
(50,667,l)
);
}
);
userData = {
com.schriftgestaltung.Glyphs.originalWidth = 224;
};
width = 0;
},
{
anchors = (
{
name = _top;
pos = (181,553);
}
);
layerId = master04;
shapes = (
{
closed = 1;
nodes = (
(291,684,l),
(291,737,l),
(71,737,l),
(71,684,l)
);
}
);
userData = {
com.schriftgestaltung.Glyphs.originalWidth = 362;
};
width = 0;
}
);
note = "
rafe
";
unicode = 1471;
},
{
glyphname = "resh-hb";
layers = (
{
anchors = (
{
name = bottom;
pos = (402,0);
},
{
name = bottomleft;
pos = (196,0);
},
{
name = center;
pos = (196,296);
},
{
name = top;
pos = (186,528);
},
{
name = topleft;
pos = (3,528);
}
);
layerId = master01;
shapes = (
{
closed = 1;
nodes = (
(418,0,l),
(418,419,ls),
(418,527,o),
(361,584,o),
(255,584,cs),
(48,584,l),
(43,557,l),
(250,557,ls),
(343,557,o),
(386,511,o),
(386,416,cs),
(386,0,l)
);
}
);
width = 505;
},
{
anchors = (
{
name = bottom;
pos = (403,0);
},
{
name = bottomleft;
pos = (152,0);
},
{
name = center;
pos = (152,306);
},
{
name = top;
pos = (225,553);
},
{
name = topleft;
pos = (-50,553);
}
);
layerId = master02;
shapes = (
{
closed = 1;
nodes = (
(499,0,l),
(499,382,ls),
(499,533,o),
(414,609,o),
(247,609,cs),
(55,609,l),
(35,451,l),
(238,451,ls),
(281,451,o),
(307,427,o),
(307,379,cs),
(307,0,l)
);
}
);
width = 554;
},
{
anchors = (
{
name = bottom;
pos = (264,0);
},
{
name = bottomleft;
pos = (69,0);
},
{
name = center;
pos = (119,296);
},
{
name = top;
pos = (137,528);
},
{
name = topleft;
pos = (27,528);
}
);
layerId = master03;
shapes = (
{
closed = 1;
nodes = (
(280,0,l),
(280,419,ls),
(280,527,o),
(243,584,o),
(137,584,cs),
(29,584,l),
(24,557,l),
(132,557,ls),
(225,557,o),
(248,511,o),
(248,416,cs),
(248,0,l)
);
}
);
width = 339;
},
{
anchors = (
{
name = bottom;
pos = (314,0);
},
{
name = bottomleft;
pos = (188,0);
},
{
name = center;
pos = (125,306);
},
{
name = top;
pos = (210,553);
},
{
name = topleft;
pos = (19,553);
}
);
layerId = master04;
shapes = (
{
closed = 1;
nodes = (
(412,0,l),
(412,382,ls),
(412,533,o),
(347,609,o),
(180,609,cs),
(38,609,l),
(18,451,l),
(171,451,ls),
(214,451,o),
(220,427,o),
(220,379,cs),
(220,0,l)
);
}
);
width = 450;
}
);
unicode = 1512;
},
{
glyphname = "reviamugrash-hb";
layers = (
{
anchors = (
{
name = _topleft;
pos = (115,528);
}
);
layerId = master01;
shapes = (
{
closed = 1;
nodes = (
(131,692,l),
(93,735,l),
(55,692,l),
(93,650,l)
);
}
);
userData = {
com.schriftgestaltung.Glyphs.originalWidth = 186;
};
width = 0;
},
{
anchors = (
{
name = _topleft;
pos = (197,553);
}
);
layerId = master02;
shapes = (
{
closed = 1;
nodes = (
(204,735,l),
(127,820,l),
(50,735,l),
(127,650,l)
);
}
);
userData = {
com.schriftgestaltung.Glyphs.originalWidth = 254;
};
width = 0;
},
{
anchors = (
{
name = _topleft;
pos = (110,528);
}
);
layerId = master03;
shapes = (
{
closed = 1;
nodes = (
(126,692,l),
(88,735,l),
(50,692,l),
(88,650,l)
);
}
);
userData = {
com.schriftgestaltung.Glyphs.originalWidth = 176;
};
width = 0;
},
{
anchors = (
{
name = _topleft;
pos = (188,553);
}
);
layerId = master04;
shapes = (
{
closed = 1;
nodes = (
(195,725,l),
(127,799,l),
(59,725,l),
(127,650,l)
);
}
);
userData = {
com.schriftgestaltung.Glyphs.originalWidth = 254;
};
width = 0;
}
);
note = "
uni0597
";
unicode = 1431;
},
{
glyphname = "samekh-hb";
layers = (
{
anchors = (
{
name = bottom;
pos = (311,0);
},
{
name = bottomleft;
pos = (67,0);
},
{
name = center;
pos = (310,296);
},
{
name = top;
pos = (315,528);
},
{
name = topleft;
pos = (23,528);
}
);
layerId = master01;
shapes = (
{
closed = 1;
nodes = (
(472,-10,o),
(547,107,o),
(547,331,cs),
(547,497,o),
(489,584,o),
(359,584,cs),
(55,584,l),
(50,557,l),
(355,557,ls),
(467,557,o),
(515,478,o),
(515,328,cs),
(515,122,o),
(451,15,o),
(310,15,cs),
(180,15,o),
(122,104,o),
(122,295,cs),
(122,386,o),
(147,481,o),
(182,552,c),
(199,572,l),
(153,562,l),
(153,552,l),
(118,487,o),
(90,397,o),
(90,308,c),
(90,295,ls),
(90,88,o),
(159,-10,o),
(310,-10,cs)
);
}
);
width = 607;
},
{
anchors = (
{
name = bottom;
pos = (361,0);
},
{
name = bottomleft;
pos = (35,0);
},
{
name = center;
pos = (362,306);
},
{
name = top;
pos = (362,553);
},
{
name = topleft;
pos = (-9,553);
}
);
layerId = master02;
shapes = (
{
closed = 1;
nodes = (
(565,-9,o),
(669,113,o),
(669,320,cs),
(669,502,o),
(578,609,o),
(379,609,cs),
(55,609,l),
(35,451,l),
(379,451,ls),
(458,451,o),
(478,403,o),
(478,322,cs),
(478,210,o),
(445,144,o),
(363,144,cs),
(279,144,o),
(246,207,o),
(246,314,cs),
(246,400,o),
(260,451,o),
(305,451,c),
(305,461,l),
(149,460,l),
(149,445,l),
(94,428,o),
(55,363,o),
(55,268,c),
(55,260,ls),
(55,92,o),
(159,-9,o),
(363,-9,cs)
);
}
);
width = 704;
},
{
anchors = (
{
name = bottom;
pos = (207,0);
},
{
name = bottomleft;
pos = (79,0);
},
{
name = center;
pos = (203,296);
},
{
name = top;
pos = (200,527);
},
{
name = topleft;
pos = (35,527);
}
);
layerId = master03;
shapes = (
{
closed = 1;
nodes = (
(314,-10,o),
(366,97,o),
(366,331,cs),
(366,504,o),
(319,584,o),
(218,584,cs),
(44,584,l),
(39,557,l),
(214,557,ls),
(296,557,o),
(334,485,o),
(334,328,cs),
(334,113,o),
(292,15,o),
(199,15,cs),
(118,15,o),
(81,103,o),
(81,295,cs),
(81,403,o),
(97,483,o),
(131,552,c),
(148,572,l),
(102,562,l),
(102,552,l),
(66,485,o),
(49,408,o),
(49,308,c),
(49,295,ls),
(49,86,o),
(96,-10,o),
(199,-10,cs)
);
}
);
width = 405;
},
{
anchors = (
{
name = bottom;
pos = (302,0);
},
{
name = bottomleft;
pos = (77,0);
},
{
name = center;
pos = (298,306);
},
{
name = top;
pos = (302,553);
},
{
name = topleft;
pos = (33,553);
}
);
layerId = master04;
shapes = (
{
closed = 1;
nodes = (
(467,-9,o),
(566,113,o),
(566,320,cs),
(566,502,o),
(473,609,o),
(314,609,cs),
(48,609,l),
(28,451,l),
(324,451,ls),
(358,451,o),
(377,403,o),
(377,322,cs),
(377,210,o),
(348,144,o),
(298,144,cs),
(253,144,o),
(227,207,o),
(227,314,cs),
(227,400,o),
(246,451,o),
(278,451,c),
(278,461,l),
(132,460,l),
(132,445,l),
(73,427,o),
(38,361,o),
(38,268,c),
(38,260,ls),
(38,91,o),
(134,-9,o),
(298,-9,cs)
);
}
);
width = 594;
}
);
unicode = 1505;
},
{
glyphname = "segol-hb";
layers = (
{
anchors = (
{
name = _bottom;
pos = (120,0);
}
);
layerId = master01;
shapes = (
{
closed = 1;
nodes = (
(84,-116,o),
(94,-106,o),
(94,-93,cs),
(94,-81,o),
(84,-71,o),
(72,-71,cs),
(59,-71,o),
(49,-81,o),
(49,-93,cs),
(49,-106,o),
(59,-116,o),
(72,-116,cs)
);
},
{
closed = 1;
nodes = (
(180,-116,o),
(190,-106,o),
(190,-93,cs),
(190,-81,o),
(180,-71,o),
(168,-71,cs),
(155,-71,o),
(145,-81,o),
(145,-93,cs),
(145,-106,o),
(155,-116,o),
(168,-116,cs)
);
},
{
closed = 1;
nodes = (
(131,-206,o),
(141,-196,o),
(141,-183,cs),
(141,-171,o),
(131,-161,o),
(119,-161,cs),
(106,-161,o),
(96,-171,o),
(96,-183,cs),
(96,-196,o),
(106,-206,o),
(119,-206,cs)
);
}
);
userData = {
com.schriftgestaltung.Glyphs.originalWidth = 239;
};
width = 0;
},
{
anchors = (
{
name = _bottom;
pos = (166,0);
}
);
layerId = master02;
shapes = (
{
closed = 1;
nodes = (
(121,-142,o),
(138,-125,o),
(138,-105,cs),
(138,-85,o),
(121,-68,o),
(101,-68,cs),
(81,-68,o),
(64,-85,o),
(64,-105,cs),
(64,-125,o),
(81,-142,o),
(101,-142,cs)
);
},
{
closed = 1;
nodes = (
(250,-142,o),
(267,-125,o),
(267,-105,cs),
(267,-85,o),
(250,-68,o),
(230,-68,cs),
(210,-68,o),
(193,-85,o),
(193,-105,cs),
(193,-125,o),
(210,-142,o),
(230,-142,cs)
);
},
{
closed = 1;
nodes = (
(185,-247,o),
(202,-230,o),
(202,-210,cs),
(202,-190,o),
(185,-173,o),
(165,-173,cs),
(145,-173,o),
(128,-190,o),
(128,-210,cs),
(128,-230,o),
(145,-247,o),
(165,-247,cs)
);
}
);
userData = {
com.schriftgestaltung.Glyphs.originalWidth = 331;
};
width = 0;
},
{
anchors = (
{
name = _bottom;
pos = (110,0);
}
);
layerId = master03;
shapes = (
{
closed = 1;
nodes = (
(94,-116,o),
(104,-106,o),
(104,-93,cs),
(104,-81,o),
(94,-71,o),
(82,-71,cs),
(69,-71,o),
(59,-81,o),
(59,-93,cs),
(59,-106,o),
(69,-116,o),
(82,-116,cs)
);
},
{
closed = 1;
nodes = (
(170,-116,o),
(180,-106,o),
(180,-93,cs),
(180,-81,o),
(170,-71,o),
(158,-71,cs),
(145,-71,o),
(135,-81,o),
(135,-93,cs),
(135,-106,o),
(145,-116,o),
(158,-116,cs)
);
},
{
closed = 1;
nodes = (
(131,-206,o),
(141,-196,o),
(141,-183,cs),
(141,-171,o),
(131,-161,o),
(119,-161,cs),
(106,-161,o),
(96,-171,o),
(96,-183,cs),
(96,-196,o),
(106,-206,o),
(119,-206,cs)
);
}
);
userData = {
com.schriftgestaltung.Glyphs.originalWidth = 219;
};
width = 0;
},
{
anchors = (
{
name = _bottom;
pos = (166,0);
}
);
layerId = master04;
shapes = (
{
closed = 1;
nodes = (
(121,-142,o),
(138,-125,o),
(138,-105,cs),
(138,-85,o),
(121,-68,o),
(101,-68,cs),
(81,-68,o),
(64,-85,o),
(64,-105,cs),
(64,-125,o),
(81,-142,o),
(101,-142,cs)
);
},
{
closed = 1;
nodes = (
(250,-142,o),
(267,-125,o),
(267,-105,cs),
(267,-85,o),
(250,-68,o),
(230,-68,cs),
(210,-68,o),
(193,-85,o),
(193,-105,cs),
(193,-125,o),
(210,-142,o),
(230,-142,cs)
);
},
{
closed = 1;
nodes = (
(185,-247,o),
(202,-230,o),
(202,-210,cs),
(202,-190,o),
(185,-173,o),
(165,-173,cs),
(145,-173,o),
(128,-190,o),
(128,-210,cs),
(128,-230,o),
(145,-247,o),
(165,-247,cs)
);
}
);
userData = {
com.schriftgestaltung.Glyphs.originalWidth = 331;
};
width = 0;
}
);
note = "
segol
";
unicode = 1462;
},
{
glyphname = "segolta-hb";
layers = (
{
anchors = (
{
name = _topleft;
pos = (120,528);
}
);
layerId = master01;
shapes = (
{
closed = 1;
nodes = (
(132,744,o),
(142,754,o),
(142,767,cs),
(142,779,o),
(132,789,o),
(120,789,cs),
(107,789,o),
(97,779,o),
(97,767,cs),
(97,754,o),
(107,744,o),
(120,744,cs)
);
},
{
closed = 1;
nodes = (
(85,655,o),
(95,665,o),
(95,678,cs),
(95,690,o),
(85,700,o),
(73,700,cs),
(60,700,o),
(50,690,o),
(50,678,cs),
(50,665,o),
(60,655,o),
(73,655,cs)
);
},
{
closed = 1;
nodes = (
(180,655,o),
(190,665,o),
(190,678,cs),
(190,690,o),
(180,700,o),
(168,700,cs),
(155,700,o),
(145,690,o),
(145,678,cs),
(145,665,o),
(155,655,o),
(168,655,cs)
);
}
);
userData = {
com.schriftgestaltung.Glyphs.originalWidth = 239;
};
width = 0;
},
{
anchors = (
{
name = _topleft;
pos = (230,553);
}
);
layerId = master02;
shapes = (
{
closed = 1;
nodes = (
(188,778,o),
(207,797,o),
(207,820,cs),
(207,843,o),
(188,862,o),
(165,862,cs),
(142,862,o),
(123,843,o),
(123,820,cs),
(123,797,o),
(142,778,o),
(165,778,cs)
);
},
{
closed = 1;
nodes = (
(123,672,o),
(142,691,o),
(142,714,cs),
(142,737,o),
(123,756,o),
(100,756,cs),
(77,756,o),
(58,737,o),
(58,714,cs),
(58,691,o),
(77,672,o),
(100,672,cs)
);
},
{
closed = 1;
nodes = (
(254,672,o),
(273,691,o),
(273,714,cs),
(273,737,o),
(254,756,o),
(231,756,cs),
(208,756,o),
(189,737,o),
(189,714,cs),
(189,691,o),
(208,672,o),
(231,672,cs)
);
}
);
userData = {
com.schriftgestaltung.Glyphs.originalWidth = 331;
};
width = 0;
},
{
anchors = (
{
name = _topleft;
pos = (110,528);
}
);
layerId = master03;
shapes = (
{
closed = 1;
nodes = (
(122,744,o),
(132,754,o),
(132,767,cs),
(132,779,o),
(122,789,o),
(110,789,cs),
(97,789,o),
(87,779,o),
(87,767,cs),
(87,754,o),
(97,744,o),
(110,744,cs)
);
},
{
closed = 1;
nodes = (
(85,655,o),
(95,665,o),
(95,678,cs),
(95,690,o),
(85,700,o),
(73,700,cs),
(60,700,o),
(50,690,o),
(50,678,cs),
(50,665,o),
(60,655,o),
(73,655,cs)
);
},
{
closed = 1;
nodes = (
(160,655,o),
(170,665,o),
(170,678,cs),
(170,690,o),
(160,700,o),
(148,700,cs),
(135,700,o),
(125,690,o),
(125,678,cs),
(125,665,o),
(135,655,o),
(148,655,cs)
);
}
);
userData = {
com.schriftgestaltung.Glyphs.originalWidth = 219;
};
width = 0;
},
{
anchors = (
{
name = _topleft;
pos = (222,553);
}
);
layerId = master04;
shapes = (
{
closed = 1;
nodes = (
(188,778,o),
(207,797,o),
(207,820,cs),
(207,843,o),
(188,862,o),
(165,862,cs),
(142,862,o),
(123,843,o),
(123,820,cs),
(123,797,o),
(142,778,o),
(165,778,cs)
);
},
{
closed = 1;
nodes = (
(123,672,o),
(142,691,o),
(142,714,cs),
(142,737,o),
(123,756,o),
(100,756,cs),
(77,756,o),
(58,737,o),
(58,714,cs),
(58,691,o),
(77,672,o),
(100,672,cs)
);
},
{
closed = 1;
nodes = (
(254,672,o),
(273,691,o),
(273,714,cs),
(273,737,o),
(254,756,o),
(231,756,cs),
(208,756,o),
(189,737,o),
(189,714,cs),
(189,691,o),
(208,672,o),
(231,672,cs)
);
}
);
userData = {
com.schriftgestaltung.Glyphs.originalWidth = 331;
};
width = 0;
}
);
note = "
uni0592
";
unicode = 1426;
},
{
glyphname = "shalshelet-hb";
layers = (
{
anchors = (
{
name = _top;
pos = (94,528);
}
);
layerId = master01;
shapes = (
{
closed = 1;
nodes = (
(86,650,l),
(132,673,l),
(92,696,l),
(132,719,l),
(92,742,l),
(132,765,l),
(95,765,l),
(55,742,l),
(95,719,l),
(55,696,l),
(95,673,l),
(50,650,l)
);
}
);
userData = {
com.schriftgestaltung.Glyphs.originalWidth = 188;
};
width = 0;
},
{
anchors = (
{
name = _top;
pos = (129,553);
}
);
layerId = master02;
shapes = (
{
closed = 1;
nodes = (
(114,659,l),
(208,705,l),
(125,751,l),
(208,798,l),
(125,844,l),
(208,890,l),
(133,890,l),
(50,844,l),
(133,798,l),
(50,751,l),
(133,705,l),
(50,659,l)
);
}
);
userData = {
com.schriftgestaltung.Glyphs.originalWidth = 258;
};
width = 0;
},
{
anchors = (
{
name = _top;
pos = (94,528);
}
);
layerId = master03;
shapes = (
{
closed = 1;
nodes = (
(86,650,l),
(132,673,l),
(92,696,l),
(132,719,l),
(92,742,l),
(132,765,l),
(95,765,l),
(55,742,l),
(95,719,l),
(55,696,l),
(95,673,l),
(50,650,l)
);
}
);
userData = {
com.schriftgestaltung.Glyphs.originalWidth = 182;
};
width = 0;
},
{
anchors = (
{
name = _top;
pos = (129,553);
}
);
layerId = master04;
shapes = (
{
closed = 1;
nodes = (
(116,659,l),
(198,699,l),
(125,740,l),
(198,781,l),
(125,821,l),
(198,862,l),
(133,862,l),
(60,821,l),
(133,781,l),
(60,740,l),
(133,699,l),
(60,659,l)
);
}
);
userData = {
com.schriftgestaltung.Glyphs.originalWidth = 258;
};
width = 0;
}
);
note = "
uni0593
";
unicode = 1427;
},
{
glyphname = sheqel;
layers = (
{
layerId = master01;
shapes = (
{
closed = 1;
nodes = (
(476,0,ls),
(577,0,o),
(636,53,o),
(636,165,cs),
(636,584,l),
(610,584,l),
(610,168,ls),
(610,66,o),
(559,27,o),
(471,27,cs),
(289,27,l),
(289,434,l),
(263,434,l),
(263,0,l)
);
},
{
closed = 1;
nodes = (
(116,0,l),
(116,557,l),
(298,557,ls),
(386,557,o),
(437,518,o),
(437,416,cs),
(437,150,l),
(463,150,l),
(463,419,ls),
(463,531,o),
(404,584,o),
(303,584,cs),
(90,584,l),
(90,0,l)
);
}
);
width = 721;
},
{
layerId = master02;
shapes = (
{
closed = 1;
nodes = (
(552,0,ls),
(759,0,o),
(841,83,o),
(841,315,cs),
(841,609,l),
(649,609,l),
(649,315,ls),
(649,185,o),
(617,159,o),
(513,159,cs),
(435,159,l),
(435,390,l),
(313,390,l),
(313,0,l)
);
},
{
closed = 1;
nodes = (
(267,0,l),
(267,450,l),
(435,450,ls),
(465,450,o),
(481,428,o),
(481,384,cs),
(481,219,l),
(603,219,l),
(603,412,ls),
(603,545,o),
(560,609,o),
(395,609,cs),
(75,609,l),
(75,0,l)
);
}
);
width = 911;
},
{
layerId = master03;
shapes = (
{
closed = 1;
nodes = (
(364,0,ls),
(465,0,o),
(509,38,o),
(509,150,cs),
(509,584,l),
(483,584,l),
(483,155,ls),
(483,53,o),
(447,27,o),
(359,27,cs),
(237,27,l),
(237,434,l),
(211,434,l),
(211,0,l)
);
},
{
closed = 1;
nodes = (
(101,0,l),
(101,557,l),
(223,557,ls),
(311,557,o),
(347,531,o),
(347,429,cs),
(347,150,l),
(373,150,l),
(373,434,ls),
(373,546,o),
(329,584,o),
(228,584,cs),
(75,584,l),
(75,0,l)
);
}
);
width = 579;
},
{
layerId = master04;
shapes = (
{
closed = 1;
nodes = (
(456,0,ls),
(608,0,o),
(694,83,o),
(694,309,cs),
(694,609,l),
(534,609,l),
(534,309,ls),
(534,181,o),
(523,147,o),
(407,147,cs),
(358,147,l),
(358,390,l),
(258,390,l),
(258,0,l)
);
},
{
closed = 1;
nodes = (
(220,0,l),
(220,462,l),
(349,462,ls),
(387,462,o),
(396,437,o),
(396,390,cs),
(396,225,l),
(496,225,l),
(496,418,ls),
(496,560,o),
(455,609,o),
(309,609,cs),
(60,609,l),
(60,0,l)
);
}
);
width = 749;
}
);
note = "
sheqel
";
unicode = 8362;
},
{
glyphname = "sheva-hb";
layers = (
{
anchors = (
{
name = _bottom;
pos = (71,0);
}
);
layerId = master01;
shapes = (
{
closed = 1;
nodes = (
(83,-116,o),
(93,-106,o),
(93,-93,cs),
(93,-81,o),
(83,-71,o),
(71,-71,cs),
(58,-71,o),
(48,-81,o),
(48,-93,cs),
(48,-106,o),
(58,-116,o),
(71,-116,cs)
);
},
{
closed = 1;
nodes = (
(83,-206,o),
(93,-196,o),
(93,-183,cs),
(93,-171,o),
(83,-161,o),
(71,-161,cs),
(58,-161,o),
(48,-171,o),
(48,-183,cs),
(48,-196,o),
(58,-206,o),
(71,-206,cs)
);
}
);
userData = {
com.schriftgestaltung.Glyphs.originalWidth = 144;
};
width = 0;
},
{
anchors = (
{
name = _bottom;
pos = (101,0);
}
);
layerId = master02;
shapes = (
{
closed = 1;
nodes = (
(121,-142,o),
(138,-125,o),
(138,-105,cs),
(138,-85,o),
(121,-68,o),
(101,-68,cs),
(81,-68,o),
(64,-85,o),
(64,-105,cs),
(64,-125,o),
(81,-142,o),
(101,-142,cs)
);
},
{
closed = 1;
nodes = (
(121,-247,o),
(138,-230,o),
(138,-210,cs),
(138,-190,o),
(121,-173,o),
(101,-173,cs),
(81,-173,o),
(64,-190,o),
(64,-210,cs),
(64,-230,o),
(81,-247,o),
(101,-247,cs)
);
}
);
userData = {
com.schriftgestaltung.Glyphs.originalWidth = 202;
};
width = 0;
},
{
anchors = (
{
name = _bottom;
pos = (71,0);
}
);
layerId = master03;
shapes = (
{
closed = 1;
nodes = (
(83,-116,o),
(93,-106,o),
(93,-93,cs),
(93,-81,o),
(83,-71,o),
(71,-71,cs),
(58,-71,o),
(48,-81,o),
(48,-93,cs),
(48,-106,o),
(58,-116,o),
(71,-116,cs)
);
},
{
closed = 1;
nodes = (
(83,-206,o),
(93,-196,o),
(93,-183,cs),
(93,-171,o),
(83,-161,o),
(71,-161,cs),
(58,-161,o),
(48,-171,o),
(48,-183,cs),
(48,-196,o),
(58,-206,o),
(71,-206,cs)
);
}
);
userData = {
com.schriftgestaltung.Glyphs.originalWidth = 144;
};
width = 0;
},
{
anchors = (
{
name = _bottom;
pos = (101,0);
}
);
layerId = master04;
shapes = (
{
closed = 1;
nodes = (
(121,-142,o),
(138,-125,o),
(138,-105,cs),
(138,-85,o),
(121,-68,o),
(101,-68,cs),
(81,-68,o),
(64,-85,o),
(64,-105,cs),
(64,-125,o),
(81,-142,o),
(101,-142,cs)
);
},
{
closed = 1;
nodes = (
(121,-247,o),
(138,-230,o),
(138,-210,cs),
(138,-190,o),
(121,-173,o),
(101,-173,cs),
(81,-173,o),
(64,-190,o),
(64,-210,cs),
(64,-230,o),
(81,-247,o),
(101,-247,cs)
);
}
);
userData = {
com.schriftgestaltung.Glyphs.originalWidth = 202;
};
width = 0;
}
);
note = "
sheva
";
unicode = 1456;
},
{
glyphname = "shin-hb";
layers = (
{
anchors = (
{
name = bottom;
pos = (337,0);
},
{
name = bottomleft;
pos = (121,0);
},
{
name = center;
pos = (425,213);
},
{
name = top;
pos = (336,528);
},
{
name = topleft;
pos = (88,528);
},
{
name = topright;
pos = (588,528);
}
);
layerId = master01;
shapes = (
{
closed = 1;
nodes = (
(341,0,ls),
(512,0,o),
(603,123,o),
(603,331,cs),
(603,584,l),
(571,584,l),
(571,328,ls),
(571,138,o),
(492,25,o),
(341,25,cs),
(326,25,ls),
(179,25,o),
(102,138,o),
(102,328,c),
(102,584,l),
(70,584,l),
(70,331,ls),
(70,123,o),
(159,0,o),
(326,0,cs)
);
},
{
closed = 1;
nodes = (
(249,220,o),
(352,308,o),
(352,461,cs),
(352,584,l),
(320,584,l),
(320,458,ls),
(320,321,o),
(228,243,o),
(92,250,c),
(96,224,l)
);
}
);
width = 674;
},
{
anchors = (
{
name = bottom;
pos = (416,0);
},
{
name = bottomleft;
pos = (151,0);
},
{
name = center;
pos = (478,256);
},
{
name = top;
pos = (413,553);
},
{
name = topleft;
pos = (148,553);
},
{
name = topright;
pos = (679,553);
}
);
layerId = master02;
shapes = (
{
closed = 1;
nodes = (
(417,-9,ls),
(634,-8,o),
(769,111,o),
(769,368,cs),
(769,609,l),
(578,609,l),
(578,370,ls),
(578,203,o),
(518,145,o),
(412,144,cs),
(411,144,ls),
(306,144,o),
(246,203,o),
(246,372,cs),
(246,609,l),
(55,609,l),
(55,369,ls),
(55,112,o),
(193,-9,o),
(415,-9,cs)
);
},
{
closed = 1;
nodes = (
(444,234,o),
(509,358,o),
(509,548,cs),
(509,609,l),
(318,609,l),
(318,539,ls),
(318,421,o),
(308,360,o),
(181,368,c),
(191,241,l)
);
}
);
width = 824;
},
{
anchors = (
{
name = bottom;
pos = (242,0);
},
{
name = bottomleft;
pos = (87,0);
},
{
name = center;
pos = (283,213);
},
{
name = top;
pos = (257,528);
},
{
name = topleft;
pos = (72,528);
},
{
name = topright;
pos = (420,528);
}
);
layerId = master03;
shapes = (
{
closed = 1;
nodes = (
(245,0,ls),
(377,0,o),
(437,92,o),
(437,293,cs),
(437,584,l),
(405,584,l),
(405,290,ls),
(405,108,o),
(355,25,o),
(245,25,cs),
(240,25,ls),
(134,25,o),
(86,108,o),
(86,290,c),
(86,584,l),
(54,584,l),
(54,293,ls),
(54,92,o),
(112,0,o),
(240,0,cs)
);
},
{
closed = 1;
nodes = (
(168,220,o),
(261,308,o),
(261,518,cs),
(261,584,l),
(229,584,l),
(229,515,ls),
(229,321,o),
(147,243,o),
(61,250,c),
(65,224,l)
);
}
);
width = 491;
},
{
anchors = (
{
name = bottom;
pos = (338,0);
},
{
name = bottomleft;
pos = (95,0);
},
{
name = center;
pos = (371,225);
},
{
name = top;
pos = (346,553);
},
{
name = topleft;
pos = (126,553);
},
{
name = topright;
pos = (544,553);
}
);
layerId = master04;
shapes = (
{
closed = 1;
nodes = (
(340,-9,ls),
(562,-9,o),
(642,111,o),
(642,368,cs),
(642,609,l),
(451,609,l),
(451,370,ls),
(451,203,o),
(436,144,o),
(335,144,cs),
(334,144,ls),
(244,144,o),
(219,203,o),
(219,372,cs),
(219,609,l),
(28,609,l),
(28,369,ls),
(28,112,o),
(121,-9,o),
(338,-9,cs)
);
},
{
closed = 1;
nodes = (
(367,224,o),
(417,338,o),
(417,528,cs),
(417,609,l),
(256,609,l),
(256,519,ls),
(256,401,o),
(246,340,o),
(119,348,c),
(129,231,l)
);
}
);
width = 670;
}
);
unicode = 1513;
},
{
glyphname = "shindot-hb";
layers = (
{
anchors = (
{
name = _topright;
pos = (72,528);
}
);
layerId = master01;
shapes = (
{
closed = 1;
nodes = (
(85,655,o),
(95,665,o),
(95,678,cs),
(95,690,o),
(85,700,o),
(73,700,cs),
(60,700,o),
(50,690,o),
(50,678,cs),
(50,665,o),
(60,655,o),
(73,655,cs)
);
}
);
userData = {
com.schriftgestaltung.Glyphs.originalWidth = 144;
};
width = 0;
},
{
anchors = (
{
name = _topright;
pos = (101,553);
}
);
layerId = master02;
shapes = (
{
closed = 1;
nodes = (
(120,678,o),
(137,695,o),
(137,715,cs),
(137,735,o),
(120,752,o),
(100,752,cs),
(80,752,o),
(63,735,o),
(63,715,cs),
(63,695,o),
(80,678,o),
(100,678,cs)
);
}
);
userData = {
com.schriftgestaltung.Glyphs.originalWidth = 202;
};
width = 0;
},
{
anchors = (
{
name = _topright;
pos = (72,528);
}
);
layerId = master03;
shapes = (
{
closed = 1;
nodes = (
(85,655,o),
(95,665,o),
(95,678,cs),
(95,690,o),
(85,700,o),
(73,700,cs),
(60,700,o),
(50,690,o),
(50,678,cs),
(50,665,o),
(60,655,o),
(73,655,cs)
);
}
);
userData = {
com.schriftgestaltung.Glyphs.originalWidth = 144;
};
width = 0;
},
{
anchors = (
{
name = _topright;
pos = (101,553);
}
);
layerId = master04;
shapes = (
{
closed = 1;
nodes = (
(121,678,o),
(138,695,o),
(138,715,cs),
(138,735,o),
(121,752,o),
(101,752,cs),
(81,752,o),
(64,735,o),
(64,715,cs),
(64,695,o),
(81,678,o),
(101,678,cs)
);
}
);
userData = {
com.schriftgestaltung.Glyphs.originalWidth = 202;
};
width = 0;
}
);
note = "
shindot
";
unicode = 1473;
},
{
glyphname = "siluqleft-hb";
layers = (
{
anchors = (
{
name = _bottomleft;
pos = (63,0);
}
);
layerId = master01;
shapes = (
{
closed = 1;
nodes = (
(75,-211,l),
(75,-66,l),
(50,-66,l),
(50,-211,l)
);
}
);
userData = {
com.schriftgestaltung.Glyphs.originalWidth = 125;
};
width = 0;
},
{
anchors = (
{
name = _bottomleft;
pos = (86,0);
}
);
layerId = master02;
shapes = (
{
closed = 1;
nodes = (
(116,-247,l),
(116,-74,l),
(55,-74,l),
(55,-247,l)
);
}
);
userData = {
com.schriftgestaltung.Glyphs.originalWidth = 171;
};
width = 0;
},
{
anchors = (
{
name = _bottomleft;
pos = (63,0);
}
);
layerId = master03;
shapes = (
{
closed = 1;
nodes = (
(75,-211,l),
(75,-66,l),
(50,-66,l),
(50,-211,l)
);
}
);
userData = {
com.schriftgestaltung.Glyphs.originalWidth = 125;
};
width = 0;
},
{
anchors = (
{
name = _bottomleft;
pos = (86,0);
}
);
layerId = master04;
shapes = (
{
closed = 1;
nodes = (
(117,-230,l),
(117,-69,l),
(54,-69,l),
(54,-230,l)
);
}
);
userData = {
com.schriftgestaltung.Glyphs.originalWidth = 171;
};
width = 0;
}
);
note = "
meteg
";
unicode = 1469;
},
{
glyphname = "sindot-hb";
layers = (
{
anchors = (
{
name = _topleft;
pos = (72,528);
}
);
layerId = master01;
shapes = (
{
closed = 1;
nodes = (
(84,656,o),
(94,666,o),
(94,679,cs),
(94,691,o),
(84,701,o),
(72,701,cs),
(59,701,o),
(49,691,o),
(49,679,cs),
(49,666,o),
(59,656,o),
(72,656,cs)
);
}
);
userData = {
com.schriftgestaltung.Glyphs.originalWidth = 144;
};
width = 0;
},
{
anchors = (
{
name = _topleft;
pos = (101,553);
}
);
layerId = master02;
shapes = (
{
closed = 1;
nodes = (
(121,678,o),
(138,695,o),
(138,715,cs),
(138,735,o),
(121,752,o),
(101,752,cs),
(81,752,o),
(64,735,o),
(64,715,cs),
(64,695,o),
(81,678,o),
(101,678,cs)
);
}
);
userData = {
com.schriftgestaltung.Glyphs.originalWidth = 202;
};
width = 0;
},
{
anchors = (
{
name = _topleft;
pos = (72,528);
}
);
layerId = master03;
shapes = (
{
closed = 1;
nodes = (
(84,656,o),
(94,666,o),
(94,679,cs),
(94,691,o),
(84,701,o),
(72,701,cs),
(59,701,o),
(49,691,o),
(49,679,cs),
(49,666,o),
(59,656,o),
(72,656,cs)
);
}
);
userData = {
com.schriftgestaltung.Glyphs.originalWidth = 144;
};
width = 0;
},
{
anchors = (
{
name = _topleft;
pos = (101,553);
}
);
layerId = master04;
shapes = (
{
closed = 1;
nodes = (
(121,678,o),
(138,695,o),
(138,715,cs),
(138,735,o),
(121,752,o),
(101,752,cs),
(81,752,o),
(64,735,o),
(64,715,cs),
(64,695,o),
(81,678,o),
(101,678,cs)
);
}
);
userData = {
com.schriftgestaltung.Glyphs.originalWidth = 202;
};
width = 0;
}
);
note = "
sindot
";
unicode = 1474;
},
{
glyphname = "sofpasuq-hb";
layers = (
{
layerId = master01;
shapes = (
{
closed = 1;
nodes = (
(85,6,o),
(90,-8,o),
(110,-8,cs),
(134,-8,o),
(137,6,o),
(137,23,cs),
(137,39,o),
(134,54,o),
(110,54,cs),
(90,54,o),
(85,39,o),
(85,23,cs)
);
},
{
closed = 1;
nodes = (
(85,484,o),
(90,470,o),
(110,470,cs),
(134,470,o),
(137,484,o),
(137,501,cs),
(137,517,o),
(134,532,o),
(110,532,cs),
(90,532,o),
(85,517,o),
(85,501,cs)
);
}
);
width = 220;
},
{
layerId = master02;
shapes = (
{
closed = 1;
nodes = (
(42,15,o),
(89,-12,o),
(146,-12,cs),
(200,-12,o),
(246,15,o),
(246,81,cs),
(246,150,o),
(200,175,o),
(146,175,cs),
(89,175,o),
(42,150,o),
(42,81,c)
);
},
{
closed = 1;
nodes = (
(42,400,o),
(89,373,o),
(146,373,cs),
(200,373,o),
(246,400,o),
(246,467,cs),
(246,535,o),
(200,560,o),
(146,560,cs),
(89,560,o),
(42,535,o),
(42,467,c)
);
}
);
width = 289;
},
{
layerId = master03;
shapes = (
{
closed = 1;
nodes = (
(65,12,o),
(67,-5,o),
(90,-5,cs),
(112,-5,o),
(116,11,o),
(116,31,cs),
(116,50,o),
(112,66,o),
(90,66,cs),
(69,66,o),
(65,50,o),
(65,31,cs)
);
},
{
closed = 1;
nodes = (
(65,476,o),
(70,461,o),
(90,461,cs),
(108,461,o),
(116,474,o),
(116,497,cs),
(116,521,o),
(109,532,o),
(91,532,cs),
(70,532,o),
(65,516,o),
(65,496,cs)
);
}
);
width = 180;
},
{
layerId = master04;
shapes = (
{
closed = 1;
nodes = (
(49,22,o),
(84,-12,o),
(142,-12,cs),
(198,-12,o),
(231,22,o),
(231,81,cs),
(231,141,o),
(200,175,o),
(142,175,cs),
(81,175,o),
(49,141,o),
(49,81,cs)
);
},
{
closed = 1;
nodes = (
(49,408,o),
(84,374,o),
(142,374,cs),
(198,374,o),
(231,408,o),
(231,467,cs),
(231,527,o),
(200,561,o),
(142,561,cs),
(81,561,o),
(49,527,o),
(49,467,cs)
);
}
);
width = 280;
}
);
note = "
sofpasuq
";
unicode = 1475;
},
{
glyphname = "tav-hb";
layers = (
{
anchors = (
{
name = bottom;
pos = (352,0);
},
{
name = bottomleft;
pos = (33,0);
},
{
name = center;
pos = (352,296);
},
{
name = top;
pos = (315,528);
},
{
name = topleft;
pos = (87,528);
}
);
layerId = master01;
shapes = (
{
closed = 1;
nodes = (
(563,0,l),
(563,419,ls),
(563,527,o),
(506,584,o),
(400,584,cs),
(155,584,l),
(155,557,l),
(395,557,ls),
(488,557,o),
(531,511,o),
(531,416,cs),
(531,0,l)
);
},
{
closed = 1;
nodes = (
(76,0,ls),
(147,0,o),
(187,44,o),
(187,120,cs),
(187,572,l),
(155,572,l),
(155,134,ls),
(155,60,o),
(131,27,o),
(76,27,cs),
(40,27,l),
(35,0,l)
);
},
{
closed = 1;
nodes = (
(160,557,l),
(160,584,l),
(65,584,l),
(60,557,l)
);
}
);
width = 648;
},
{
anchors = (
{
name = bottom;
pos = (412,0);
},
{
name = bottomleft;
pos = (55,0);
},
{
name = center;
pos = (412,289);
},
{
name = top;
pos = (412,536);
},
{
name = topleft;
pos = (61,553);
}
);
layerId = master02;
shapes = (
{
closed = 1;
nodes = (
(691,0,l),
(691,382,ls),
(691,533,o),
(606,609,o),
(439,609,cs),
(138,609,l),
(138,451,l),
(430,451,ls),
(473,451,o),
(499,427,o),
(499,379,cs),
(499,0,l)
);
},
{
closed = 1;
nodes = (
(132,0,ls),
(262,0,o),
(330,76,o),
(330,221,cs),
(330,574,l),
(138,574,l),
(138,211,ls),
(138,176,o),
(122,158,o),
(91,158,cs),
(55,158,l),
(35,0,l)
);
},
{
closed = 1;
nodes = (
(249,451,l),
(249,609,l),
(67,609,l),
(47,451,l)
);
}
);
width = 746;
},
{
anchors = (
{
name = bottom;
pos = (231,0);
},
{
name = bottomleft;
pos = (45,0);
},
{
name = center;
pos = (231,296);
},
{
name = top;
pos = (231,528);
},
{
name = topleft;
pos = (49,528);
}
);
layerId = master03;
shapes = (
{
closed = 1;
nodes = (
(377,0,l),
(377,419,ls),
(377,527,o),
(340,584,o),
(234,584,cs),
(99,584,l),
(99,557,l),
(229,557,ls),
(322,557,o),
(345,511,o),
(345,416,cs),
(345,0,l)
);
},
{
closed = 1;
nodes = (
(50,0,ls),
(121,0,o),
(131,44,o),
(131,120,cs),
(131,572,l),
(99,572,l),
(99,134,ls),
(99,60,o),
(105,27,o),
(50,27,cs),
(34,27,l),
(29,0,l)
);
},
{
closed = 1;
nodes = (
(129,557,l),
(129,584,l),
(46,584,l),
(41,557,l)
);
}
);
width = 436;
},
{
anchors = (
{
name = bottom;
pos = (327,0);
},
{
name = bottomleft;
pos = (55,0);
},
{
name = center;
pos = (327,306);
},
{
name = top;
pos = (327,553);
},
{
name = topleft;
pos = (55,553);
}
);
layerId = master04;
shapes = (
{
closed = 1;
nodes = (
(564,0,l),
(564,382,ls),
(564,533,o),
(499,609,o),
(332,609,cs),
(91,609,l),
(91,451,l),
(323,451,ls),
(366,451,o),
(372,427,o),
(372,379,cs),
(372,0,l)
);
},
{
closed = 1;
nodes = (
(105,0,ls),
(235,0,o),
(283,76,o),
(283,221,cs),
(283,574,l),
(91,574,l),
(91,211,ls),
(91,176,o),
(95,158,o),
(64,158,cs),
(33,158,l),
(13,0,l)
);
},
{
closed = 1;
nodes = (
(212,451,l),
(212,609,l),
(40,609,l),
(20,451,l)
);
}
);
width = 602;
}
);
unicode = 1514;
},
{
glyphname = "telishagedola-hb";
layers = (
{
anchors = (
{
name = _top;
pos = (116,528);
}
);
layerId = master01;
shapes = (
{
closed = 1;
nodes = (
(96,673,l),
(104,669,o),
(114,667,o),
(124,667,cs),
(157,667,o),
(182,693,o),
(182,725,cs),
(182,757,o),
(156,782,o),
(124,782,cs),
(92,782,o),
(66,757,o),
(66,725,cs),
(66,714,o),
(69,704,o),
(74,696,c),
(50,672,l),
(72,650,l)
);
},
{
closed = 1;
nodes = (
(106,692,o),
(91,706,o),
(91,725,cs),
(91,743,o),
(106,758,o),
(123,758,cs),
(141,758,o),
(157,742,o),
(157,725,cs),
(157,707,o),
(142,692,o),
(123,692,cs)
);
}
);
userData = {
com.schriftgestaltung.Glyphs.originalWidth = 232;
};
width = 0;
},
{
anchors = (
{
name = _top;
pos = (168,553);
}
);
layerId = master02;
shapes = (
{
closed = 1;
nodes = (
(132,670,l),
(147,663,o),
(164,659,o),
(182,659,cs),
(241,659,o),
(286,705,o),
(286,762,cs),
(286,820,o),
(239,864,o),
(182,864,cs),
(125,864,o),
(79,819,o),
(79,762,cs),
(79,743,o),
(84,725,o),
(93,711,c),
(50,668,l),
(90,629,l)
);
},
{
closed = 1;
nodes = (
(154,710,o),
(131,733,o),
(131,762,cs),
(131,790,o),
(155,813,o),
(181,813,cs),
(209,813,o),
(234,789,o),
(234,762,cs),
(234,734,o),
(210,710,o),
(181,710,cs)
);
}
);
userData = {
com.schriftgestaltung.Glyphs.originalWidth = 336;
};
width = 0;
},
{
anchors = (
{
name = _top;
pos = (116,528);
}
);
layerId = master03;
shapes = (
{
closed = 1;
nodes = (
(96,673,l),
(104,669,o),
(114,667,o),
(124,667,cs),
(157,667,o),
(182,693,o),
(182,725,cs),
(182,757,o),
(156,782,o),
(124,782,cs),
(92,782,o),
(66,757,o),
(66,725,cs),
(66,714,o),
(69,704,o),
(74,696,c),
(50,672,l),
(72,650,l)
);
},
{
closed = 1;
nodes = (
(106,692,o),
(91,706,o),
(91,725,cs),
(91,743,o),
(106,758,o),
(123,758,cs),
(141,758,o),
(157,742,o),
(157,725,cs),
(157,707,o),
(142,692,o),
(123,692,cs)
);
}
);
userData = {
com.schriftgestaltung.Glyphs.originalWidth = 232;
};
width = 0;
},
{
anchors = (
{
name = _top;
pos = (168,553);
}
);
layerId = master04;
shapes = (
{
closed = 1;
nodes = (
(136,665,l),
(150,659,o),
(164,655,o),
(180,655,cs),
(232,655,o),
(272,696,o),
(272,746,cs),
(272,797,o),
(230,835,o),
(180,835,cs),
(130,835,o),
(90,796,o),
(90,746,cs),
(90,729,o),
(94,713,o),
(102,701,c),
(64,663,l),
(100,629,l)
);
},
{
closed = 1;
nodes = (
(156,700,o),
(136,720,o),
(136,746,cs),
(136,770,o),
(157,790,o),
(179,790,cs),
(204,790,o),
(226,769,o),
(226,746,cs),
(226,721,o),
(205,700,o),
(179,700,cs)
);
}
);
userData = {
com.schriftgestaltung.Glyphs.originalWidth = 336;
};
width = 0;
}
);
note = "
uni05A0
";
unicode = 1440;
},
{
glyphname = "telishaqetana-hb";
layers = (
{
anchors = (
{
name = _topleft;
pos = (116,528);
}
);
layerId = master01;
shapes = (
{
closed = 1;
nodes = (
(182,672,l),
(158,696,l),
(163,704,o),
(166,714,o),
(166,725,cs),
(166,757,o),
(140,782,o),
(108,782,cs),
(76,782,o),
(50,757,o),
(50,725,cs),
(50,693,o),
(75,667,o),
(108,667,cs),
(118,667,o),
(128,669,o),
(136,673,c),
(160,650,l)
);
},
{
closed = 1;
nodes = (
(90,692,o),
(75,707,o),
(75,725,cs),
(75,742,o),
(91,758,o),
(109,758,cs),
(126,758,o),
(141,743,o),
(141,725,cs),
(141,706,o),
(126,692,o),
(109,692,cs)
);
}
);
userData = {
com.schriftgestaltung.Glyphs.originalWidth = 232;
};
width = 0;
},
{
anchors = (
{
name = _topleft;
pos = (155,553);
}
);
layerId = master02;
shapes = (
{
closed = 1;
nodes = (
(286,668,l),
(243,711,l),
(252,725,o),
(257,743,o),
(257,762,cs),
(257,819,o),
(211,864,o),
(154,864,cs),
(97,864,o),
(50,819,o),
(50,762,cs),
(50,705,o),
(95,659,o),
(154,659,cs),
(172,659,o),
(189,663,o),
(204,670,c),
(246,629,l)
);
},
{
closed = 1;
nodes = (
(126,710,o),
(102,734,o),
(102,762,cs),
(102,789,o),
(127,813,o),
(155,813,cs),
(181,813,o),
(205,790,o),
(205,762,cs),
(205,733,o),
(182,710,o),
(155,710,cs)
);
}
);
userData = {
com.schriftgestaltung.Glyphs.originalWidth = 336;
};
width = 0;
},
{
anchors = (
{
name = _topleft;
pos = (116,528);
}
);
layerId = master03;
shapes = (
{
closed = 1;
nodes = (
(182,672,l),
(158,696,l),
(163,704,o),
(166,714,o),
(166,725,cs),
(166,757,o),
(140,782,o),
(108,782,cs),
(76,782,o),
(50,757,o),
(50,725,cs),
(50,693,o),
(75,667,o),
(108,667,cs),
(118,667,o),
(128,669,o),
(136,673,c),
(160,650,l)
);
},
{
closed = 1;
nodes = (
(90,692,o),
(75,707,o),
(75,725,cs),
(75,742,o),
(91,758,o),
(109,758,cs),
(126,758,o),
(141,743,o),
(141,725,cs),
(141,706,o),
(126,692,o),
(109,692,cs)
);
}
);
userData = {
com.schriftgestaltung.Glyphs.originalWidth = 232;
};
width = 0;
},
{
anchors = (
{
name = _topleft;
pos = (157,553);
}
);
layerId = master04;
shapes = (
{
closed = 1;
nodes = (
(272,663,l),
(234,701,l),
(242,713,o),
(246,729,o),
(246,746,cs),
(246,796,o),
(206,835,o),
(156,835,cs),
(106,835,o),
(64,796,o),
(64,746,cs),
(64,696,o),
(104,655,o),
(156,655,cs),
(172,655,o),
(186,659,o),
(200,665,c),
(236,629,l)
);
},
{
closed = 1;
nodes = (
(131,700,o),
(110,721,o),
(110,746,cs),
(110,769,o),
(132,790,o),
(157,790,cs),
(179,790,o),
(200,770,o),
(200,746,cs),
(200,720,o),
(180,700,o),
(157,700,cs)
);
}
);
userData = {
com.schriftgestaltung.Glyphs.originalWidth = 336;
};
width = 0;
}
);
note = "
uni05A9
";
unicode = 1449;
},
{
glyphname = "tet-hb";
layers = (
{
anchors = (
{
name = bottom;
pos = (299,0);
},
{
name = bottomleft;
pos = (3,0);
},
{
name = center;
pos = (299,316);
},
{
name = top;
pos = (236,528);
},
{
name = topleft;
pos = (83,528);
}
);
layerId = master01;
shapes = (
{
closed = 1;
nodes = (
(456,-10,o),
(547,103,o),
(547,320,cs),
(547,493,o),
(499,591,o),
(369,587,cs),
(340,586,o),
(310,582,o),
(281,577,c),
(281,550,l),
(309,555,o),
(337,559,o),
(365,560,cs),
(476,564,o),
(515,476,o),
(515,320,cs),
(515,120,o),
(435,15,o),
(300,15,cs),
(176,15,o),
(102,120,o),
(102,320,cs),
(102,584,l),
(70,584,l),
(70,320,ls),
(70,103,o),
(155,-10,o),
(300,-10,cs)
);
}
);
width = 607;
},
{
anchors = (
{
name = bottom;
pos = (342,-9);
},
{
name = bottomleft;
pos = (12,0);
},
{
name = center;
pos = (345,306);
},
{
name = top;
pos = (325,553);
},
{
name = topleft;
pos = (2,553);
}
);
layerId = master02;
shapes = (
{
closed = 1;
nodes = (
(535,-9,o),
(643,107,o),
(643,330,cs),
(643,513,o),
(573,613,o),
(426,617,cs),
(384,618,o),
(353,611,o),
(312,603,c),
(312,451,l),
(341,459,o),
(361,466,o),
(391,464,cs),
(436,461,o),
(452,413,o),
(452,330,cs),
(452,208,o),
(408,144,o),
(338,144,cs),
(269,144,o),
(226,208,o),
(226,330,cs),
(226,609,l),
(35,609,l),
(35,330,ls),
(35,107,o),
(145,-9,o),
(342,-9,cs)
);
}
);
width = 678;
},
{
anchors = (
{
name = bottom;
pos = (205,0);
},
{
name = bottomleft;
pos = (46,0);
},
{
name = center;
pos = (205,296);
},
{
name = top;
pos = (205,528);
},
{
name = topleft;
pos = (36,528);
}
);
layerId = master03;
shapes = (
{
closed = 1;
nodes = (
(315,-10,o),
(371,103,o),
(371,320,cs),
(371,493,o),
(343,587,o),
(248,587,cs),
(230,587,o),
(208,583,o),
(190,577,c),
(190,550,l),
(207,556,o),
(227,560,o),
(244,560,cs),
(320,560,o),
(339,476,o),
(339,320,cs),
(339,120,o),
(294,15,o),
(209,15,cs),
(115,15,o),
(76,120,o),
(76,320,cs),
(76,584,l),
(44,584,l),
(44,320,ls),
(44,103,o),
(94,-10,o),
(209,-10,cs)
);
}
);
width = 415;
},
{
anchors = (
{
name = bottom;
pos = (284,0);
},
{
name = bottomleft;
pos = (49,0);
},
{
name = center;
pos = (280,306);
},
{
name = top;
pos = (284,553);
},
{
name = topleft;
pos = (39,553);
}
);
layerId = master04;
shapes = (
{
closed = 1;
nodes = (
(450,-9,o),
(536,107,o),
(536,330,cs),
(536,519,o),
(468,617,o),
(339,617,cs),
(308,617,o),
(282,612,o),
(265,603,c),
(265,451,l),
(271,460,o),
(284,464,o),
(304,464,cs),
(331,464,o),
(345,418,o),
(345,330,cs),
(345,208,o),
(323,144,o),
(281,144,cs),
(240,144,o),
(219,208,o),
(219,330,cs),
(219,609,l),
(28,609,l),
(28,330,ls),
(28,107,o),
(116,-9,o),
(285,-9,cs)
);
}
);
width = 564;
}
);
unicode = 1496;
},
{
glyphname = "tevirleft-hb";
layers = (
{
anchors = (
{
name = _bottomleft;
pos = (145,0);
}
);
layerId = master01;
shapes = (
{
closed = 1;
nodes = (
(126,-188,o),
(159,-149,o),
(159,-82,c),
(130,-82,l),
(130,-131,o),
(110,-159,o),
(50,-159,c),
(50,-188,l)
);
},
{
closed = 1;
nodes = (
(87,-123,o),
(97,-113,o),
(97,-100,cs),
(97,-87,o),
(87,-77,o),
(74,-77,cs),
(62,-77,o),
(52,-87,o),
(52,-100,cs),
(52,-113,o),
(62,-123,o),
(74,-123,cs)
);
}
);
userData = {
com.schriftgestaltung.Glyphs.originalWidth = 209;
};
width = 0;
},
{
anchors = (
{
name = _bottomleft;
pos = (207,0);
}
);
layerId = master02;
shapes = (
{
closed = 1;
nodes = (
(175,-224,o),
(234,-166,o),
(234,-70,c),
(179,-70,l),
(179,-133,o),
(137,-170,o),
(68,-170,c),
(68,-224,l)
);
},
{
closed = 1;
nodes = (
(112,-117,o),
(130,-100,o),
(130,-77,cs),
(130,-54,o),
(112,-36,o),
(89,-36,cs),
(67,-36,o),
(50,-55,o),
(50,-77,cs),
(50,-100,o),
(67,-117,o),
(89,-117,cs)
);
}
);
userData = {
com.schriftgestaltung.Glyphs.originalWidth = 284;
};
width = 0;
},
{
anchors = (
{
name = _bottomleft;
pos = (145,0);
}
);
layerId = master03;
shapes = (
{
closed = 1;
nodes = (
(126,-188,o),
(159,-149,o),
(159,-82,c),
(130,-82,l),
(130,-131,o),
(110,-159,o),
(50,-159,c),
(50,-188,l)
);
},
{
closed = 1;
nodes = (
(87,-123,o),
(97,-113,o),
(97,-100,cs),
(97,-87,o),
(87,-77,o),
(74,-77,cs),
(62,-77,o),
(52,-87,o),
(52,-100,cs),
(52,-113,o),
(62,-123,o),
(74,-123,cs)
);
}
);
userData = {
com.schriftgestaltung.Glyphs.originalWidth = 209;
};
width = 0;
},
{
anchors = (
{
name = _bottomleft;
pos = (199,0);
}
);
layerId = master04;
shapes = (
{
closed = 1;
nodes = (
(171,-201,o),
(223,-150,o),
(223,-66,c),
(174,-66,l),
(174,-121,o),
(138,-154,o),
(77,-154,c),
(77,-201,l)
);
},
{
closed = 1;
nodes = (
(116,-107,o),
(131,-92,o),
(131,-72,cs),
(131,-52,o),
(116,-36,o),
(96,-36,cs),
(76,-36,o),
(61,-53,o),
(61,-72,cs),
(61,-92,o),
(76,-107,o),
(96,-107,cs)
);
}
);
userData = {
com.schriftgestaltung.Glyphs.originalWidth = 284;
};
width = 0;
}
);
note = "
uni059B
";
unicode = 1435;
},
{
glyphname = "tipehaleft-hb";
layers = (
{
anchors = (
{
name = _bottomleft;
pos = (65,0);
}
);
layerId = master01;
shapes = (
{
closed = 1;
nodes = (
(159,-159,l),
(99,-159,o),
(79,-131,o),
(79,-82,c),
(50,-82,l),
(50,-149,o),
(83,-188,o),
(159,-188,c)
);
}
);
userData = {
com.schriftgestaltung.Glyphs.originalWidth = 209;
};
width = 0;
},
{
anchors = (
{
name = _bottomleft;
pos = (78,0);
}
);
layerId = master02;
shapes = (
{
closed = 1;
nodes = (
(214,-170,l),
(146,-170,o),
(105,-133,o),
(105,-70,c),
(50,-70,l),
(50,-167,o),
(110,-224,o),
(214,-224,c)
);
}
);
userData = {
com.schriftgestaltung.Glyphs.originalWidth = 264;
};
width = 0;
},
{
anchors = (
{
name = _bottomleft;
pos = (65,0);
}
);
layerId = master03;
shapes = (
{
closed = 1;
nodes = (
(159,-159,l),
(99,-159,o),
(79,-131,o),
(79,-82,c),
(50,-82,l),
(50,-149,o),
(83,-188,o),
(159,-188,c)
);
}
);
userData = {
com.schriftgestaltung.Glyphs.originalWidth = 209;
};
width = 0;
},
{
anchors = (
{
name = _bottomleft;
pos = (85,0);
}
);
layerId = master04;
shapes = (
{
closed = 1;
nodes = (
(204,-158,l),
(144,-158,o),
(108,-125,o),
(108,-70,c),
(60,-70,l),
(60,-155,o),
(113,-205,o),
(204,-205,c)
);
}
);
userData = {
com.schriftgestaltung.Glyphs.originalWidth = 264;
};
width = 0;
}
);
note = "
uni0596
";
unicode = 1430;
},
{
glyphname = "tsadi-hb";
layers = (
{
anchors = (
{
name = bottom;
pos = (232,0);
},
{
name = bottomleft;
pos = (18,0);
},
{
name = center;
pos = (161,166);
},
{
name = top;
pos = (272,528);
},
{
name = topleft;
pos = (48,528);
}
);
layerId = master01;
shapes = (
{
closed = 1;
nodes = (
(448,27,l),
(311,245,l),
(99,584,l),
(62,584,l),
(425,8,l)
);
},
{
closed = 1;
nodes = (
(442,0,l),
(448,27,l),
(431,27,l),
(45,27,l),
(45,0,l)
);
},
{
closed = 1;
nodes = (
(407,270,o),
(444,429,o),
(451,496,cs),
(460,584,l),
(428,584,l),
(419,504,ls),
(412,440,o),
(383,292,o),
(286,255,c),
(296,228,l)
);
}
);
width = 520;
},
{
anchors = (
{
name = bottom;
pos = (262,0);
},
{
name = bottomleft;
pos = (-20,0);
},
{
name = center;
pos = (110,268);
},
{
name = top;
pos = (278,553);
},
{
name = topleft;
pos = (-41,553);
}
);
layerId = master02;
shapes = (
{
closed = 1;
nodes = (
(548,110,l),
(375,374,l),
(240,609,l),
(15,609,l),
(404,0,l)
);
},
{
closed = 1;
nodes = (
(531,0,l),
(548,110,l),
(493,158,l),
(39,158,l),
(39,0,l)
);
},
{
closed = 1;
nodes = (
(515,278,o),
(566,384,o),
(577,487,cs),
(590,609,l),
(399,609,l),
(385,500,ls),
(378,445,o),
(374,381,o),
(311,366,c),
(365,243,l)
);
}
);
width = 616;
},
{
anchors = (
{
name = bottom;
pos = (156,0);
},
{
name = bottomleft;
pos = (22,0);
},
{
name = center;
pos = (96,172);
},
{
name = top;
pos = (180,528);
},
{
name = topleft;
pos = (52,528);
}
);
layerId = master03;
shapes = (
{
closed = 1;
nodes = (
(322,27,l),
(222,245,l),
(67,584,l),
(35,584,l),
(298,8,l)
);
},
{
closed = 1;
nodes = (
(316,0,l),
(322,27,l),
(305,27,l),
(29,27,l),
(29,0,l)
);
},
{
closed = 1;
nodes = (
(291,270,o),
(318,429,o),
(325,496,cs),
(334,584,l),
(302,584,l),
(293,504,ls),
(286,440,o),
(267,292,o),
(190,255,c),
(200,228,l)
);
}
);
width = 368;
},
{
anchors = (
{
name = bottom;
pos = (250,0);
},
{
name = bottomleft;
pos = (49,0);
},
{
name = center;
pos = (97,245);
},
{
name = top;
pos = (279,553);
},
{
name = topleft;
pos = (36,553);
}
);
layerId = master04;
shapes = (
{
closed = 1;
nodes = (
(471,110,l),
(308,374,l),
(233,609,l),
(18,609,l),
(307,0,l)
);
},
{
closed = 1;
nodes = (
(454,0,l),
(471,110,l),
(416,158,l),
(32,158,l),
(32,0,l)
);
},
{
closed = 1;
nodes = (
(453,278,o),
(500,384,o),
(508,487,cs),
(517,609,l),
(336,609,l),
(325,500,ls),
(319,445,o),
(319,381,o),
(256,366,c),
(304,243,l)
);
}
);
width = 540;
}
);
unicode = 1510;
},
{
glyphname = "tsere-hb";
layers = (
{
anchors = (
{
name = _bottom;
pos = (115,0);
}
);
layerId = master01;
shapes = (
{
closed = 1;
nodes = (
(83,-116,o),
(93,-106,o),
(93,-93,cs),
(93,-81,o),
(83,-71,o),
(71,-71,cs),
(58,-71,o),
(48,-81,o),
(48,-93,cs),
(48,-106,o),
(58,-116,o),
(71,-116,cs)
);
},
{
closed = 1;
nodes = (
(171,-116,o),
(181,-106,o),
(181,-93,cs),
(181,-81,o),
(171,-71,o),
(159,-71,cs),
(146,-71,o),
(136,-81,o),
(136,-93,cs),
(136,-106,o),
(146,-116,o),
(159,-116,cs)
);
}
);
userData = {
com.schriftgestaltung.Glyphs.originalWidth = 230;
};
width = 0;
},
{
anchors = (
{
name = _bottom;
pos = (166,0);
}
);
layerId = master02;
shapes = (
{
closed = 1;
nodes = (
(121,-142,o),
(138,-125,o),
(138,-105,cs),
(138,-85,o),
(121,-68,o),
(101,-68,cs),
(81,-68,o),
(64,-85,o),
(64,-105,cs),
(64,-125,o),
(81,-142,o),
(101,-142,cs)
);
},
{
closed = 1;
nodes = (
(251,-142,o),
(268,-125,o),
(268,-105,cs),
(268,-85,o),
(251,-68,o),
(231,-68,cs),
(211,-68,o),
(194,-85,o),
(194,-105,cs),
(194,-125,o),
(211,-142,o),
(231,-142,cs)
);
}
);
userData = {
com.schriftgestaltung.Glyphs.originalWidth = 331;
};
width = 0;
},
{
anchors = (
{
name = _bottom;
pos = (110,0);
}
);
layerId = master03;
shapes = (
{
closed = 1;
nodes = (
(83,-116,o),
(93,-106,o),
(93,-93,cs),
(93,-81,o),
(83,-71,o),
(71,-71,cs),
(58,-71,o),
(48,-81,o),
(48,-93,cs),
(48,-106,o),
(58,-116,o),
(71,-116,cs)
);
},
{
closed = 1;
nodes = (
(171,-116,o),
(181,-106,o),
(181,-93,cs),
(181,-81,o),
(171,-71,o),
(159,-71,cs),
(146,-71,o),
(136,-81,o),
(136,-93,cs),
(136,-106,o),
(146,-116,o),
(159,-116,cs)
);
}
);
userData = {
com.schriftgestaltung.Glyphs.originalWidth = 220;
};
width = 0;
},
{
anchors = (
{
name = _bottom;
pos = (166,0);
}
);
layerId = master04;
shapes = (
{
closed = 1;
nodes = (
(121,-142,o),
(138,-125,o),
(138,-105,cs),
(138,-85,o),
(121,-68,o),
(101,-68,cs),
(81,-68,o),
(64,-85,o),
(64,-105,cs),
(64,-125,o),
(81,-142,o),
(101,-142,cs)
);
},
{
closed = 1;
nodes = (
(251,-142,o),
(268,-125,o),
(268,-105,cs),
(268,-85,o),
(251,-68,o),
(231,-68,cs),
(211,-68,o),
(194,-85,o),
(194,-105,cs),
(194,-125,o),
(211,-142,o),
(231,-142,cs)
);
}
);
userData = {
com.schriftgestaltung.Glyphs.originalWidth = 331;
};
width = 0;
}
);
note = "
tsere
";
unicode = 1461;
},
{
glyphname = uni200C;
layers = (
{
layerId = master01;
shapes = (
{
closed = 1;
nodes = (
(-18,679,l),
(-18,-45,l),
(18,-45,l),
(18,679,l)
);
}
);
width = 0;
},
{
layerId = master02;
shapes = (
{
closed = 1;
nodes = (
(-18,679,l),
(-18,-45,l),
(18,-45,l),
(18,679,l)
);
}
);
width = 0;
},
{
layerId = master03;
shapes = (
{
closed = 1;
nodes = (
(-18,679,l),
(-18,-45,l),
(18,-45,l),
(18,679,l)
);
}
);
width = 0;
},
{
layerId = master04;
shapes = (
{
closed = 1;
nodes = (
(-18,679,l),
(-18,-45,l),
(18,-45,l),
(18,679,l)
);
}
);
width = 0;
}
);
note = "
uni200C
";
unicode = 8204;
},
{
glyphname = uni200D;
layers = (
{
layerId = master01;
shapes = (
{
closed = 1;
nodes = (
(18,533,l),
(83,467,l),
(107,491,l),
(23,573,l),
(107,655,l),
(83,679,l),
(0,596,l),
(-83,679,l),
(-107,655,l),
(-23,573,l),
(-107,491,l),
(-83,467,l),
(-18,533,l),
(-18,-45,l),
(18,-45,l)
);
}
);
width = 0;
},
{
layerId = master02;
shapes = (
{
closed = 1;
nodes = (
(18,533,l),
(83,467,l),
(107,491,l),
(23,573,l),
(107,655,l),
(83,679,l),
(0,596,l),
(-83,679,l),
(-107,655,l),
(-23,573,l),
(-107,491,l),
(-83,467,l),
(-18,533,l),
(-18,-45,l),
(18,-45,l)
);
}
);
width = 0;
},
{
layerId = master03;
shapes = (
{
closed = 1;
nodes = (
(18,533,l),
(83,467,l),
(107,491,l),
(23,573,l),
(107,655,l),
(83,679,l),
(0,596,l),
(-83,679,l),
(-107,655,l),
(-23,573,l),
(-107,491,l),
(-83,467,l),
(-18,533,l),
(-18,-45,l),
(18,-45,l)
);
}
);
width = 0;
},
{
layerId = master04;
shapes = (
{
closed = 1;
nodes = (
(18,533,l),
(83,467,l),
(107,491,l),
(23,573,l),
(107,655,l),
(83,679,l),
(0,596,l),
(-83,679,l),
(-107,655,l),
(-23,573,l),
(-107,491,l),
(-83,467,l),
(-18,533,l),
(-18,-45,l),
(18,-45,l)
);
}
);
width = 0;
}
);
note = "
uni200D
";
unicode = 8205;
},
{
glyphname = uni200E;
layers = (
{
layerId = master01;
shapes = (
{
closed = 1;
nodes = (
(104,679,l),
(80,655,l),
(147,592,l),
(-18,592,l),
(-18,-45,l),
(17,-45,l),
(17,557,l),
(147,557,l),
(80,494,l),
(104,470,l),
(210,574,l)
);
}
);
width = 0;
},
{
layerId = master02;
shapes = (
{
closed = 1;
nodes = (
(104,679,l),
(80,655,l),
(147,592,l),
(-18,592,l),
(-18,-45,l),
(17,-45,l),
(17,557,l),
(147,557,l),
(80,494,l),
(104,470,l),
(210,574,l)
);
}
);
width = 0;
},
{
layerId = master03;
shapes = (
{
closed = 1;
nodes = (
(104,679,l),
(80,655,l),
(147,592,l),
(-18,592,l),
(-18,-45,l),
(17,-45,l),
(17,557,l),
(147,557,l),
(80,494,l),
(104,470,l),
(210,574,l)
);
}
);
width = 0;
},
{
layerId = master04;
shapes = (
{
closed = 1;
nodes = (
(104,679,l),
(80,655,l),
(147,592,l),
(-18,592,l),
(-18,-45,l),
(17,-45,l),
(17,557,l),
(147,557,l),
(80,494,l),
(104,470,l),
(210,574,l)
);
}
);
width = 0;
}
);
note = "
uni200E
";
unicode = 8206;
},
{
glyphname = uni200F;
layers = (
{
layerId = master01;
shapes = (
{
closed = 1;
nodes = (
(17,592,l),
(-147,592,l),
(-81,655,l),
(-104,679,l),
(-210,574,l),
(-104,470,l),
(-81,494,l),
(-147,557,l),
(-18,557,l),
(-18,-45,l),
(17,-45,l)
);
}
);
width = 0;
},
{
layerId = master02;
shapes = (
{
closed = 1;
nodes = (
(17,592,l),
(-147,592,l),
(-81,655,l),
(-104,679,l),
(-210,574,l),
(-104,470,l),
(-81,494,l),
(-147,557,l),
(-18,557,l),
(-18,-45,l),
(17,-45,l)
);
}
);
width = 0;
},
{
layerId = master03;
shapes = (
{
closed = 1;
nodes = (
(17,592,l),
(-147,592,l),
(-81,655,l),
(-104,679,l),
(-210,574,l),
(-104,470,l),
(-81,494,l),
(-147,557,l),
(-18,557,l),
(-18,-45,l),
(17,-45,l)
);
}
);
width = 0;
},
{
layerId = master04;
shapes = (
{
closed = 1;
nodes = (
(17,592,l),
(-147,592,l),
(-81,655,l),
(-104,679,l),
(-210,574,l),
(-104,470,l),
(-81,494,l),
(-147,557,l),
(-18,557,l),
(-18,-45,l),
(17,-45,l)
);
}
);
width = 0;
}
);
note = "
uni200F
";
unicode = 8207;
},
{
category = Letter;
glyphname = uni25CC;
lastChange = "2024-06-03 10:46:54 +0000";
layers = (
{
anchors = (
{
name = bottom;
pos = (297,0);
},
{
name = bottomleft;
pos = (48,0);
},
{
name = center;
pos = (297,291);
},
{
name = top;
pos = (297,714);
},
{
name = topleft;
pos = (48,714);
},
{
name = topright;
pos = (546,714);
}
);
layerId = master01;
shapes = (
{
closed = 1;
nodes = (
(480,466,o),
(472,475,o),
(455,475,cs),
(437,475,o),
(428,466,o),
(428,448,cs),
(428,431,o),
(437,422,o),
(455,422,cs),
(472,422,o),
(480,431,o),
(480,448,cs)
);
},
{
closed = 1;
nodes = (
(408,514,o),
(400,523,o),
(383,523,cs),
(364,523,o),
(355,514,o),
(355,496,cs),
(355,479,o),
(364,470,o),
(383,470,cs),
(400,470,o),
(408,479,o),
(408,496,cs)
);
},
{
closed = 1;
nodes = (
(529,393,o),
(520,402,o),
(503,402,cs),
(485,402,o),
(476,393,o),
(476,376,cs),
(476,358,o),
(485,349,o),
(502,349,cs),
(520,349,o),
(529,358,o),
(529,376,cs)
);
},
{
closed = 1;
nodes = (
(546,308,o),
(538,317,o),
(521,317,cs),
(503,317,o),
(494,308,o),
(494,291,cs),
(494,274,o),
(503,265,o),
(521,265,cs),
(538,265,o),
(546,274,o),
(546,291,cs)
);
},
{
closed = 1;
nodes = (
(323,531,o),
(314,540,o),
(297,540,cs),
(280,540,o),
(271,531,o),
(271,514,cs),
(271,496,o),
(280,487,o),
(297,487,cs),
(314,487,o),
(323,496,o),
(323,514,cs)
);
},
{
closed = 1;
nodes = (
(239,514,o),
(230,523,o),
(212,523,cs),
(195,523,o),
(186,514,o),
(186,496,cs),
(186,479,o),
(195,470,o),
(212,470,cs),
(230,470,o),
(239,479,o),
(239,496,cs)
);
},
{
closed = 1;
nodes = (
(529,224,o),
(520,233,o),
(502,233,cs),
(485,233,o),
(476,224,o),
(476,206,cs),
(476,189,o),
(485,180,o),
(502,180,cs),
(520,180,o),
(529,189,o),
(529,206,cs)
);
},
{
closed = 1;
nodes = (
(167,466,o),
(158,475,o),
(140,475,cs),
(123,475,o),
(114,466,o),
(114,447,cs),
(114,430,o),
(123,422,o),
(140,422,cs),
(158,422,o),
(167,431,o),
(167,448,cs)
);
},
{
closed = 1;
nodes = (
(480,151,o),
(472,160,o),
(455,160,cs),
(437,160,o),
(428,151,o),
(428,133,cs),
(428,116,o),
(437,107,o),
(455,107,cs),
(472,107,o),
(480,116,o),
(480,133,cs)
);
},
{
closed = 1;
nodes = (
(408,103,o),
(400,112,o),
(383,112,cs),
(364,112,o),
(355,103,o),
(355,85,cs),
(355,68,o),
(364,60,o),
(383,60,cs),
(400,60,o),
(408,68,o),
(408,85,cs)
);
},
{
closed = 1;
nodes = (
(118,393,o),
(109,402,o),
(92,402,cs),
(74,402,o),
(65,393,o),
(65,376,cs),
(65,358,o),
(74,349,o),
(93,349,cs),
(110,349,o),
(118,358,o),
(118,376,cs)
);
},
{
closed = 1;
nodes = (
(101,308,o),
(92,317,o),
(75,317,cs),
(57,317,o),
(48,308,o),
(48,291,cs),
(48,274,o),
(57,265,o),
(75,265,cs),
(92,265,o),
(101,274,o),
(101,291,cs)
);
},
{
closed = 1;
nodes = (
(323,86,o),
(314,95,o),
(297,95,cs),
(280,95,o),
(271,86,o),
(271,69,cs),
(271,51,o),
(280,42,o),
(297,42,cs),
(314,42,o),
(323,51,o),
(323,69,cs)
);
},
{
closed = 1;
nodes = (
(118,224,o),
(109,233,o),
(92,233,cs),
(74,233,o),
(65,224,o),
(65,206,cs),
(65,189,o),
(74,180,o),
(92,180,cs),
(109,180,o),
(118,189,o),
(118,206,cs)
);
},
{
closed = 1;
nodes = (
(239,104,o),
(230,112,o),
(212,112,cs),
(195,112,o),
(186,103,o),
(186,85,cs),
(186,68,o),
(195,60,o),
(212,60,cs),
(230,60,o),
(239,69,o),
(239,87,cs)
);
},
{
closed = 1;
nodes = (
(167,151,o),
(158,160,o),
(140,160,cs),
(123,160,o),
(114,151,o),
(114,133,cs),
(114,116,o),
(123,107,o),
(140,107,cs),
(158,107,o),
(167,116,o),
(167,133,cs)
);
}
);
width = 594;
},
{
anchors = (
{
name = bottom;
pos = (297,0);
},
{
name = bottomleft;
pos = (48,0);
},
{
name = center;
pos = (297,291);
},
{
name = top;
pos = (297,714);
},
{
name = topleft;
pos = (48,714);
},
{
name = topright;
pos = (546,714);
}
);
layerId = master02;
shapes = (
{
closed = 1;
nodes = (
(480,466,o),
(472,475,o),
(455,475,cs),
(437,475,o),
(428,466,o),
(428,448,cs),
(428,431,o),
(437,422,o),
(455,422,cs),
(472,422,o),
(480,431,o),
(480,448,cs)
);
},
{
closed = 1;
nodes = (
(408,514,o),
(400,523,o),
(383,523,cs),
(364,523,o),
(355,514,o),
(355,496,cs),
(355,479,o),
(364,470,o),
(383,470,cs),
(400,470,o),
(408,479,o),
(408,496,cs)
);
},
{
closed = 1;
nodes = (
(529,393,o),
(520,402,o),
(503,402,cs),
(485,402,o),
(476,393,o),
(476,376,cs),
(476,358,o),
(485,349,o),
(502,349,cs),
(520,349,o),
(529,358,o),
(529,376,cs)
);
},
{
closed = 1;
nodes = (
(546,308,o),
(538,317,o),
(521,317,cs),
(503,317,o),
(494,308,o),
(494,291,cs),
(494,274,o),
(503,265,o),
(521,265,cs),
(538,265,o),
(546,274,o),
(546,291,cs)
);
},
{
closed = 1;
nodes = (
(323,531,o),
(314,540,o),
(297,540,cs),
(280,540,o),
(271,531,o),
(271,514,cs),
(271,496,o),
(280,487,o),
(297,487,cs),
(314,487,o),
(323,496,o),
(323,514,cs)
);
},
{
closed = 1;
nodes = (
(239,514,o),
(230,523,o),
(212,523,cs),
(195,523,o),
(186,514,o),
(186,496,cs),
(186,479,o),
(195,470,o),
(212,470,cs),
(230,470,o),
(239,479,o),
(239,496,cs)
);
},
{
closed = 1;
nodes = (
(529,224,o),
(520,233,o),
(502,233,cs),
(485,233,o),
(476,224,o),
(476,206,cs),
(476,189,o),
(485,180,o),
(502,180,cs),
(520,180,o),
(529,189,o),
(529,206,cs)
);
},
{
closed = 1;
nodes = (
(167,466,o),
(158,475,o),
(140,475,cs),
(123,475,o),
(114,466,o),
(114,447,cs),
(114,430,o),
(123,422,o),
(140,422,cs),
(158,422,o),
(167,431,o),
(167,448,cs)
);
},
{
closed = 1;
nodes = (
(480,151,o),
(472,160,o),
(455,160,cs),
(437,160,o),
(428,151,o),
(428,133,cs),
(428,116,o),
(437,107,o),
(455,107,cs),
(472,107,o),
(480,116,o),
(480,133,cs)
);
},
{
closed = 1;
nodes = (
(408,103,o),
(400,112,o),
(383,112,cs),
(364,112,o),
(355,103,o),
(355,85,cs),
(355,68,o),
(364,60,o),
(383,60,cs),
(400,60,o),
(408,68,o),
(408,85,cs)
);
},
{
closed = 1;
nodes = (
(118,393,o),
(109,402,o),
(92,402,cs),
(74,402,o),
(65,393,o),
(65,376,cs),
(65,358,o),
(74,349,o),
(93,349,cs),
(110,349,o),
(118,358,o),
(118,376,cs)
);
},
{
closed = 1;
nodes = (
(101,308,o),
(92,317,o),
(75,317,cs),
(57,317,o),
(48,308,o),
(48,291,cs),
(48,274,o),
(57,265,o),
(75,265,cs),
(92,265,o),
(101,274,o),
(101,291,cs)
);
},
{
closed = 1;
nodes = (
(323,86,o),
(314,95,o),
(297,95,cs),
(280,95,o),
(271,86,o),
(271,69,cs),
(271,51,o),
(280,42,o),
(297,42,cs),
(314,42,o),
(323,51,o),
(323,69,cs)
);
},
{
closed = 1;
nodes = (
(118,224,o),
(109,233,o),
(92,233,cs),
(74,233,o),
(65,224,o),
(65,206,cs),
(65,189,o),
(74,180,o),
(92,180,cs),
(109,180,o),
(118,189,o),
(118,206,cs)
);
},
{
closed = 1;
nodes = (
(239,104,o),
(230,112,o),
(212,112,cs),
(195,112,o),
(186,103,o),
(186,85,cs),
(186,68,o),
(195,60,o),
(212,60,cs),
(230,60,o),
(239,69,o),
(239,87,cs)
);
},
{
closed = 1;
nodes = (
(167,151,o),
(158,160,o),
(140,160,cs),
(123,160,o),
(114,151,o),
(114,133,cs),
(114,116,o),
(123,107,o),
(140,107,cs),
(158,107,o),
(167,116,o),
(167,133,cs)
);
}
);
width = 594;
},
{
anchors = (
{
name = bottom;
pos = (297,0);
},
{
name = bottomleft;
pos = (48,0);
},
{
name = center;
pos = (297,291);
},
{
name = top;
pos = (297,714);
},
{
name = topleft;
pos = (48,714);
},
{
name = topright;
pos = (546,714);
}
);
layerId = master03;
shapes = (
{
closed = 1;
nodes = (
(480,466,o),
(472,475,o),
(455,475,cs),
(437,475,o),
(428,466,o),
(428,448,cs),
(428,431,o),
(437,422,o),
(455,422,cs),
(472,422,o),
(480,431,o),
(480,448,cs)
);
},
{
closed = 1;
nodes = (
(408,514,o),
(400,523,o),
(383,523,cs),
(364,523,o),
(355,514,o),
(355,496,cs),
(355,479,o),
(364,470,o),
(383,470,cs),
(400,470,o),
(408,479,o),
(408,496,cs)
);
},
{
closed = 1;
nodes = (
(529,393,o),
(520,402,o),
(503,402,cs),
(485,402,o),
(476,393,o),
(476,376,cs),
(476,358,o),
(485,349,o),
(502,349,cs),
(520,349,o),
(529,358,o),
(529,376,cs)
);
},
{
closed = 1;
nodes = (
(546,308,o),
(538,317,o),
(521,317,cs),
(503,317,o),
(494,308,o),
(494,291,cs),
(494,274,o),
(503,265,o),
(521,265,cs),
(538,265,o),
(546,274,o),
(546,291,cs)
);
},
{
closed = 1;
nodes = (
(323,531,o),
(314,540,o),
(297,540,cs),
(280,540,o),
(271,531,o),
(271,514,cs),
(271,496,o),
(280,487,o),
(297,487,cs),
(314,487,o),
(323,496,o),
(323,514,cs)
);
},
{
closed = 1;
nodes = (
(239,514,o),
(230,523,o),
(212,523,cs),
(195,523,o),
(186,514,o),
(186,496,cs),
(186,479,o),
(195,470,o),
(212,470,cs),
(230,470,o),
(239,479,o),
(239,496,cs)
);
},
{
closed = 1;
nodes = (
(529,224,o),
(520,233,o),
(502,233,cs),
(485,233,o),
(476,224,o),
(476,206,cs),
(476,189,o),
(485,180,o),
(502,180,cs),
(520,180,o),
(529,189,o),
(529,206,cs)
);
},
{
closed = 1;
nodes = (
(167,466,o),
(158,475,o),
(140,475,cs),
(123,475,o),
(114,466,o),
(114,447,cs),
(114,430,o),
(123,422,o),
(140,422,cs),
(158,422,o),
(167,431,o),
(167,448,cs)
);
},
{
closed = 1;
nodes = (
(480,151,o),
(472,160,o),
(455,160,cs),
(437,160,o),
(428,151,o),
(428,133,cs),
(428,116,o),
(437,107,o),
(455,107,cs),
(472,107,o),
(480,116,o),
(480,133,cs)
);
},
{
closed = 1;
nodes = (
(408,103,o),
(400,112,o),
(383,112,cs),
(364,112,o),
(355,103,o),
(355,85,cs),
(355,68,o),
(364,60,o),
(383,60,cs),
(400,60,o),
(408,68,o),
(408,85,cs)
);
},
{
closed = 1;
nodes = (
(118,393,o),
(109,402,o),
(92,402,cs),
(74,402,o),
(65,393,o),
(65,376,cs),
(65,358,o),
(74,349,o),
(93,349,cs),
(110,349,o),
(118,358,o),
(118,376,cs)
);
},
{
closed = 1;
nodes = (
(101,308,o),
(92,317,o),
(75,317,cs),
(57,317,o),
(48,308,o),
(48,291,cs),
(48,274,o),
(57,265,o),
(75,265,cs),
(92,265,o),
(101,274,o),
(101,291,cs)
);
},
{
closed = 1;
nodes = (
(323,86,o),
(314,95,o),
(297,95,cs),
(280,95,o),
(271,86,o),
(271,69,cs),
(271,51,o),
(280,42,o),
(297,42,cs),
(314,42,o),
(323,51,o),
(323,69,cs)
);
},
{
closed = 1;
nodes = (
(118,224,o),
(109,233,o),
(92,233,cs),
(74,233,o),
(65,224,o),
(65,206,cs),
(65,189,o),
(74,180,o),
(92,180,cs),
(109,180,o),
(118,189,o),
(118,206,cs)
);
},
{
closed = 1;
nodes = (
(239,104,o),
(230,112,o),
(212,112,cs),
(195,112,o),
(186,103,o),
(186,85,cs),
(186,68,o),
(195,60,o),
(212,60,cs),
(230,60,o),
(239,69,o),
(239,87,cs)
);
},
{
closed = 1;
nodes = (
(167,151,o),
(158,160,o),
(140,160,cs),
(123,160,o),
(114,151,o),
(114,133,cs),
(114,116,o),
(123,107,o),
(140,107,cs),
(158,107,o),
(167,116,o),
(167,133,cs)
);
}
);
width = 594;
},
{
anchors = (
{
name = bottom;
pos = (297,0);
},
{
name = bottomleft;
pos = (48,0);
},
{
name = center;
pos = (297,291);
},
{
name = top;
pos = (297,714);
},
{
name = topleft;
pos = (48,714);
},
{
name = topright;
pos = (546,714);
}
);
layerId = master04;
shapes = (
{
closed = 1;
nodes = (
(480,466,o),
(472,475,o),
(455,475,cs),
(437,475,o),
(428,466,o),
(428,448,cs),
(428,431,o),
(437,422,o),
(455,422,cs),
(472,422,o),
(480,431,o),
(480,448,cs)
);
},
{
closed = 1;
nodes = (
(408,514,o),
(400,523,o),
(383,523,cs),
(364,523,o),
(355,514,o),
(355,496,cs),
(355,479,o),
(364,470,o),
(383,470,cs),
(400,470,o),
(408,479,o),
(408,496,cs)
);
},
{
closed = 1;
nodes = (
(529,393,o),
(520,402,o),
(503,402,cs),
(485,402,o),
(476,393,o),
(476,376,cs),
(476,358,o),
(485,349,o),
(502,349,cs),
(520,349,o),
(529,358,o),
(529,376,cs)
);
},
{
closed = 1;
nodes = (
(546,308,o),
(538,317,o),
(521,317,cs),
(503,317,o),
(494,308,o),
(494,291,cs),
(494,274,o),
(503,265,o),
(521,265,cs),
(538,265,o),
(546,274,o),
(546,291,cs)
);
},
{
closed = 1;
nodes = (
(323,531,o),
(314,540,o),
(297,540,cs),
(280,540,o),
(271,531,o),
(271,514,cs),
(271,496,o),
(280,487,o),
(297,487,cs),
(314,487,o),
(323,496,o),
(323,514,cs)
);
},
{
closed = 1;
nodes = (
(239,514,o),
(230,523,o),
(212,523,cs),
(195,523,o),
(186,514,o),
(186,496,cs),
(186,479,o),
(195,470,o),
(212,470,cs),
(230,470,o),
(239,479,o),
(239,496,cs)
);
},
{
closed = 1;
nodes = (
(529,224,o),
(520,233,o),
(502,233,cs),
(485,233,o),
(476,224,o),
(476,206,cs),
(476,189,o),
(485,180,o),
(502,180,cs),
(520,180,o),
(529,189,o),
(529,206,cs)
);
},
{
closed = 1;
nodes = (
(167,466,o),
(158,475,o),
(140,475,cs),
(123,475,o),
(114,466,o),
(114,447,cs),
(114,430,o),
(123,422,o),
(140,422,cs),
(158,422,o),
(167,431,o),
(167,448,cs)
);
},
{
closed = 1;
nodes = (
(480,151,o),
(472,160,o),
(455,160,cs),
(437,160,o),
(428,151,o),
(428,133,cs),
(428,116,o),
(437,107,o),
(455,107,cs),
(472,107,o),
(480,116,o),
(480,133,cs)
);
},
{
closed = 1;
nodes = (
(408,103,o),
(400,112,o),
(383,112,cs),
(364,112,o),
(355,103,o),
(355,85,cs),
(355,68,o),
(364,60,o),
(383,60,cs),
(400,60,o),
(408,68,o),
(408,85,cs)
);
},
{
closed = 1;
nodes = (
(118,393,o),
(109,402,o),
(92,402,cs),
(74,402,o),
(65,393,o),
(65,376,cs),
(65,358,o),
(74,349,o),
(93,349,cs),
(110,349,o),
(118,358,o),
(118,376,cs)
);
},
{
closed = 1;
nodes = (
(101,308,o),
(92,317,o),
(75,317,cs),
(57,317,o),
(48,308,o),
(48,291,cs),
(48,274,o),
(57,265,o),
(75,265,cs),
(92,265,o),
(101,274,o),
(101,291,cs)
);
},
{
closed = 1;
nodes = (
(323,86,o),
(314,95,o),
(297,95,cs),
(280,95,o),
(271,86,o),
(271,69,cs),
(271,51,o),
(280,42,o),
(297,42,cs),
(314,42,o),
(323,51,o),
(323,69,cs)
);
},
{
closed = 1;
nodes = (
(118,224,o),
(109,233,o),
(92,233,cs),
(74,233,o),
(65,224,o),
(65,206,cs),
(65,189,o),
(74,180,o),
(92,180,cs),
(109,180,o),
(118,189,o),
(118,206,cs)
);
},
{
closed = 1;
nodes = (
(239,104,o),
(230,112,o),
(212,112,cs),
(195,112,o),
(186,103,o),
(186,85,cs),
(186,68,o),
(195,60,o),
(212,60,cs),
(230,60,o),
(239,69,o),
(239,87,cs)
);
},
{
closed = 1;
nodes = (
(167,151,o),
(158,160,o),
(140,160,cs),
(123,160,o),
(114,151,o),
(114,133,cs),
(114,116,o),
(123,107,o),
(140,107,cs),
(158,107,o),
(167,116,o),
(167,133,cs)
);
}
);
width = 594;
}
);
note = "
uni25CC
";
unicode = 9676;
},
{
glyphname = "upperdot-hb";
layers = (
{
anchors = (
{
name = _top;
pos = (72,528);
}
);
layerId = master01;
shapes = (
{
closed = 1;
nodes = (
(84,656,o),
(94,666,o),
(94,679,cs),
(94,691,o),
(84,701,o),
(72,701,cs),
(59,701,o),
(49,691,o),
(49,679,cs),
(49,666,o),
(59,656,o),
(72,656,cs)
);
}
);
userData = {
com.schriftgestaltung.Glyphs.originalWidth = 144;
};
width = 0;
},
{
anchors = (
{
name = _top;
pos = (101,553);
}
);
layerId = master02;
shapes = (
{
closed = 1;
nodes = (
(121,678,o),
(138,695,o),
(138,715,cs),
(138,735,o),
(121,752,o),
(101,752,cs),
(81,752,o),
(64,735,o),
(64,715,cs),
(64,695,o),
(81,678,o),
(101,678,cs)
);
}
);
userData = {
com.schriftgestaltung.Glyphs.originalWidth = 202;
};
width = 0;
},
{
anchors = (
{
name = _top;
pos = (72,528);
}
);
layerId = master03;
shapes = (
{
closed = 1;
nodes = (
(84,656,o),
(94,666,o),
(94,679,cs),
(94,691,o),
(84,701,o),
(72,701,cs),
(59,701,o),
(49,691,o),
(49,679,cs),
(49,666,o),
(59,656,o),
(72,656,cs)
);
}
);
userData = {
com.schriftgestaltung.Glyphs.originalWidth = 144;
};
width = 0;
},
{
anchors = (
{
name = _top;
pos = (101,553);
}
);
layerId = master04;
shapes = (
{
closed = 1;
nodes = (
(121,678,o),
(138,695,o),
(138,715,cs),
(138,735,o),
(121,752,o),
(101,752,cs),
(81,752,o),
(64,735,o),
(64,715,cs),
(64,695,o),
(81,678,o),
(101,678,cs)
);
}
);
userData = {
com.schriftgestaltung.Glyphs.originalWidth = 202;
};
width = 0;
}
);
note = "
upper_dot
";
unicode = 1476;
},
{
glyphname = "vav-hb";
layers = (
{
anchors = (
{
name = bottom;
pos = (154,0);
},
{
name = bottomleft;
pos = (84,0);
},
{
name = center;
pos = (44,296);
},
{
name = top;
pos = (156,528);
},
{
name = topleft;
pos = (156,528);
}
);
layerId = master01;
shapes = (
{
closed = 1;
nodes = (
(172,0,l),
(172,584,l),
(140,584,l),
(140,0,l)
);
},
{
closed = 1;
nodes = (
(160,557,l),
(160,584,l),
(45,584,l),
(40,557,l)
);
}
);
width = 264;
},
{
anchors = (
{
name = bottom;
pos = (206,0);
},
{
name = bottomleft;
pos = (72,0);
},
{
name = center;
pos = (29,306);
},
{
name = top;
pos = (206,553);
},
{
name = topleft;
pos = (206,553);
}
);
layerId = master02;
shapes = (
{
closed = 1;
nodes = (
(302,0,l),
(302,609,l),
(110,609,l),
(110,0,l)
);
},
{
closed = 1;
nodes = (
(237,451,l),
(237,609,l),
(55,609,l),
(35,451,l)
);
}
);
width = 362;
},
{
anchors = (
{
name = bottom;
pos = (127,0);
},
{
name = bottomleft;
pos = (55,0);
},
{
name = center;
pos = (35,296);
},
{
name = top;
pos = (127,528);
},
{
name = topleft;
pos = (127,528);
}
);
layerId = master03;
shapes = (
{
closed = 1;
nodes = (
(141,0,l),
(141,584,l),
(109,584,l),
(109,0,l)
);
},
{
closed = 1;
nodes = (
(129,557,l),
(129,584,l),
(44,584,l),
(39,557,l)
);
}
);
width = 210;
},
{
anchors = (
{
name = bottom;
pos = (199,0);
},
{
name = bottomleft;
pos = (68,0);
},
{
name = center;
pos = (24,306);
},
{
name = top;
pos = (202,553);
},
{
name = topleft;
pos = (202,553);
}
);
layerId = master04;
shapes = (
{
closed = 1;
nodes = (
(285,0,l),
(285,609,l),
(93,609,l),
(93,0,l)
);
},
{
closed = 1;
nodes = (
(220,451,l),
(220,609,l),
(48,609,l),
(28,451,l)
);
}
);
width = 333;
}
);
unicode = 1493;
},
{
glyphname = "widealef-hb";
layers = (
{
layerId = master01;
shapes = (
{
closed = 1;
nodes = (
(645,0,l),
(532,148,o),
(388,307,o),
(291,405,cs),
(193,504,o),
(153,542,o),
(110,584,c),
(72,584,l),
(114,543,o),
(157,502,o),
(256,401,cs),
(351,304,o),
(495,149,o),
(608,0,c)
);
},
{
closed = 1;
nodes = (
(68,0,l),
(99,194,ls),
(116,303,o),
(153,376,o),
(239,424,c),
(224,446,l),
(130,393,o),
(87,314,o),
(67,191,cs),
(36,0,l)
);
},
{
closed = 1;
nodes = (
(539,281,o),
(596,357,o),
(609,481,cs),
(619,584,l),
(587,584,l),
(577,478,ls),
(565,368,o),
(515,298,o),
(430,250,c),
(445,228,l)
);
}
);
width = 683;
},
{
layerId = master02;
shapes = (
{
closed = 1;
nodes = (
(845,0,l),
(717,152,o),
(586,281,o),
(460,434,cs),
(431,469,o),
(349,561,o),
(300,609,c),
(54,609,l),
(97,570,o),
(223,438,o),
(280,381,cs),
(406,255,o),
(492,152,o),
(612,0,c)
);
},
{
closed = 1;
nodes = (
(231,0,l),
(259,175,ls),
(268,233,o),
(273,294,o),
(355,329,c),
(300,452,l),
(122,397,o),
(85,291,o),
(69,188,cs),
(40,0,l)
);
},
{
closed = 1;
nodes = (
(735,258,o),
(791,365,o),
(807,467,cs),
(829,609,l),
(638,609,l),
(615,480,ls),
(605,426,o),
(594,361,o),
(511,326,c),
(565,203,l)
);
}
);
width = 890;
},
{
layerId = master03;
shapes = (
{
closed = 1;
nodes = (
(520,0,l),
(433,148,o),
(317,307,o),
(237,405,cs),
(156,504,o),
(123,542,o),
(87,584,c),
(51,584,l),
(86,543,o),
(122,502,o),
(203,401,cs),
(281,303,o),
(398,149,o),
(485,0,c)
);
},
{
closed = 1;
nodes = (
(54,0,l),
(78,174,ls),
(93,283,o),
(126,356,o),
(210,404,c),
(194,426,l),
(102,373,o),
(63,294,o),
(46,171,cs),
(22,0,l)
);
},
{
closed = 1;
nodes = (
(441,301,o),
(494,377,o),
(504,501,cs),
(511,584,l),
(479,584,l),
(472,498,ls),
(463,388,o),
(417,318,o),
(333,270,c),
(349,248,l)
);
}
);
width = 542;
},
{
layerId = master04;
shapes = (
{
closed = 1;
nodes = (
(679,0,l),
(583,152,o),
(481,283,o),
(386,434,cs),
(364,469,o),
(301,561,o),
(262,609,c),
(26,609,l),
(60,570,o),
(158,438,o),
(204,381,cs),
(305,256,o),
(368,152,o),
(456,0,c)
);
},
{
closed = 1;
nodes = (
(206,0,l),
(229,145,ls),
(238,203,o),
(243,264,o),
(295,279,c),
(240,402,l),
(92,367,o),
(55,261,o),
(39,158,cs),
(15,0,l)
);
},
{
closed = 1;
nodes = (
(605,278,o),
(656,384,o),
(667,487,cs),
(680,609,l),
(489,609,l),
(475,500,ls),
(468,445,o),
(464,381,o),
(401,366,c),
(455,243,l)
);
}
);
width = 695;
}
);
note = "
alefwide
";
unicode = 64289;
},
{
glyphname = "widedalet-hb";
layers = (
{
layerId = master01;
shapes = (
{
closed = 1;
nodes = (
(503,0,l),
(503,509,l),
(503,528,o),
(505,548,o),
(508,557,c),
(484,557,l),
(475,550,o),
(471,528,o),
(471,509,c),
(471,0,l)
);
},
{
closed = 1;
nodes = (
(593,557,l),
(598,584,l),
(25,584,l),
(25,557,l)
);
}
);
width = 632;
},
{
layerId = master02;
shapes = (
{
closed = 1;
nodes = (
(624,0,l),
(624,384,l),
(624,416,o),
(624,439,o),
(645,451,c),
(492,451,l),
(443,427,o),
(432,366,o),
(432,336,c),
(432,0,l)
);
},
{
closed = 1;
nodes = (
(705,451,l),
(725,609,l),
(45,609,l),
(45,451,l)
);
}
);
width = 745;
},
{
layerId = master03;
shapes = (
{
closed = 1;
nodes = (
(373,0,l),
(373,509,l),
(373,528,o),
(375,548,o),
(378,557,c),
(354,557,l),
(345,550,o),
(341,528,o),
(341,509,c),
(341,0,l)
);
},
{
closed = 1;
nodes = (
(463,557,l),
(468,584,l),
(35,584,l),
(35,557,l)
);
}
);
width = 502;
},
{
layerId = master04;
shapes = (
{
closed = 1;
nodes = (
(474,0,l),
(474,384,l),
(474,416,o),
(474,439,o),
(495,451,c),
(342,451,l),
(293,427,o),
(282,366,o),
(282,336,c),
(282,0,l)
);
},
{
closed = 1;
nodes = (
(555,451,l),
(575,609,l),
(35,609,l),
(35,451,l)
);
}
);
width = 607;
}
);
note = "
daletwide
";
unicode = 64290;
},
{
glyphname = "widehe-hb";
layers = (
{
layerId = master01;
shapes = (
{
closed = 1;
nodes = (
(681,0,l),
(681,419,ls),
(681,531,o),
(622,584,o),
(521,584,cs),
(50,584,l),
(45,557,l),
(516,557,ls),
(604,557,o),
(649,518,o),
(649,416,cs),
(649,0,l)
);
},
{
closed = 1;
nodes = (
(101,0,l),
(101,355,l),
(69,350,l),
(69,0,l)
);
}
);
width = 766;
},
{
layerId = master02;
shapes = (
{
closed = 1;
nodes = (
(789,0,l),
(789,382,ls),
(789,533,o),
(704,609,o),
(537,609,cs),
(70,609,l),
(50,451,l),
(528,451,ls),
(571,451,o),
(597,427,o),
(597,379,cs),
(597,0,l)
);
},
{
closed = 1;
nodes = (
(252,0,l),
(252,326,l),
(60,316,l),
(60,0,l)
);
}
);
width = 854;
},
{
layerId = master03;
shapes = (
{
closed = 1;
nodes = (
(506,0,l),
(506,419,ls),
(506,527,o),
(449,584,o),
(343,584,cs),
(55,584,l),
(50,557,l),
(338,557,ls),
(431,557,o),
(474,511,o),
(474,416,cs),
(474,0,l)
);
},
{
closed = 1;
nodes = (
(101,0,l),
(101,355,l),
(69,350,l),
(69,0,l)
);
}
);
width = 556;
},
{
layerId = master04;
shapes = (
{
closed = 1;
nodes = (
(629,0,l),
(629,382,ls),
(629,533,o),
(544,609,o),
(377,609,cs),
(70,609,l),
(50,451,l),
(368,451,ls),
(411,451,o),
(437,427,o),
(437,379,cs),
(437,0,l)
);
},
{
closed = 1;
nodes = (
(252,0,l),
(252,326,l),
(60,316,l),
(60,0,l)
);
}
);
width = 689;
}
);
note = "
hewide
";
unicode = 64291;
},
{
glyphname = "widekaf-hb";
layers = (
{
layerId = master01;
shapes = (
{
closed = 1;
nodes = (
(371,0,ls),
(527,0,o),
(609,100,o),
(609,292,cs),
(609,484,o),
(527,584,o),
(371,584,cs),
(37,584,l),
(32,557,l),
(371,557,ls),
(505,557,o),
(575,466,o),
(575,292,cs),
(575,118,o),
(505,27,o),
(371,27,cs),
(32,27,l),
(32,0,l)
);
}
);
width = 650;
},
{
layerId = master02;
shapes = (
{
closed = 1;
nodes = (
(403,0,ls),
(597,0,o),
(702,110,o),
(702,297,cs),
(702,493,o),
(597,609,o),
(403,609,cs),
(45,609,l),
(25,451,l),
(403,451,ls),
(475,451,o),
(507,394,o),
(507,297,cs),
(507,210,o),
(475,158,o),
(403,158,cs),
(25,158,l),
(25,0,l)
);
}
);
width = 727;
},
{
layerId = master03;
shapes = (
{
closed = 1;
nodes = (
(211,0,ls),
(367,0,o),
(449,100,o),
(449,292,cs),
(449,484,o),
(367,584,o),
(211,584,cs),
(67,584,l),
(62,557,l),
(211,557,ls),
(345,557,o),
(415,466,o),
(415,292,cs),
(415,118,o),
(345,27,o),
(211,27,cs),
(62,27,l),
(62,0,l)
);
}
);
width = 506;
},
{
layerId = master04;
shapes = (
{
closed = 1;
nodes = (
(233,0,ls),
(427,0,o),
(532,110,o),
(532,297,cs),
(532,493,o),
(427,609,o),
(233,609,cs),
(65,609,l),
(45,451,l),
(233,451,ls),
(305,451,o),
(337,394,o),
(337,297,cs),
(337,210,o),
(305,158,o),
(233,158,cs),
(45,158,l),
(45,0,l)
);
}
);
width = 567;
}
);
note = "
kafwide
";
unicode = 64292;
},
{
glyphname = "widelamed-hb";
lastChange = "2024-06-03 10:08:59 +0000";
layers = (
{
layerId = master01;
shapes = (
{
closed = 1;
nodes = (
(371,0,l),
(561,557,l),
(561,584,l),
(36,584,l),
(36,760,l),
(10,755,l),
(10,557,l),
(535,557,l),
(345,0,l)
);
}
);
width = 601;
},
{
layerId = master02;
shapes = (
{
closed = 1;
nodes = (
(497,0,l),
(696,499,l),
(696,609,l),
(196,609,l),
(196,760,l),
(4,740,l),
(4,451,l),
(484,451,l),
(296,0,l)
);
}
);
width = 716;
},
{
layerId = master03;
shapes = (
{
closed = 1;
nodes = (
(252,0,l),
(432,557,l),
(429,584,l),
(67,584,l),
(67,760,l),
(35,755,l),
(35,557,l),
(400,557,l),
(220,0,l)
);
}
);
width = 461;
},
{
layerId = master04;
shapes = (
{
closed = 1;
nodes = (
(363,0,l),
(542,499,l),
(532,609,l),
(212,609,l),
(212,760,l),
(20,740,l),
(20,451,l),
(330,451,l),
(162,0,l)
);
}
);
width = 562;
}
);
note = "
lamedwide
";
unicode = 64293;
},
{
glyphname = "wideresh-hb";
layers = (
{
layerId = master01;
shapes = (
{
closed = 1;
nodes = (
(601,0,l),
(601,419,ls),
(601,531,o),
(542,584,o),
(441,584,cs),
(50,584,l),
(45,557,l),
(436,557,ls),
(524,557,o),
(569,518,o),
(569,416,cs),
(569,0,l)
);
}
);
width = 637;
},
{
layerId = master02;
shapes = (
{
closed = 1;
nodes = (
(689,0,l),
(689,382,ls),
(689,533,o),
(604,609,o),
(437,609,cs),
(50,609,l),
(30,451,l),
(428,451,ls),
(471,451,o),
(497,427,o),
(497,379,cs),
(497,0,l)
);
}
);
width = 747;
},
{
layerId = master03;
shapes = (
{
closed = 1;
nodes = (
(413,0,l),
(413,419,ls),
(413,527,o),
(356,584,o),
(250,584,cs),
(43,584,l),
(38,557,l),
(245,557,ls),
(338,557,o),
(381,511,o),
(381,416,cs),
(381,0,l)
);
}
);
width = 472;
},
{
layerId = master04;
shapes = (
{
closed = 1;
nodes = (
(489,0,l),
(489,382,ls),
(489,533,o),
(404,609,o),
(237,609,cs),
(45,609,l),
(25,451,l),
(228,451,ls),
(271,451,o),
(297,427,o),
(297,379,cs),
(297,0,l)
);
}
);
width = 547;
}
);
note = "
reshwide
";
unicode = 64295;
},
{
glyphname = "widetav-hb";
layers = (
{
layerId = master01;
shapes = (
{
closed = 1;
nodes = (
(768,0,l),
(768,419,ls),
(768,527,o),
(711,584,o),
(605,584,cs),
(160,584,l),
(160,557,l),
(600,557,ls),
(693,557,o),
(736,511,o),
(736,416,cs),
(736,0,l)
);
},
{
closed = 1;
nodes = (
(81,0,ls),
(152,0,o),
(192,44,o),
(192,120,cs),
(192,572,l),
(160,572,l),
(160,134,ls),
(160,60,o),
(136,27,o),
(81,27,cs),
(45,27,l),
(40,0,l)
);
},
{
closed = 1;
nodes = (
(170,557,l),
(170,584,l),
(75,584,l),
(70,557,l)
);
}
);
width = 782;
},
{
layerId = master02;
shapes = (
{
closed = 1;
nodes = (
(891,0,l),
(891,382,ls),
(891,533,o),
(806,609,o),
(639,609,cs),
(138,609,l),
(138,451,l),
(630,451,ls),
(673,451,o),
(699,427,o),
(699,379,cs),
(699,0,l)
);
},
{
closed = 1;
nodes = (
(132,0,ls),
(262,0,o),
(330,76,o),
(330,221,cs),
(330,574,l),
(138,574,l),
(138,211,ls),
(138,176,o),
(122,158,o),
(91,158,cs),
(55,158,l),
(35,0,l)
);
},
{
closed = 1;
nodes = (
(259,451,l),
(259,609,l),
(77,609,l),
(57,451,l)
);
}
);
width = 946;
},
{
layerId = master03;
shapes = (
{
closed = 1;
nodes = (
(568,0,l),
(568,419,ls),
(568,527,o),
(511,584,o),
(405,584,cs),
(160,584,l),
(160,557,l),
(400,557,ls),
(493,557,o),
(536,511,o),
(536,416,cs),
(536,0,l)
);
},
{
closed = 1;
nodes = (
(81,0,ls),
(152,0,o),
(192,44,o),
(192,120,cs),
(192,572,l),
(160,572,l),
(160,134,ls),
(160,60,o),
(136,27,o),
(81,27,cs),
(45,27,l),
(40,0,l)
);
},
{
closed = 1;
nodes = (
(175,557,l),
(175,584,l),
(82,584,l),
(77,557,l)
);
}
);
width = 637;
},
{
layerId = master04;
shapes = (
{
closed = 1;
nodes = (
(681,0,l),
(681,382,ls),
(681,533,o),
(596,609,o),
(429,609,cs),
(128,609,l),
(128,451,l),
(420,451,ls),
(463,451,o),
(489,427,o),
(489,379,cs),
(489,0,l)
);
},
{
closed = 1;
nodes = (
(122,0,ls),
(252,0,o),
(320,76,o),
(320,221,cs),
(320,574,l),
(128,574,l),
(128,211,ls),
(128,176,o),
(112,158,o),
(81,158,cs),
(45,158,l),
(25,0,l)
);
},
{
closed = 1;
nodes = (
(237,451,l),
(237,609,l),
(65,609,l),
(45,451,l)
);
}
);
width = 731;
}
);
note = "
tavwide
";
unicode = 64296;
},
